<?xml version="1.0" standalone="no"?>
<!DOCTYPE svg PUBLIC "-//W3C//DTD SVG 1.1//EN" "http://www.w3.org/Graphics/SVG/1.1/DTD/svg11.dtd">
<svg width="200mm" height="150mm" viewBox="0 -150 200 150" xmlns="http://www.w3.org/2000/svg" version="1.1">
<title>OpenSCAD Model</title>
<path d="
M 190,-0.054781 L 191.045,-0.054781 L 193.09,-0.489435 L 195,-1.33975 L 196.691,-2.56855 L 198.09,-4.12215
 L 199.135,-5.93263 L 199.781,-7.92088 L 200,-10 L 200,-140 L 199.781,-142.079 L 199.135,-144.067
 L 198.09,-145.878 L 196.691,-147.431 L 195,-148.66 L 193.09,-149.511 L 191.045,-149.945 L 190,-149.945
 L 190,-150 L 10,-150 L 10,-149.945 L 8.95472,-149.945 L 6.90983,-149.511 L 5,-148.66
 L 3.30869,-147.431 L 1.90983,-145.878 L 0.864545,-144.067 L 0.218524,-142.079 L 0,-140 L 0,-10
 L 0.218524,-7.92088 L 0.864545,-5.93263 L 1.90983,-4.12215 L 3.30869,-2.56855 L 5,-1.33975 L 6.90983,-0.489435
 L 8.95472,-0.054781 L 10,-0.054781 L 10,-0 L 190,-0 z
M 99,-5 L 99,-15 L 94,-15 L 94,-35 L 99,-35 L 99,-85
 L 94,-85 L 94,-105 L 99,-105 L 99,-120 L 161,-30 L 101,-5
 z
" stroke="black" fill="lightgray" stroke-width="0.5"/>
</svg>
