<?xml version="1.0" standalone="no"?>
<!DOCTYPE svg PUBLIC "-//W3C//DTD SVG 1.1//EN" "http://www.w3.org/Graphics/SVG/1.1/DTD/svg11.dtd">
<svg width="1230mm" height="354mm" viewBox="0 -354 1230 354" xmlns="http://www.w3.org/2000/svg" version="1.1">
<title>OpenSCAD Model</title>
<path d="
M 430,-354 L 326.5,-354 L 326.5,-319 L 322.5,-319 L 322.5,-354 L 219,-354
 L 219,-319 L 215,-319 L 215,-354 L 111.5,-354 L 111.5,-319 L 107.5,-319
 L 107.5,-354 L 0,-354 L 0,-284 L 430,-284 z
M 262.57,-299.979 L 258.75,-301.679 L 255.367,-304.137 L 252.57,-307.244 L 250.479,-310.865 L 249.187,-314.842
 L 248.75,-319 L 249.187,-323.158 L 250.479,-327.135 L 252.57,-330.756 L 255.367,-333.863 L 258.75,-336.321
 L 262.57,-338.021 L 266.659,-338.89 L 270.841,-338.89 L 274.93,-338.021 L 278.75,-336.321 L 282.133,-333.863
 L 284.93,-330.756 L 287.021,-327.135 L 288.313,-323.158 L 288.75,-319 L 288.313,-314.842 L 287.021,-310.865
 L 284.93,-307.244 L 282.133,-304.137 L 278.75,-301.679 L 274.93,-299.979 L 270.841,-299.11 L 266.659,-299.11
 z
M 370.07,-299.979 L 366.25,-301.679 L 362.867,-304.137 L 360.07,-307.244 L 357.979,-310.865 L 356.687,-314.842
 L 356.25,-319 L 356.687,-323.158 L 357.979,-327.135 L 360.07,-330.756 L 362.867,-333.863 L 366.25,-336.321
 L 370.07,-338.021 L 374.159,-338.89 L 378.341,-338.89 L 382.43,-338.021 L 386.25,-336.321 L 389.633,-333.863
 L 392.43,-330.756 L 394.521,-327.135 L 395.813,-323.158 L 396.25,-319 L 395.813,-314.842 L 394.521,-310.865
 L 392.43,-307.244 L 389.633,-304.137 L 386.25,-301.679 L 382.43,-299.979 L 378.341,-299.11 L 374.159,-299.11
 z
M 430,-283 L 326.5,-283 L 326.5,-248 L 322.5,-248 L 322.5,-283 L 219,-283
 L 219,-248 L 215,-248 L 215,-283 L 111.5,-283 L 111.5,-248 L 107.5,-248
 L 107.5,-283 L 0,-283 L 0,-213 L 430,-213 z
M 47.5697,-228.979 L 43.75,-230.679 L 40.3674,-233.137 L 37.5697,-236.244 L 35.4791,-239.865 L 34.187,-243.842
 L 33.75,-248 L 34.187,-252.158 L 35.4791,-256.135 L 37.5697,-259.756 L 40.3674,-262.863 L 43.75,-265.321
 L 47.5697,-267.021 L 51.6594,-267.89 L 55.8406,-267.89 L 59.9303,-267.021 L 63.75,-265.321 L 67.1326,-262.863
 L 69.9303,-259.756 L 72.0209,-256.135 L 73.313,-252.158 L 73.75,-248 L 73.313,-243.842 L 72.0209,-239.865
 L 69.9303,-236.244 L 67.1326,-233.137 L 63.75,-230.679 L 59.9303,-228.979 L 55.8406,-228.11 L 51.6594,-228.11
 z
M 262.57,-228.979 L 258.75,-230.679 L 255.367,-233.137 L 252.57,-236.244 L 250.479,-239.865 L 249.187,-243.842
 L 248.75,-248 L 249.187,-252.158 L 250.479,-256.135 L 252.57,-259.756 L 255.367,-262.863 L 258.75,-265.321
 L 262.57,-267.021 L 266.659,-267.89 L 270.841,-267.89 L 274.93,-267.021 L 278.75,-265.321 L 282.133,-262.863
 L 284.93,-259.756 L 287.021,-256.135 L 288.313,-252.158 L 288.75,-248 L 288.313,-243.842 L 287.021,-239.865
 L 284.93,-236.244 L 282.133,-233.137 L 278.75,-230.679 L 274.93,-228.979 L 270.841,-228.11 L 266.659,-228.11
 z
M 430,-212 L 326.5,-212 L 326.5,-177 L 322.5,-177 L 322.5,-212 L 219,-212
 L 219,-177 L 215,-177 L 215,-212 L 111.5,-212 L 111.5,-177 L 107.5,-177
 L 107.5,-212 L 0,-212 L 0,-142 L 430,-142 z
M 155.07,-157.979 L 151.25,-159.679 L 147.867,-162.137 L 145.07,-165.244 L 142.979,-168.865 L 141.687,-172.842
 L 141.25,-177 L 141.687,-181.158 L 142.979,-185.135 L 145.07,-188.756 L 147.867,-191.863 L 151.25,-194.321
 L 155.07,-196.021 L 159.159,-196.89 L 163.341,-196.89 L 167.43,-196.021 L 171.25,-194.321 L 174.633,-191.863
 L 177.43,-188.756 L 179.521,-185.135 L 180.813,-181.158 L 181.25,-177 L 180.813,-172.842 L 179.521,-168.865
 L 177.43,-165.244 L 174.633,-162.137 L 171.25,-159.679 L 167.43,-157.979 L 163.341,-157.11 L 159.159,-157.11
 z
M 370.07,-157.979 L 366.25,-159.679 L 362.867,-162.137 L 360.07,-165.244 L 357.979,-168.865 L 356.687,-172.842
 L 356.25,-177 L 356.687,-181.158 L 357.979,-185.135 L 360.07,-188.756 L 362.867,-191.863 L 366.25,-194.321
 L 370.07,-196.021 L 374.159,-196.89 L 378.341,-196.89 L 382.43,-196.021 L 386.25,-194.321 L 389.633,-191.863
 L 392.43,-188.756 L 394.521,-185.135 L 395.813,-181.158 L 396.25,-177 L 395.813,-172.842 L 394.521,-168.865
 L 392.43,-165.244 L 389.633,-162.137 L 386.25,-159.679 L 382.43,-157.979 L 378.341,-157.11 L 374.159,-157.11
 z
M 1230,-212 L 1129,-212 L 1129,-177 L 1125,-177 L 1125,-212 L 1024,-212
 L 1024,-177 L 1020,-177 L 1020,-212 L 919,-212 L 919,-177 L 915,-177
 L 915,-212 L 814,-212 L 814,-177 L 810,-177 L 810,-212 L 709,-212
 L 709,-177 L 705,-177 L 705,-212 L 600,-212 L 600,-142 L 1230,-142
 z
M 851.57,-162.979 L 847.75,-164.679 L 844.367,-167.137 L 841.57,-170.244 L 839.479,-173.865 L 838.187,-177.842
 L 837.75,-182 L 838.187,-186.158 L 839.479,-190.135 L 841.57,-193.756 L 844.367,-196.863 L 847.75,-199.321
 L 851.57,-201.021 L 855.659,-201.89 L 859.841,-201.89 L 863.93,-201.021 L 867.75,-199.321 L 871.133,-196.863
 L 873.93,-193.756 L 876.021,-190.135 L 877.313,-186.158 L 877.75,-182 L 877.313,-177.842 L 876.021,-173.865
 L 873.93,-170.244 L 871.133,-167.137 L 867.75,-164.679 L 863.93,-162.979 L 859.841,-162.11 L 855.659,-162.11
 z
M 1058.57,-160.979 L 1054.75,-162.679 L 1051.37,-165.137 L 1048.57,-168.244 L 1046.48,-171.865 L 1045.19,-175.842
 L 1044.75,-180 L 1045.19,-184.158 L 1046.48,-188.135 L 1048.57,-191.756 L 1051.37,-194.863 L 1054.75,-197.321
 L 1058.57,-199.021 L 1062.66,-199.89 L 1066.84,-199.89 L 1070.93,-199.021 L 1074.75,-197.321 L 1078.13,-194.863
 L 1080.93,-191.756 L 1083.02,-188.135 L 1084.31,-184.158 L 1084.75,-180 L 1084.31,-175.842 L 1083.02,-171.865
 L 1080.93,-168.244 L 1078.13,-165.137 L 1074.75,-162.679 L 1070.93,-160.979 L 1066.84,-160.11 L 1062.66,-160.11
 z
M 1176.57,-159.979 L 1172.75,-161.679 L 1169.37,-164.137 L 1166.57,-167.244 L 1164.48,-170.865 L 1163.19,-174.842
 L 1162.75,-179 L 1163.19,-183.158 L 1164.48,-187.135 L 1166.57,-190.756 L 1169.37,-193.863 L 1172.75,-196.321
 L 1176.57,-198.021 L 1180.66,-198.89 L 1184.84,-198.89 L 1188.93,-198.021 L 1192.75,-196.321 L 1196.13,-193.863
 L 1198.93,-190.756 L 1201.02,-187.135 L 1202.31,-183.158 L 1202.75,-179 L 1202.31,-174.842 L 1201.02,-170.865
 L 1198.93,-167.244 L 1196.13,-164.137 L 1192.75,-161.679 L 1188.93,-159.979 L 1184.84,-159.11 L 1180.66,-159.11
 z
M 745.57,-155.979 L 741.75,-157.679 L 738.367,-160.137 L 735.57,-163.244 L 733.479,-166.865 L 732.187,-170.842
 L 731.75,-175 L 732.187,-179.158 L 733.479,-183.135 L 735.57,-186.756 L 738.367,-189.863 L 741.75,-192.321
 L 745.57,-194.021 L 749.659,-194.89 L 753.841,-194.89 L 757.93,-194.021 L 761.75,-192.321 L 765.133,-189.863
 L 767.93,-186.756 L 770.021,-183.135 L 771.313,-179.158 L 771.75,-175 L 771.313,-170.842 L 770.021,-166.865
 L 767.93,-163.244 L 765.133,-160.137 L 761.75,-157.679 L 757.93,-155.979 L 753.841,-155.11 L 749.659,-155.11
 z
M 975.57,-155.979 L 971.75,-157.679 L 968.367,-160.137 L 965.57,-163.244 L 963.479,-166.865 L 962.187,-170.842
 L 961.75,-175 L 962.187,-179.158 L 963.479,-183.135 L 965.57,-186.756 L 968.367,-189.863 L 971.75,-192.321
 L 975.57,-194.021 L 979.659,-194.89 L 983.841,-194.89 L 987.93,-194.021 L 991.75,-192.321 L 995.133,-189.863
 L 997.93,-186.756 L 1000.02,-183.135 L 1001.31,-179.158 L 1001.75,-175 L 1001.31,-170.842 L 1000.02,-166.865
 L 997.93,-163.244 L 995.133,-160.137 L 991.75,-157.679 L 987.93,-155.979 L 983.841,-155.11 L 979.659,-155.11
 z
M 649.57,-154.979 L 645.75,-156.679 L 642.367,-159.137 L 639.57,-162.244 L 637.479,-165.865 L 636.187,-169.842
 L 635.75,-174 L 636.187,-178.158 L 637.479,-182.135 L 639.57,-185.756 L 642.367,-188.863 L 645.75,-191.321
 L 649.57,-193.021 L 653.659,-193.89 L 657.841,-193.89 L 661.93,-193.021 L 665.75,-191.321 L 669.133,-188.863
 L 671.93,-185.756 L 674.021,-182.135 L 675.313,-178.158 L 675.75,-174 L 675.313,-169.842 L 674.021,-165.865
 L 671.93,-162.244 L 669.133,-159.137 L 665.75,-156.679 L 661.93,-154.979 L 657.841,-154.11 L 653.659,-154.11
 z
M 430,-141 L 326.5,-141 L 326.5,-106 L 322.5,-106 L 322.5,-141 L 219,-141
 L 219,-106 L 215,-106 L 215,-141 L 111.5,-141 L 111.5,-106 L 107.5,-106
 L 107.5,-141 L 0,-141 L 0,-71 L 430,-71 z
M 47.5697,-86.9789 L 43.75,-88.6795 L 40.3674,-91.1371 L 37.5697,-94.2443 L 35.4791,-97.8653 L 34.187,-101.842
 L 33.75,-106 L 34.187,-110.158 L 35.4791,-114.135 L 37.5697,-117.756 L 40.3674,-120.863 L 43.75,-123.321
 L 47.5697,-125.021 L 51.6594,-125.89 L 55.8406,-125.89 L 59.9303,-125.021 L 63.75,-123.321 L 67.1326,-120.863
 L 69.9303,-117.756 L 72.0209,-114.135 L 73.313,-110.158 L 73.75,-106 L 73.313,-101.842 L 72.0209,-97.8653
 L 69.9303,-94.2443 L 67.1326,-91.1371 L 63.75,-88.6795 L 59.9303,-86.9789 L 55.8406,-86.1096 L 51.6594,-86.1096
 z
M 155.07,-86.9789 L 151.25,-88.6795 L 147.867,-91.1371 L 145.07,-94.2443 L 142.979,-97.8653 L 141.687,-101.842
 L 141.25,-106 L 141.687,-110.158 L 142.979,-114.135 L 145.07,-117.756 L 147.867,-120.863 L 151.25,-123.321
 L 155.07,-125.021 L 159.159,-125.89 L 163.341,-125.89 L 167.43,-125.021 L 171.25,-123.321 L 174.633,-120.863
 L 177.43,-117.756 L 179.521,-114.135 L 180.813,-110.158 L 181.25,-106 L 180.813,-101.842 L 179.521,-97.8653
 L 177.43,-94.2443 L 174.633,-91.1371 L 171.25,-88.6795 L 167.43,-86.9789 L 163.341,-86.1096 L 159.159,-86.1096
 z
M 1230,-141 L 1129,-141 L 1129,-106 L 1125,-106 L 1125,-141 L 1024,-141
 L 1024,-106 L 1020,-106 L 1020,-141 L 919,-141 L 919,-106 L 915,-106
 L 915,-141 L 814,-141 L 814,-106 L 810,-106 L 810,-141 L 709,-141
 L 709,-106 L 705,-106 L 705,-141 L 600,-141 L 600,-71 L 1230,-71
 z
M 969.57,-90.9789 L 965.75,-92.6795 L 962.367,-95.1371 L 959.57,-98.2443 L 957.479,-101.865 L 956.187,-105.842
 L 955.75,-110 L 956.187,-114.158 L 957.479,-118.135 L 959.57,-121.756 L 962.367,-124.863 L 965.75,-127.321
 L 969.57,-129.021 L 973.659,-129.89 L 977.841,-129.89 L 981.93,-129.021 L 985.75,-127.321 L 989.133,-124.863
 L 991.93,-121.756 L 994.021,-118.135 L 995.313,-114.158 L 995.75,-110 L 995.313,-105.842 L 994.021,-101.865
 L 991.93,-98.2443 L 989.133,-95.1371 L 985.75,-92.6795 L 981.93,-90.9789 L 977.841,-90.1096 L 973.659,-90.1096
 z
M 752.57,-88.9789 L 748.75,-90.6795 L 745.367,-93.1371 L 742.57,-96.2443 L 740.479,-99.8653 L 739.187,-103.842
 L 738.75,-108 L 739.187,-112.158 L 740.479,-116.135 L 742.57,-119.756 L 745.367,-122.863 L 748.75,-125.321
 L 752.57,-127.021 L 756.659,-127.89 L 760.841,-127.89 L 764.93,-127.021 L 768.75,-125.321 L 772.133,-122.863
 L 774.93,-119.756 L 777.021,-116.135 L 778.313,-112.158 L 778.75,-108 L 778.313,-103.842 L 777.021,-99.8653
 L 774.93,-96.2443 L 772.133,-93.1371 L 768.75,-90.6795 L 764.93,-88.9789 L 760.841,-88.1096 L 756.659,-88.1096
 z
M 1046.57,-87.9789 L 1042.75,-89.6795 L 1039.37,-92.1371 L 1036.57,-95.2443 L 1034.48,-98.8653 L 1033.19,-102.842
 L 1032.75,-107 L 1033.19,-111.158 L 1034.48,-115.135 L 1036.57,-118.756 L 1039.37,-121.863 L 1042.75,-124.321
 L 1046.57,-126.021 L 1050.66,-126.89 L 1054.84,-126.89 L 1058.93,-126.021 L 1062.75,-124.321 L 1066.13,-121.863
 L 1068.93,-118.756 L 1071.02,-115.135 L 1072.31,-111.158 L 1072.75,-107 L 1072.31,-102.842 L 1071.02,-98.8653
 L 1068.93,-95.2443 L 1066.13,-92.1371 L 1062.75,-89.6795 L 1058.93,-87.9789 L 1054.84,-87.1096 L 1050.66,-87.1096
 z
M 851.57,-86.9789 L 847.75,-88.6795 L 844.367,-91.1371 L 841.57,-94.2443 L 839.479,-97.8653 L 838.187,-101.842
 L 837.75,-106 L 838.187,-110.158 L 839.479,-114.135 L 841.57,-117.756 L 844.367,-120.863 L 847.75,-123.321
 L 851.57,-125.021 L 855.659,-125.89 L 859.841,-125.89 L 863.93,-125.021 L 867.75,-123.321 L 871.133,-120.863
 L 873.93,-117.756 L 876.021,-114.135 L 877.313,-110.158 L 877.75,-106 L 877.313,-101.842 L 876.021,-97.8653
 L 873.93,-94.2443 L 871.133,-91.1371 L 867.75,-88.6795 L 863.93,-86.9789 L 859.841,-86.1096 L 855.659,-86.1096
 z
M 1195.57,-84.9789 L 1191.75,-86.6795 L 1188.37,-89.1371 L 1185.57,-92.2443 L 1183.48,-95.8653 L 1182.19,-99.8418
 L 1181.75,-104 L 1182.19,-108.158 L 1183.48,-112.135 L 1185.57,-115.756 L 1188.37,-118.863 L 1191.75,-121.321
 L 1195.57,-123.021 L 1199.66,-123.89 L 1203.84,-123.89 L 1207.93,-123.021 L 1211.75,-121.321 L 1215.13,-118.863
 L 1217.93,-115.756 L 1220.02,-112.135 L 1221.31,-108.158 L 1221.75,-104 L 1221.31,-99.8418 L 1220.02,-95.8653
 L 1217.93,-92.2443 L 1215.13,-89.1371 L 1211.75,-86.6795 L 1207.93,-84.9789 L 1203.84,-84.1096 L 1199.66,-84.1096
 z
M 668.57,-81.9789 L 664.75,-83.6795 L 661.367,-86.1371 L 658.57,-89.2443 L 656.479,-92.8653 L 655.187,-96.8418
 L 654.75,-101 L 655.187,-105.158 L 656.479,-109.135 L 658.57,-112.756 L 661.367,-115.863 L 664.75,-118.321
 L 668.57,-120.021 L 672.659,-120.89 L 676.841,-120.89 L 680.93,-120.021 L 684.75,-118.321 L 688.133,-115.863
 L 690.93,-112.756 L 693.021,-109.135 L 694.313,-105.158 L 694.75,-101 L 694.313,-96.8418 L 693.021,-92.8653
 L 690.93,-89.2443 L 688.133,-86.1371 L 684.75,-83.6795 L 680.93,-81.9789 L 676.841,-81.1096 L 672.659,-81.1096
 z
M 430,-70 L 326.5,-70 L 326.5,-35 L 322.5,-35 L 322.5,-70 L 219,-70
 L 219,-35 L 215,-35 L 215,-70 L 111.5,-70 L 111.5,-35 L 107.5,-35
 L 107.5,-70 L 0,-70 L 0,-0 L 430,-0 z
M 262.57,-15.9789 L 258.75,-17.6795 L 255.367,-20.1371 L 252.57,-23.2443 L 250.479,-26.8653 L 249.187,-30.8418
 L 248.75,-35 L 249.187,-39.1582 L 250.479,-43.1347 L 252.57,-46.7557 L 255.367,-49.8629 L 258.75,-52.3205
 L 262.57,-54.0211 L 266.659,-54.8904 L 270.841,-54.8904 L 274.93,-54.0211 L 278.75,-52.3205 L 282.133,-49.8629
 L 284.93,-46.7557 L 287.021,-43.1347 L 288.313,-39.1582 L 288.75,-35 L 288.313,-30.8418 L 287.021,-26.8653
 L 284.93,-23.2443 L 282.133,-20.1371 L 278.75,-17.6795 L 274.93,-15.9789 L 270.841,-15.1096 L 266.659,-15.1096
 z
M 370.07,-15.9789 L 366.25,-17.6795 L 362.867,-20.1371 L 360.07,-23.2443 L 357.979,-26.8653 L 356.687,-30.8418
 L 356.25,-35 L 356.687,-39.1582 L 357.979,-43.1347 L 360.07,-46.7557 L 362.867,-49.8629 L 366.25,-52.3205
 L 370.07,-54.0211 L 374.159,-54.8904 L 378.341,-54.8904 L 382.43,-54.0211 L 386.25,-52.3205 L 389.633,-49.8629
 L 392.43,-46.7557 L 394.521,-43.1347 L 395.813,-39.1582 L 396.25,-35 L 395.813,-30.8418 L 394.521,-26.8653
 L 392.43,-23.2443 L 389.633,-20.1371 L 386.25,-17.6795 L 382.43,-15.9789 L 378.341,-15.1096 L 374.159,-15.1096
 z
M 1230,-70 L 1129,-70 L 1129,-35 L 1125,-35 L 1125,-70 L 1024,-70
 L 1024,-35 L 1020,-35 L 1020,-70 L 919,-70 L 919,-35 L 915,-35
 L 915,-70 L 814,-70 L 814,-35 L 810,-35 L 810,-70 L 709,-70
 L 709,-35 L 705,-35 L 705,-70 L 600,-70 L 600,-0 L 1230,-0
 z
M 834.57,-19.9789 L 830.75,-21.6795 L 827.367,-24.1371 L 824.57,-27.2443 L 822.479,-30.8653 L 821.187,-34.8418
 L 820.75,-39 L 821.187,-43.1582 L 822.479,-47.1347 L 824.57,-50.7557 L 827.367,-53.8629 L 830.75,-56.3205
 L 834.57,-58.0211 L 838.659,-58.8904 L 842.841,-58.8904 L 846.93,-58.0211 L 850.75,-56.3205 L 854.133,-53.8629
 L 856.93,-50.7557 L 859.021,-47.1347 L 860.313,-43.1582 L 860.75,-39 L 860.313,-34.8418 L 859.021,-30.8653
 L 856.93,-27.2443 L 854.133,-24.1371 L 850.75,-21.6795 L 846.93,-19.9789 L 842.841,-19.1096 L 838.659,-19.1096
 z
M 1190.57,-18.9789 L 1186.75,-20.6795 L 1183.37,-23.1371 L 1180.57,-26.2443 L 1178.48,-29.8653 L 1177.19,-33.8418
 L 1176.75,-38 L 1177.19,-42.1582 L 1178.48,-46.1347 L 1180.57,-49.7557 L 1183.37,-52.8629 L 1186.75,-55.3205
 L 1190.57,-57.0211 L 1194.66,-57.8904 L 1198.84,-57.8904 L 1202.93,-57.0211 L 1206.75,-55.3205 L 1210.13,-52.8629
 L 1212.93,-49.7557 L 1215.02,-46.1347 L 1216.31,-42.1582 L 1216.75,-38 L 1216.31,-33.8418 L 1215.02,-29.8653
 L 1212.93,-26.2443 L 1210.13,-23.1371 L 1206.75,-20.6795 L 1202.93,-18.9789 L 1198.84,-18.1096 L 1194.66,-18.1096
 z
M 981.57,-13.9789 L 977.75,-15.6795 L 974.367,-18.1371 L 971.57,-21.2443 L 969.479,-24.8653 L 968.187,-28.8418
 L 967.75,-33 L 968.187,-37.1582 L 969.479,-41.1347 L 971.57,-44.7557 L 974.367,-47.8629 L 977.75,-50.3205
 L 981.57,-52.0211 L 985.659,-52.8904 L 989.841,-52.8904 L 993.93,-52.0211 L 997.75,-50.3205 L 1001.13,-47.8629
 L 1003.93,-44.7557 L 1006.02,-41.1347 L 1007.31,-37.1582 L 1007.75,-33 L 1007.31,-28.8418 L 1006.02,-24.8653
 L 1003.93,-21.2443 L 1001.13,-18.1371 L 997.75,-15.6795 L 993.93,-13.9789 L 989.841,-13.1096 L 985.659,-13.1096
 z
M 736.57,-12.9789 L 732.75,-14.6795 L 729.367,-17.1371 L 726.57,-20.2443 L 724.479,-23.8653 L 723.187,-27.8418
 L 722.75,-32 L 723.187,-36.1582 L 724.479,-40.1347 L 726.57,-43.7557 L 729.367,-46.8629 L 732.75,-49.3205
 L 736.57,-51.0211 L 740.659,-51.8904 L 744.841,-51.8904 L 748.93,-51.0211 L 752.75,-49.3205 L 756.133,-46.8629
 L 758.93,-43.7557 L 761.021,-40.1347 L 762.313,-36.1582 L 762.75,-32 L 762.313,-27.8418 L 761.021,-23.8653
 L 758.93,-20.2443 L 756.133,-17.1371 L 752.75,-14.6795 L 748.93,-12.9789 L 744.841,-12.1096 L 740.659,-12.1096
 z
M 659.57,-11.9789 L 655.75,-13.6795 L 652.367,-16.1371 L 649.57,-19.2443 L 647.479,-22.8653 L 646.187,-26.8418
 L 645.75,-31 L 646.187,-35.1582 L 647.479,-39.1347 L 649.57,-42.7557 L 652.367,-45.8629 L 655.75,-48.3205
 L 659.57,-50.0211 L 663.659,-50.8904 L 667.841,-50.8904 L 671.93,-50.0211 L 675.75,-48.3205 L 679.133,-45.8629
 L 681.93,-42.7557 L 684.021,-39.1347 L 685.313,-35.1582 L 685.75,-31 L 685.313,-26.8418 L 684.021,-22.8653
 L 681.93,-19.2443 L 679.133,-16.1371 L 675.75,-13.6795 L 671.93,-11.9789 L 667.841,-11.1096 L 663.659,-11.1096
 z
M 1051.57,-10.9789 L 1047.75,-12.6795 L 1044.37,-15.1371 L 1041.57,-18.2443 L 1039.48,-21.8653 L 1038.19,-25.8418
 L 1037.75,-30 L 1038.19,-34.1582 L 1039.48,-38.1347 L 1041.57,-41.7557 L 1044.37,-44.8629 L 1047.75,-47.3205
 L 1051.57,-49.0211 L 1055.66,-49.8904 L 1059.84,-49.8904 L 1063.93,-49.0211 L 1067.75,-47.3205 L 1071.13,-44.8629
 L 1073.93,-41.7557 L 1076.02,-38.1347 L 1077.31,-34.1582 L 1077.75,-30 L 1077.31,-25.8418 L 1076.02,-21.8653
 L 1073.93,-18.2443 L 1071.13,-15.1371 L 1067.75,-12.6795 L 1063.93,-10.9789 L 1059.84,-10.1096 L 1055.66,-10.1096
 z
" stroke="black" fill="lightgray" stroke-width="0.5"/>
</svg>
