<?xml version="1.0" standalone="no"?>
<!DOCTYPE svg PUBLIC "-//W3C//DTD SVG 1.1//EN" "http://www.w3.org/Graphics/SVG/1.1/DTD/svg11.dtd">
<svg width="1220mm" height="425mm" viewBox="0 -425 1220 425" xmlns="http://www.w3.org/2000/svg" version="1.1">
<title>OpenSCAD Model</title>
<path d="
M 430,-425 L 348,-425 L 348,-390 L 344,-390 L 344,-425 L 262,-425
 L 262,-390 L 258,-390 L 258,-425 L 176,-425 L 176,-390 L 172,-390
 L 172,-425 L 90,-425 L 90,-390 L 86,-390 L 86,-425 L 0,-425
 L 0,-355 L 430,-355 z
M 36.8197,-370.979 L 33,-372.679 L 29.6174,-375.137 L 26.8197,-378.244 L 24.7291,-381.865 L 23.437,-385.842
 L 23,-390 L 23.437,-394.158 L 24.7291,-398.135 L 26.8197,-401.756 L 29.6174,-404.863 L 33,-407.321
 L 36.8197,-409.021 L 40.9094,-409.89 L 45.0906,-409.89 L 49.1803,-409.021 L 53,-407.321 L 56.3826,-404.863
 L 59.1803,-401.756 L 61.2709,-398.135 L 62.563,-394.158 L 63,-390 L 62.563,-385.842 L 61.2709,-381.865
 L 59.1803,-378.244 L 56.3826,-375.137 L 53,-372.679 L 49.1803,-370.979 L 45.0906,-370.11 L 40.9094,-370.11
 z
M 294.82,-370.979 L 291,-372.679 L 287.617,-375.137 L 284.82,-378.244 L 282.729,-381.865 L 281.437,-385.842
 L 281,-390 L 281.437,-394.158 L 282.729,-398.135 L 284.82,-401.756 L 287.617,-404.863 L 291,-407.321
 L 294.82,-409.021 L 298.909,-409.89 L 303.091,-409.89 L 307.18,-409.021 L 311,-407.321 L 314.383,-404.863
 L 317.18,-401.756 L 319.271,-398.135 L 320.563,-394.158 L 321,-390 L 320.563,-385.842 L 319.271,-381.865
 L 317.18,-378.244 L 314.383,-375.137 L 311,-372.679 L 307.18,-370.979 L 303.091,-370.11 L 298.909,-370.11
 z
M 430,-354 L 348,-354 L 348,-319 L 344,-319 L 344,-354 L 262,-354
 L 262,-319 L 258,-319 L 258,-354 L 176,-354 L 176,-319 L 172,-319
 L 172,-354 L 90,-354 L 90,-319 L 86,-319 L 86,-354 L 0,-354
 L 0,-284 L 430,-284 z
M 208.82,-299.979 L 205,-301.679 L 201.617,-304.137 L 198.82,-307.244 L 196.729,-310.865 L 195.437,-314.842
 L 195,-319 L 195.437,-323.158 L 196.729,-327.135 L 198.82,-330.756 L 201.617,-333.863 L 205,-336.321
 L 208.82,-338.021 L 212.909,-338.89 L 217.091,-338.89 L 221.18,-338.021 L 225,-336.321 L 228.383,-333.863
 L 231.18,-330.756 L 233.271,-327.135 L 234.563,-323.158 L 235,-319 L 234.563,-314.842 L 233.271,-310.865
 L 231.18,-307.244 L 228.383,-304.137 L 225,-301.679 L 221.18,-299.979 L 217.091,-299.11 L 212.909,-299.11
 z
M 380.82,-299.979 L 377,-301.679 L 373.617,-304.137 L 370.82,-307.244 L 368.729,-310.865 L 367.437,-314.842
 L 367,-319 L 367.437,-323.158 L 368.729,-327.135 L 370.82,-330.756 L 373.617,-333.863 L 377,-336.321
 L 380.82,-338.021 L 384.909,-338.89 L 389.091,-338.89 L 393.18,-338.021 L 397,-336.321 L 400.383,-333.863
 L 403.18,-330.756 L 405.271,-327.135 L 406.563,-323.158 L 407,-319 L 406.563,-314.842 L 405.271,-310.865
 L 403.18,-307.244 L 400.383,-304.137 L 397,-301.679 L 393.18,-299.979 L 389.091,-299.11 L 384.909,-299.11
 z
M 430,-283 L 348,-283 L 348,-248 L 344,-248 L 344,-283 L 262,-283
 L 262,-248 L 258,-248 L 258,-283 L 176,-283 L 176,-248 L 172,-248
 L 172,-283 L 90,-283 L 90,-248 L 86,-248 L 86,-283 L 0,-283
 L 0,-213 L 430,-213 z
M 36.8197,-228.979 L 33,-230.679 L 29.6174,-233.137 L 26.8197,-236.244 L 24.7291,-239.865 L 23.437,-243.842
 L 23,-248 L 23.437,-252.158 L 24.7291,-256.135 L 26.8197,-259.756 L 29.6174,-262.863 L 33,-265.321
 L 36.8197,-267.021 L 40.9094,-267.89 L 45.0906,-267.89 L 49.1803,-267.021 L 53,-265.321 L 56.3826,-262.863
 L 59.1803,-259.756 L 61.2709,-256.135 L 62.563,-252.158 L 63,-248 L 62.563,-243.842 L 61.2709,-239.865
 L 59.1803,-236.244 L 56.3826,-233.137 L 53,-230.679 L 49.1803,-228.979 L 45.0906,-228.11 L 40.9094,-228.11
 z
M 122.82,-228.979 L 119,-230.679 L 115.617,-233.137 L 112.82,-236.244 L 110.729,-239.865 L 109.437,-243.842
 L 109,-248 L 109.437,-252.158 L 110.729,-256.135 L 112.82,-259.756 L 115.617,-262.863 L 119,-265.321
 L 122.82,-267.021 L 126.909,-267.89 L 131.091,-267.89 L 135.18,-267.021 L 139,-265.321 L 142.383,-262.863
 L 145.18,-259.756 L 147.271,-256.135 L 148.563,-252.158 L 149,-248 L 148.563,-243.842 L 147.271,-239.865
 L 145.18,-236.244 L 142.383,-233.137 L 139,-230.679 L 135.18,-228.979 L 131.091,-228.11 L 126.909,-228.11
 z
M 1220,-283 L 1135.43,-283 L 1135.43,-248 L 1131.43,-248 L 1131.43,-283 L 1046.86,-283
 L 1046.86,-248 L 1042.86,-248 L 1042.86,-283 L 958.286,-283 L 958.286,-248 L 954.286,-248
 L 954.286,-283 L 869.714,-283 L 869.714,-248 L 865.714,-248 L 865.714,-283 L 781.143,-283
 L 781.143,-248 L 777.143,-248 L 777.143,-283 L 692.571,-283 L 692.571,-248 L 688.571,-248
 L 688.571,-283 L 600,-283 L 600,-213 L 1220,-213 z
M 984.105,-227.979 L 980.286,-229.679 L 976.903,-232.137 L 974.105,-235.244 L 972.015,-238.865 L 970.723,-242.842
 L 970.286,-247 L 970.723,-251.158 L 972.015,-255.135 L 974.105,-258.756 L 976.903,-261.863 L 980.286,-264.321
 L 984.105,-266.021 L 988.195,-266.89 L 992.376,-266.89 L 996.466,-266.021 L 1000.29,-264.321 L 1003.67,-261.863
 L 1006.47,-258.756 L 1008.56,-255.135 L 1009.85,-251.158 L 1010.29,-247 L 1009.85,-242.842 L 1008.56,-238.865
 L 1006.47,-235.244 L 1003.67,-232.137 L 1000.29,-229.679 L 996.466,-227.979 L 992.376,-227.11 L 988.195,-227.11
 z
M 1180.25,-227.979 L 1176.43,-229.679 L 1173.05,-232.137 L 1170.25,-235.244 L 1168.16,-238.865 L 1166.87,-242.842
 L 1166.43,-247 L 1166.87,-251.158 L 1168.16,-255.135 L 1170.25,-258.756 L 1173.05,-261.863 L 1176.43,-264.321
 L 1180.25,-266.021 L 1184.34,-266.89 L 1188.52,-266.89 L 1192.61,-266.021 L 1196.43,-264.321 L 1199.81,-261.863
 L 1202.61,-258.756 L 1204.7,-255.135 L 1205.99,-251.158 L 1206.43,-247 L 1205.99,-242.842 L 1204.7,-238.865
 L 1202.61,-235.244 L 1199.81,-232.137 L 1196.43,-229.679 L 1192.61,-227.979 L 1188.52,-227.11 L 1184.34,-227.11
 z
M 728.391,-226.979 L 724.571,-228.679 L 721.189,-231.137 L 718.391,-234.244 L 716.301,-237.865 L 715.008,-241.842
 L 714.571,-246 L 715.008,-250.158 L 716.301,-254.135 L 718.391,-257.756 L 721.189,-260.863 L 724.571,-263.321
 L 728.391,-265.021 L 732.481,-265.89 L 736.662,-265.89 L 740.752,-265.021 L 744.571,-263.321 L 747.954,-260.863
 L 750.752,-257.756 L 752.842,-254.135 L 754.134,-250.158 L 754.571,-246 L 754.134,-241.842 L 752.842,-237.865
 L 750.752,-234.244 L 747.954,-231.137 L 744.571,-228.679 L 740.752,-226.979 L 736.662,-226.11 L 732.481,-226.11
 z
M 908.534,-225.979 L 904.714,-227.679 L 901.332,-230.137 L 898.534,-233.244 L 896.443,-236.865 L 895.151,-240.842
 L 894.714,-245 L 895.151,-249.158 L 896.443,-253.135 L 898.534,-256.756 L 901.332,-259.863 L 904.714,-262.321
 L 908.534,-264.021 L 912.624,-264.89 L 916.805,-264.89 L 920.895,-264.021 L 924.714,-262.321 L 928.097,-259.863
 L 930.895,-256.756 L 932.985,-253.135 L 934.277,-249.158 L 934.714,-245 L 934.277,-240.842 L 932.985,-236.865
 L 930.895,-233.244 L 928.097,-230.137 L 924.714,-227.679 L 920.895,-225.979 L 916.805,-225.11 L 912.624,-225.11
 z
M 1073.68,-225.979 L 1069.86,-227.679 L 1066.47,-230.137 L 1063.68,-233.244 L 1061.59,-236.865 L 1060.29,-240.842
 L 1059.86,-245 L 1060.29,-249.158 L 1061.59,-253.135 L 1063.68,-256.756 L 1066.47,-259.863 L 1069.86,-262.321
 L 1073.68,-264.021 L 1077.77,-264.89 L 1081.95,-264.89 L 1086.04,-264.021 L 1089.86,-262.321 L 1093.24,-259.863
 L 1096.04,-256.756 L 1098.13,-253.135 L 1099.42,-249.158 L 1099.86,-245 L 1099.42,-240.842 L 1098.13,-236.865
 L 1096.04,-233.244 L 1093.24,-230.137 L 1089.86,-227.679 L 1086.04,-225.979 L 1081.95,-225.11 L 1077.77,-225.11
 z
M 623.82,-224.979 L 620,-226.679 L 616.617,-229.137 L 613.82,-232.244 L 611.729,-235.865 L 610.437,-239.842
 L 610,-244 L 610.437,-248.158 L 611.729,-252.135 L 613.82,-255.756 L 616.617,-258.863 L 620,-261.321
 L 623.82,-263.021 L 627.909,-263.89 L 632.091,-263.89 L 636.18,-263.021 L 640,-261.321 L 643.383,-258.863
 L 646.18,-255.756 L 648.271,-252.135 L 649.563,-248.158 L 650,-244 L 649.563,-239.842 L 648.271,-235.865
 L 646.18,-232.244 L 643.383,-229.137 L 640,-226.679 L 636.18,-224.979 L 632.091,-224.11 L 627.909,-224.11
 z
M 812.963,-223.979 L 809.143,-225.679 L 805.76,-228.137 L 802.963,-231.244 L 800.872,-234.865 L 799.58,-238.842
 L 799.143,-243 L 799.58,-247.158 L 800.872,-251.135 L 802.963,-254.756 L 805.76,-257.863 L 809.143,-260.321
 L 812.963,-262.021 L 817.052,-262.89 L 821.233,-262.89 L 825.323,-262.021 L 829.143,-260.321 L 832.525,-257.863
 L 835.323,-254.756 L 837.414,-251.135 L 838.706,-247.158 L 839.143,-243 L 838.706,-238.842 L 837.414,-234.865
 L 835.323,-231.244 L 832.525,-228.137 L 829.143,-225.679 L 825.323,-223.979 L 821.233,-223.11 L 817.052,-223.11
 z
M 430,-212 L 348,-212 L 348,-177 L 344,-177 L 344,-212 L 262,-212
 L 262,-177 L 258,-177 L 258,-212 L 176,-212 L 176,-177 L 172,-177
 L 172,-212 L 90,-212 L 90,-177 L 86,-177 L 86,-212 L 0,-212
 L 0,-142 L 430,-142 z
M 208.82,-157.979 L 205,-159.679 L 201.617,-162.137 L 198.82,-165.244 L 196.729,-168.865 L 195.437,-172.842
 L 195,-177 L 195.437,-181.158 L 196.729,-185.135 L 198.82,-188.756 L 201.617,-191.863 L 205,-194.321
 L 208.82,-196.021 L 212.909,-196.89 L 217.091,-196.89 L 221.18,-196.021 L 225,-194.321 L 228.383,-191.863
 L 231.18,-188.756 L 233.271,-185.135 L 234.563,-181.158 L 235,-177 L 234.563,-172.842 L 233.271,-168.865
 L 231.18,-165.244 L 228.383,-162.137 L 225,-159.679 L 221.18,-157.979 L 217.091,-157.11 L 212.909,-157.11
 z
M 380.82,-157.979 L 377,-159.679 L 373.617,-162.137 L 370.82,-165.244 L 368.729,-168.865 L 367.437,-172.842
 L 367,-177 L 367.437,-181.158 L 368.729,-185.135 L 370.82,-188.756 L 373.617,-191.863 L 377,-194.321
 L 380.82,-196.021 L 384.909,-196.89 L 389.091,-196.89 L 393.18,-196.021 L 397,-194.321 L 400.383,-191.863
 L 403.18,-188.756 L 405.271,-185.135 L 406.563,-181.158 L 407,-177 L 406.563,-172.842 L 405.271,-168.865
 L 403.18,-165.244 L 400.383,-162.137 L 397,-159.679 L 393.18,-157.979 L 389.091,-157.11 L 384.909,-157.11
 z
M 1220,-212 L 1135.43,-212 L 1135.43,-177 L 1131.43,-177 L 1131.43,-212 L 1046.86,-212
 L 1046.86,-177 L 1042.86,-177 L 1042.86,-212 L 958.286,-212 L 958.286,-177 L 954.286,-177
 L 954.286,-212 L 869.714,-212 L 869.714,-177 L 865.714,-177 L 865.714,-212 L 781.143,-212
 L 781.143,-177 L 777.143,-177 L 777.143,-212 L 692.571,-212 L 692.571,-177 L 688.571,-177
 L 688.571,-212 L 600,-212 L 600,-142 L 1220,-142 z
M 1068.68,-161.979 L 1064.86,-163.679 L 1061.47,-166.137 L 1058.68,-169.244 L 1056.59,-172.865 L 1055.29,-176.842
 L 1054.86,-181 L 1055.29,-185.158 L 1056.59,-189.135 L 1058.68,-192.756 L 1061.47,-195.863 L 1064.86,-198.321
 L 1068.68,-200.021 L 1072.77,-200.89 L 1076.95,-200.89 L 1081.04,-200.021 L 1084.86,-198.321 L 1088.24,-195.863
 L 1091.04,-192.756 L 1093.13,-189.135 L 1094.42,-185.158 L 1094.86,-181 L 1094.42,-176.842 L 1093.13,-172.865
 L 1091.04,-169.244 L 1088.24,-166.137 L 1084.86,-163.679 L 1081.04,-161.979 L 1076.95,-161.11 L 1072.77,-161.11
 z
M 1181.25,-161.979 L 1177.43,-163.679 L 1174.05,-166.137 L 1171.25,-169.244 L 1169.16,-172.865 L 1167.87,-176.842
 L 1167.43,-181 L 1167.87,-185.158 L 1169.16,-189.135 L 1171.25,-192.756 L 1174.05,-195.863 L 1177.43,-198.321
 L 1181.25,-200.021 L 1185.34,-200.89 L 1189.52,-200.89 L 1193.61,-200.021 L 1197.43,-198.321 L 1200.81,-195.863
 L 1203.61,-192.756 L 1205.7,-189.135 L 1206.99,-185.158 L 1207.43,-181 L 1206.99,-176.842 L 1205.7,-172.865
 L 1203.61,-169.244 L 1200.81,-166.137 L 1197.43,-163.679 L 1193.61,-161.979 L 1189.52,-161.11 L 1185.34,-161.11
 z
M 818.963,-159.979 L 815.143,-161.679 L 811.76,-164.137 L 808.963,-167.244 L 806.872,-170.865 L 805.58,-174.842
 L 805.143,-179 L 805.58,-183.158 L 806.872,-187.135 L 808.963,-190.756 L 811.76,-193.863 L 815.143,-196.321
 L 818.963,-198.021 L 823.052,-198.89 L 827.233,-198.89 L 831.323,-198.021 L 835.143,-196.321 L 838.525,-193.863
 L 841.323,-190.756 L 843.414,-187.135 L 844.706,-183.158 L 845.143,-179 L 844.706,-174.842 L 843.414,-170.865
 L 841.323,-167.244 L 838.525,-164.137 L 835.143,-161.679 L 831.323,-159.979 L 827.233,-159.11 L 823.052,-159.11
 z
M 727.391,-158.979 L 723.571,-160.679 L 720.189,-163.137 L 717.391,-166.244 L 715.301,-169.865 L 714.008,-173.842
 L 713.571,-178 L 714.008,-182.158 L 715.301,-186.135 L 717.391,-189.756 L 720.189,-192.863 L 723.571,-195.321
 L 727.391,-197.021 L 731.481,-197.89 L 735.662,-197.89 L 739.752,-197.021 L 743.571,-195.321 L 746.954,-192.863
 L 749.752,-189.756 L 751.842,-186.135 L 753.134,-182.158 L 753.571,-178 L 753.134,-173.842 L 751.842,-169.865
 L 749.752,-166.244 L 746.954,-163.137 L 743.571,-160.679 L 739.752,-158.979 L 735.662,-158.11 L 731.481,-158.11
 z
M 914.534,-157.979 L 910.714,-159.679 L 907.332,-162.137 L 904.534,-165.244 L 902.443,-168.865 L 901.151,-172.842
 L 900.714,-177 L 901.151,-181.158 L 902.443,-185.135 L 904.534,-188.756 L 907.332,-191.863 L 910.714,-194.321
 L 914.534,-196.021 L 918.624,-196.89 L 922.805,-196.89 L 926.895,-196.021 L 930.714,-194.321 L 934.097,-191.863
 L 936.895,-188.756 L 938.985,-185.135 L 940.277,-181.158 L 940.714,-177 L 940.277,-172.842 L 938.985,-168.865
 L 936.895,-165.244 L 934.097,-162.137 L 930.714,-159.679 L 926.895,-157.979 L 922.805,-157.11 L 918.624,-157.11
 z
M 997.105,-154.979 L 993.286,-156.679 L 989.903,-159.137 L 987.105,-162.244 L 985.015,-165.865 L 983.723,-169.842
 L 983.286,-174 L 983.723,-178.158 L 985.015,-182.135 L 987.105,-185.756 L 989.903,-188.863 L 993.286,-191.321
 L 997.105,-193.021 L 1001.2,-193.89 L 1005.38,-193.89 L 1009.47,-193.021 L 1013.29,-191.321 L 1016.67,-188.863
 L 1019.47,-185.756 L 1021.56,-182.135 L 1022.85,-178.158 L 1023.29,-174 L 1022.85,-169.842 L 1021.56,-165.865
 L 1019.47,-162.244 L 1016.67,-159.137 L 1013.29,-156.679 L 1009.47,-154.979 L 1005.38,-154.11 L 1001.2,-154.11
 z
M 629.82,-153.979 L 626,-155.679 L 622.617,-158.137 L 619.82,-161.244 L 617.729,-164.865 L 616.437,-168.842
 L 616,-173 L 616.437,-177.158 L 617.729,-181.135 L 619.82,-184.756 L 622.617,-187.863 L 626,-190.321
 L 629.82,-192.021 L 633.909,-192.89 L 638.091,-192.89 L 642.18,-192.021 L 646,-190.321 L 649.383,-187.863
 L 652.18,-184.756 L 654.271,-181.135 L 655.563,-177.158 L 656,-173 L 655.563,-168.842 L 654.271,-164.865
 L 652.18,-161.244 L 649.383,-158.137 L 646,-155.679 L 642.18,-153.979 L 638.091,-153.11 L 633.909,-153.11
 z
M 430,-141 L 348,-141 L 348,-106 L 344,-106 L 344,-141 L 262,-141
 L 262,-106 L 258,-106 L 258,-141 L 176,-141 L 176,-106 L 172,-106
 L 172,-141 L 90,-141 L 90,-106 L 86,-106 L 86,-141 L 0,-141
 L 0,-71 L 430,-71 z
M 36.8197,-86.9789 L 33,-88.6795 L 29.6174,-91.1371 L 26.8197,-94.2443 L 24.7291,-97.8653 L 23.437,-101.842
 L 23,-106 L 23.437,-110.158 L 24.7291,-114.135 L 26.8197,-117.756 L 29.6174,-120.863 L 33,-123.321
 L 36.8197,-125.021 L 40.9094,-125.89 L 45.0906,-125.89 L 49.1803,-125.021 L 53,-123.321 L 56.3826,-120.863
 L 59.1803,-117.756 L 61.2709,-114.135 L 62.563,-110.158 L 63,-106 L 62.563,-101.842 L 61.2709,-97.8653
 L 59.1803,-94.2443 L 56.3826,-91.1371 L 53,-88.6795 L 49.1803,-86.9789 L 45.0906,-86.1096 L 40.9094,-86.1096
 z
M 294.82,-86.9789 L 291,-88.6795 L 287.617,-91.1371 L 284.82,-94.2443 L 282.729,-97.8653 L 281.437,-101.842
 L 281,-106 L 281.437,-110.158 L 282.729,-114.135 L 284.82,-117.756 L 287.617,-120.863 L 291,-123.321
 L 294.82,-125.021 L 298.909,-125.89 L 303.091,-125.89 L 307.18,-125.021 L 311,-123.321 L 314.383,-120.863
 L 317.18,-117.756 L 319.271,-114.135 L 320.563,-110.158 L 321,-106 L 320.563,-101.842 L 319.271,-97.8653
 L 317.18,-94.2443 L 314.383,-91.1371 L 311,-88.6795 L 307.18,-86.9789 L 303.091,-86.1096 L 298.909,-86.1096
 z
M 1220,-141 L 1135.43,-141 L 1135.43,-106 L 1131.43,-106 L 1131.43,-141 L 1046.86,-141
 L 1046.86,-106 L 1042.86,-106 L 1042.86,-141 L 958.286,-141 L 958.286,-106 L 954.286,-106
 L 954.286,-141 L 869.714,-141 L 869.714,-106 L 865.714,-106 L 865.714,-141 L 781.143,-141
 L 781.143,-106 L 777.143,-106 L 777.143,-141 L 692.571,-141 L 692.571,-106 L 688.571,-106
 L 688.571,-141 L 600,-141 L 600,-71 L 1220,-71 z
M 812.963,-85.9789 L 809.143,-87.6795 L 805.76,-90.1371 L 802.963,-93.2443 L 800.872,-96.8653 L 799.58,-100.842
 L 799.143,-105 L 799.58,-109.158 L 800.872,-113.135 L 802.963,-116.756 L 805.76,-119.863 L 809.143,-122.321
 L 812.963,-124.021 L 817.052,-124.89 L 821.233,-124.89 L 825.323,-124.021 L 829.143,-122.321 L 832.525,-119.863
 L 835.323,-116.756 L 837.414,-113.135 L 838.706,-109.158 L 839.143,-105 L 838.706,-100.842 L 837.414,-96.8653
 L 835.323,-93.2443 L 832.525,-90.1371 L 829.143,-87.6795 L 825.323,-85.9789 L 821.233,-85.1096 L 817.052,-85.1096
 z
M 989.105,-84.9789 L 985.286,-86.6795 L 981.903,-89.1371 L 979.105,-92.2443 L 977.015,-95.8653 L 975.723,-99.8418
 L 975.286,-104 L 975.723,-108.158 L 977.015,-112.135 L 979.105,-115.756 L 981.903,-118.863 L 985.286,-121.321
 L 989.105,-123.021 L 993.195,-123.89 L 997.376,-123.89 L 1001.47,-123.021 L 1005.29,-121.321 L 1008.67,-118.863
 L 1011.47,-115.756 L 1013.56,-112.135 L 1014.85,-108.158 L 1015.29,-104 L 1014.85,-99.8418 L 1013.56,-95.8653
 L 1011.47,-92.2443 L 1008.67,-89.1371 L 1005.29,-86.6795 L 1001.47,-84.9789 L 997.376,-84.1096 L 993.195,-84.1096
 z
M 1075.68,-84.9789 L 1071.86,-86.6795 L 1068.47,-89.1371 L 1065.68,-92.2443 L 1063.59,-95.8653 L 1062.29,-99.8418
 L 1061.86,-104 L 1062.29,-108.158 L 1063.59,-112.135 L 1065.68,-115.756 L 1068.47,-118.863 L 1071.86,-121.321
 L 1075.68,-123.021 L 1079.77,-123.89 L 1083.95,-123.89 L 1088.04,-123.021 L 1091.86,-121.321 L 1095.24,-118.863
 L 1098.04,-115.756 L 1100.13,-112.135 L 1101.42,-108.158 L 1101.86,-104 L 1101.42,-99.8418 L 1100.13,-95.8653
 L 1098.04,-92.2443 L 1095.24,-89.1371 L 1091.86,-86.6795 L 1088.04,-84.9789 L 1083.95,-84.1096 L 1079.77,-84.1096
 z
M 1167.25,-83.9789 L 1163.43,-85.6795 L 1160.05,-88.1371 L 1157.25,-91.2443 L 1155.16,-94.8653 L 1153.87,-98.8418
 L 1153.43,-103 L 1153.87,-107.158 L 1155.16,-111.135 L 1157.25,-114.756 L 1160.05,-117.863 L 1163.43,-120.321
 L 1167.25,-122.021 L 1171.34,-122.89 L 1175.52,-122.89 L 1179.61,-122.021 L 1183.43,-120.321 L 1186.81,-117.863
 L 1189.61,-114.756 L 1191.7,-111.135 L 1192.99,-107.158 L 1193.43,-103 L 1192.99,-98.8418 L 1191.7,-94.8653
 L 1189.61,-91.2443 L 1186.81,-88.1371 L 1183.43,-85.6795 L 1179.61,-83.9789 L 1175.52,-83.1096 L 1171.34,-83.1096
 z
M 637.82,-82.9789 L 634,-84.6795 L 630.617,-87.1371 L 627.82,-90.2443 L 625.729,-93.8653 L 624.437,-97.8418
 L 624,-102 L 624.437,-106.158 L 625.729,-110.135 L 627.82,-113.756 L 630.617,-116.863 L 634,-119.321
 L 637.82,-121.021 L 641.909,-121.89 L 646.091,-121.89 L 650.18,-121.021 L 654,-119.321 L 657.383,-116.863
 L 660.18,-113.756 L 662.271,-110.135 L 663.563,-106.158 L 664,-102 L 663.563,-97.8418 L 662.271,-93.8653
 L 660.18,-90.2443 L 657.383,-87.1371 L 654,-84.6795 L 650.18,-82.9789 L 646.091,-82.1096 L 641.909,-82.1096
 z
M 723.391,-82.9789 L 719.571,-84.6795 L 716.189,-87.1371 L 713.391,-90.2443 L 711.301,-93.8653 L 710.008,-97.8418
 L 709.571,-102 L 710.008,-106.158 L 711.301,-110.135 L 713.391,-113.756 L 716.189,-116.863 L 719.571,-119.321
 L 723.391,-121.021 L 727.481,-121.89 L 731.662,-121.89 L 735.752,-121.021 L 739.571,-119.321 L 742.954,-116.863
 L 745.752,-113.756 L 747.842,-110.135 L 749.134,-106.158 L 749.571,-102 L 749.134,-97.8418 L 747.842,-93.8653
 L 745.752,-90.2443 L 742.954,-87.1371 L 739.571,-84.6795 L 735.752,-82.9789 L 731.662,-82.1096 L 727.481,-82.1096
 z
M 912.534,-82.9789 L 908.714,-84.6795 L 905.332,-87.1371 L 902.534,-90.2443 L 900.443,-93.8653 L 899.151,-97.8418
 L 898.714,-102 L 899.151,-106.158 L 900.443,-110.135 L 902.534,-113.756 L 905.332,-116.863 L 908.714,-119.321
 L 912.534,-121.021 L 916.624,-121.89 L 920.805,-121.89 L 924.895,-121.021 L 928.714,-119.321 L 932.097,-116.863
 L 934.895,-113.756 L 936.985,-110.135 L 938.277,-106.158 L 938.714,-102 L 938.277,-97.8418 L 936.985,-93.8653
 L 934.895,-90.2443 L 932.097,-87.1371 L 928.714,-84.6795 L 924.895,-82.9789 L 920.805,-82.1096 L 916.624,-82.1096
 z
M 430,-70 L 348,-70 L 348,-35 L 344,-35 L 344,-70 L 262,-70
 L 262,-35 L 258,-35 L 258,-70 L 176,-70 L 176,-35 L 172,-35
 L 172,-70 L 90,-70 L 90,-35 L 86,-35 L 86,-70 L 0,-70
 L 0,-0 L 430,-0 z
M 208.82,-15.9789 L 205,-17.6795 L 201.617,-20.1371 L 198.82,-23.2443 L 196.729,-26.8653 L 195.437,-30.8418
 L 195,-35 L 195.437,-39.1582 L 196.729,-43.1347 L 198.82,-46.7557 L 201.617,-49.8629 L 205,-52.3205
 L 208.82,-54.0211 L 212.909,-54.8904 L 217.091,-54.8904 L 221.18,-54.0211 L 225,-52.3205 L 228.383,-49.8629
 L 231.18,-46.7557 L 233.271,-43.1347 L 234.563,-39.1582 L 235,-35 L 234.563,-30.8418 L 233.271,-26.8653
 L 231.18,-23.2443 L 228.383,-20.1371 L 225,-17.6795 L 221.18,-15.9789 L 217.091,-15.1096 L 212.909,-15.1096
 z
M 380.82,-15.9789 L 377,-17.6795 L 373.617,-20.1371 L 370.82,-23.2443 L 368.729,-26.8653 L 367.437,-30.8418
 L 367,-35 L 367.437,-39.1582 L 368.729,-43.1347 L 370.82,-46.7557 L 373.617,-49.8629 L 377,-52.3205
 L 380.82,-54.0211 L 384.909,-54.8904 L 389.091,-54.8904 L 393.18,-54.0211 L 397,-52.3205 L 400.383,-49.8629
 L 403.18,-46.7557 L 405.271,-43.1347 L 406.563,-39.1582 L 407,-35 L 406.563,-30.8418 L 405.271,-26.8653
 L 403.18,-23.2443 L 400.383,-20.1371 L 397,-17.6795 L 393.18,-15.9789 L 389.091,-15.1096 L 384.909,-15.1096
 z
M 1220,-70 L 1135.43,-70 L 1135.43,-35 L 1131.43,-35 L 1131.43,-70 L 1046.86,-70
 L 1046.86,-35 L 1042.86,-35 L 1042.86,-70 L 958.286,-70 L 958.286,-35 L 954.286,-35
 L 954.286,-70 L 869.714,-70 L 869.714,-35 L 865.714,-35 L 865.714,-70 L 781.143,-70
 L 781.143,-35 L 777.143,-35 L 777.143,-70 L 692.571,-70 L 692.571,-35 L 688.571,-35
 L 688.571,-70 L 600,-70 L 600,-0 L 1220,-0 z
M 823.963,-20.9789 L 820.143,-22.6795 L 816.76,-25.1371 L 813.963,-28.2443 L 811.872,-31.8653 L 810.58,-35.8418
 L 810.143,-40 L 810.58,-44.1582 L 811.872,-48.1347 L 813.963,-51.7557 L 816.76,-54.8629 L 820.143,-57.3205
 L 823.963,-59.0211 L 828.052,-59.8904 L 832.233,-59.8904 L 836.323,-59.0211 L 840.143,-57.3205 L 843.525,-54.8629
 L 846.323,-51.7557 L 848.414,-48.1347 L 849.706,-44.1582 L 850.143,-40 L 849.706,-35.8418 L 848.414,-31.8653
 L 846.323,-28.2443 L 843.525,-25.1371 L 840.143,-22.6795 L 836.323,-20.9789 L 832.233,-20.1096 L 828.052,-20.1096
 z
M 636.82,-15.9789 L 633.573,-17.4246 L 632.091,-17.1096 L 627.909,-17.1096 L 623.82,-17.9789 L 620,-19.6795
 L 616.617,-22.1371 L 613.82,-25.2443 L 611.729,-28.8653 L 610.437,-32.8418 L 610,-37 L 610.437,-41.1582
 L 611.729,-45.1347 L 613.82,-48.7557 L 616.617,-51.8629 L 620,-54.3205 L 623.82,-56.0211 L 627.909,-56.8904
 L 632.091,-56.8904 L 636.18,-56.0211 L 639.427,-54.5754 L 640.909,-54.8904 L 645.091,-54.8904 L 649.18,-54.0211
 L 653,-52.3205 L 656.383,-49.8629 L 659.18,-46.7557 L 661.271,-43.1347 L 662.563,-39.1582 L 663,-35
 L 662.563,-30.8418 L 661.271,-26.8653 L 659.18,-23.2443 L 656.383,-20.1371 L 653,-17.6795 L 649.18,-15.9789
 L 645.091,-15.1096 L 640.909,-15.1096 z
M 1081.68,-17.9789 L 1077.86,-19.6795 L 1074.47,-22.1371 L 1071.68,-25.2443 L 1069.59,-28.8653 L 1068.29,-32.8418
 L 1067.86,-37 L 1068.29,-41.1582 L 1069.59,-45.1347 L 1071.68,-48.7557 L 1074.47,-51.8629 L 1077.86,-54.3205
 L 1081.68,-56.0211 L 1085.77,-56.8904 L 1089.95,-56.8904 L 1094.04,-56.0211 L 1097.86,-54.3205 L 1101.24,-51.8629
 L 1104.04,-48.7557 L 1106.13,-45.1347 L 1107.42,-41.1582 L 1107.86,-37 L 1107.42,-32.8418 L 1106.13,-28.8653
 L 1104.04,-25.2443 L 1101.24,-22.1371 L 1097.86,-19.6795 L 1094.04,-17.9789 L 1089.95,-17.1096 L 1085.77,-17.1096
 z
M 1175.25,-16.9789 L 1171.43,-18.6795 L 1168.05,-21.1371 L 1165.25,-24.2443 L 1163.16,-27.8653 L 1161.87,-31.8418
 L 1161.43,-36 L 1161.87,-40.1582 L 1163.16,-44.1347 L 1165.25,-47.7557 L 1168.05,-50.8629 L 1171.43,-53.3205
 L 1175.25,-55.0211 L 1179.34,-55.8904 L 1183.52,-55.8904 L 1187.61,-55.0211 L 1191.43,-53.3205 L 1194.81,-50.8629
 L 1197.61,-47.7557 L 1199.7,-44.1347 L 1200.99,-40.1582 L 1201.43,-36 L 1200.99,-31.8418 L 1199.7,-27.8653
 L 1197.61,-24.2443 L 1194.81,-21.1371 L 1191.43,-18.6795 L 1187.61,-16.9789 L 1183.52,-16.1096 L 1179.34,-16.1096
 z
M 720.391,-13.9789 L 716.571,-15.6795 L 713.189,-18.1371 L 710.391,-21.2443 L 708.301,-24.8653 L 707.008,-28.8418
 L 706.571,-33 L 707.008,-37.1582 L 708.301,-41.1347 L 710.391,-44.7557 L 713.189,-47.8629 L 716.571,-50.3205
 L 720.391,-52.0211 L 724.481,-52.8904 L 728.662,-52.8904 L 732.752,-52.0211 L 736.571,-50.3205 L 739.954,-47.8629
 L 742.752,-44.7557 L 744.842,-41.1347 L 746.134,-37.1582 L 746.571,-33 L 746.134,-28.8418 L 744.842,-24.8653
 L 742.752,-21.2443 L 739.954,-18.1371 L 736.571,-15.6795 L 732.752,-13.9789 L 728.662,-13.1096 L 724.481,-13.1096
 z
M 903.534,-13.9789 L 899.714,-15.6795 L 896.332,-18.1371 L 893.534,-21.2443 L 891.443,-24.8653 L 890.151,-28.8418
 L 889.714,-33 L 890.151,-37.1582 L 891.443,-41.1347 L 893.534,-44.7557 L 896.332,-47.8629 L 899.714,-50.3205
 L 903.534,-52.0211 L 907.624,-52.8904 L 911.805,-52.8904 L 915.895,-52.0211 L 919.714,-50.3205 L 923.097,-47.8629
 L 925.895,-44.7557 L 927.985,-41.1347 L 929.277,-37.1582 L 929.714,-33 L 929.277,-28.8418 L 927.985,-24.8653
 L 925.895,-21.2443 L 923.097,-18.1371 L 919.714,-15.6795 L 915.895,-13.9789 L 911.805,-13.1096 L 907.624,-13.1096
 z
M 1002.11,-12.9789 L 998.286,-14.6795 L 994.903,-17.1371 L 992.105,-20.2443 L 990.015,-23.8653 L 988.723,-27.8418
 L 988.286,-32 L 988.723,-36.1582 L 990.015,-40.1347 L 992.105,-43.7557 L 994.903,-46.8629 L 998.286,-49.3205
 L 1002.11,-51.0211 L 1006.2,-51.8904 L 1010.38,-51.8904 L 1014.47,-51.0211 L 1018.29,-49.3205 L 1021.67,-46.8629
 L 1024.47,-43.7557 L 1026.56,-40.1347 L 1027.85,-36.1582 L 1028.29,-32 L 1027.85,-27.8418 L 1026.56,-23.8653
 L 1024.47,-20.2443 L 1021.67,-17.1371 L 1018.29,-14.6795 L 1014.47,-12.9789 L 1010.38,-12.1096 L 1006.2,-12.1096
 z
" stroke="black" fill="lightgray" stroke-width="0.5"/>
</svg>
