<?xml version="1.0" standalone="no"?>
<!DOCTYPE svg PUBLIC "-//W3C//DTD SVG 1.1//EN" "http://www.w3.org/Graphics/SVG/1.1/DTD/svg11.dtd">
<svg width="1230mm" height="354mm" viewBox="0 -354 1230 354" xmlns="http://www.w3.org/2000/svg" version="1.1">
<title>OpenSCAD Model</title>
<path d="
M 430,-354 L 326.5,-354 L 326.5,-319 L 322.5,-319 L 322.5,-354 L 219,-354
 L 219,-319 L 215,-319 L 215,-354 L 111.5,-354 L 111.5,-319 L 107.5,-319
 L 107.5,-354 L 0,-354 L 0,-284 L 430,-284 z
M 262.57,-299.979 L 258.75,-301.679 L 255.367,-304.137 L 252.57,-307.244 L 250.479,-310.865 L 249.187,-314.842
 L 248.75,-319 L 249.187,-323.158 L 250.479,-327.135 L 252.57,-330.756 L 255.367,-333.863 L 258.75,-336.321
 L 262.57,-338.021 L 266.659,-338.89 L 270.841,-338.89 L 274.93,-338.021 L 278.75,-336.321 L 282.133,-333.863
 L 284.93,-330.756 L 287.021,-327.135 L 288.313,-323.158 L 288.75,-319 L 288.313,-314.842 L 287.021,-310.865
 L 284.93,-307.244 L 282.133,-304.137 L 278.75,-301.679 L 274.93,-299.979 L 270.841,-299.11 L 266.659,-299.11
 z
M 370.07,-299.979 L 366.25,-301.679 L 362.867,-304.137 L 360.07,-307.244 L 357.979,-310.865 L 356.687,-314.842
 L 356.25,-319 L 356.687,-323.158 L 357.979,-327.135 L 360.07,-330.756 L 362.867,-333.863 L 366.25,-336.321
 L 370.07,-338.021 L 374.159,-338.89 L 378.341,-338.89 L 382.43,-338.021 L 386.25,-336.321 L 389.633,-333.863
 L 392.43,-330.756 L 394.521,-327.135 L 395.813,-323.158 L 396.25,-319 L 395.813,-314.842 L 394.521,-310.865
 L 392.43,-307.244 L 389.633,-304.137 L 386.25,-301.679 L 382.43,-299.979 L 378.341,-299.11 L 374.159,-299.11
 z
M 430,-283 L 326.5,-283 L 326.5,-248 L 322.5,-248 L 322.5,-283 L 219,-283
 L 219,-248 L 215,-248 L 215,-283 L 111.5,-283 L 111.5,-248 L 107.5,-248
 L 107.5,-283 L 0,-283 L 0,-213 L 430,-213 z
M 47.5697,-228.979 L 43.75,-230.679 L 40.3674,-233.137 L 37.5697,-236.244 L 35.4791,-239.865 L 34.187,-243.842
 L 33.75,-248 L 34.187,-252.158 L 35.4791,-256.135 L 37.5697,-259.756 L 40.3674,-262.863 L 43.75,-265.321
 L 47.5697,-267.021 L 51.6594,-267.89 L 55.8406,-267.89 L 59.9303,-267.021 L 63.75,-265.321 L 67.1326,-262.863
 L 69.9303,-259.756 L 72.0209,-256.135 L 73.313,-252.158 L 73.75,-248 L 73.313,-243.842 L 72.0209,-239.865
 L 69.9303,-236.244 L 67.1326,-233.137 L 63.75,-230.679 L 59.9303,-228.979 L 55.8406,-228.11 L 51.6594,-228.11
 z
M 262.57,-228.979 L 258.75,-230.679 L 255.367,-233.137 L 252.57,-236.244 L 250.479,-239.865 L 249.187,-243.842
 L 248.75,-248 L 249.187,-252.158 L 250.479,-256.135 L 252.57,-259.756 L 255.367,-262.863 L 258.75,-265.321
 L 262.57,-267.021 L 266.659,-267.89 L 270.841,-267.89 L 274.93,-267.021 L 278.75,-265.321 L 282.133,-262.863
 L 284.93,-259.756 L 287.021,-256.135 L 288.313,-252.158 L 288.75,-248 L 288.313,-243.842 L 287.021,-239.865
 L 284.93,-236.244 L 282.133,-233.137 L 278.75,-230.679 L 274.93,-228.979 L 270.841,-228.11 L 266.659,-228.11
 z
M 430,-212 L 326.5,-212 L 326.5,-177 L 322.5,-177 L 322.5,-212 L 219,-212
 L 219,-177 L 215,-177 L 215,-212 L 111.5,-212 L 111.5,-177 L 107.5,-177
 L 107.5,-212 L 0,-212 L 0,-142 L 430,-142 z
M 262.57,-157.979 L 258.75,-159.679 L 255.367,-162.137 L 252.57,-165.244 L 250.479,-168.865 L 249.187,-172.842
 L 248.75,-177 L 249.187,-181.158 L 250.479,-185.135 L 252.57,-188.756 L 255.367,-191.863 L 258.75,-194.321
 L 262.57,-196.021 L 266.659,-196.89 L 270.841,-196.89 L 274.93,-196.021 L 278.75,-194.321 L 282.133,-191.863
 L 284.93,-188.756 L 287.021,-185.135 L 288.313,-181.158 L 288.75,-177 L 288.313,-172.842 L 287.021,-168.865
 L 284.93,-165.244 L 282.133,-162.137 L 278.75,-159.679 L 274.93,-157.979 L 270.841,-157.11 L 266.659,-157.11
 z
M 370.07,-157.979 L 366.25,-159.679 L 362.867,-162.137 L 360.07,-165.244 L 357.979,-168.865 L 356.687,-172.842
 L 356.25,-177 L 356.687,-181.158 L 357.979,-185.135 L 360.07,-188.756 L 362.867,-191.863 L 366.25,-194.321
 L 370.07,-196.021 L 374.159,-196.89 L 378.341,-196.89 L 382.43,-196.021 L 386.25,-194.321 L 389.633,-191.863
 L 392.43,-188.756 L 394.521,-185.135 L 395.813,-181.158 L 396.25,-177 L 395.813,-172.842 L 394.521,-168.865
 L 392.43,-165.244 L 389.633,-162.137 L 386.25,-159.679 L 382.43,-157.979 L 378.341,-157.11 L 374.159,-157.11
 z
M 1230,-212 L 1129,-212 L 1129,-177 L 1125,-177 L 1125,-212 L 1024,-212
 L 1024,-177 L 1020,-177 L 1020,-212 L 919,-212 L 919,-177 L 915,-177
 L 915,-212 L 814,-212 L 814,-177 L 810,-177 L 810,-212 L 709,-212
 L 709,-177 L 705,-177 L 705,-212 L 600,-212 L 600,-142 L 1230,-142
 z
M 638.57,-159.979 L 634.75,-161.679 L 631.367,-164.137 L 628.57,-167.244 L 626.479,-170.865 L 625.187,-174.842
 L 624.75,-179 L 625.187,-183.158 L 626.479,-187.135 L 628.57,-190.756 L 631.367,-193.863 L 634.75,-196.321
 L 638.57,-198.021 L 642.659,-198.89 L 646.841,-198.89 L 650.93,-198.021 L 654.75,-196.321 L 658.133,-193.863
 L 660.93,-190.756 L 663.021,-187.135 L 664.313,-183.158 L 664.75,-179 L 664.313,-174.842 L 663.021,-170.865
 L 660.93,-167.244 L 658.133,-164.137 L 654.75,-161.679 L 650.93,-159.979 L 646.841,-159.11 L 642.659,-159.11
 z
M 969.57,-157.979 L 965.75,-159.679 L 962.367,-162.137 L 959.57,-165.244 L 957.479,-168.865 L 956.187,-172.842
 L 955.75,-177 L 956.187,-181.158 L 957.479,-185.135 L 959.57,-188.756 L 962.367,-191.863 L 965.75,-194.321
 L 969.57,-196.021 L 973.659,-196.89 L 977.841,-196.89 L 981.93,-196.021 L 985.75,-194.321 L 989.133,-191.863
 L 991.93,-188.756 L 994.021,-185.135 L 995.313,-181.158 L 995.75,-177 L 995.313,-172.842 L 994.021,-168.865
 L 991.93,-165.244 L 989.133,-162.137 L 985.75,-159.679 L 981.93,-157.979 L 977.841,-157.11 L 973.659,-157.11
 z
M 842.57,-156.979 L 838.75,-158.679 L 835.367,-161.137 L 832.57,-164.244 L 830.479,-167.865 L 829.187,-171.842
 L 828.75,-176 L 829.187,-180.158 L 830.479,-184.135 L 832.57,-187.756 L 835.367,-190.863 L 838.75,-193.321
 L 842.57,-195.021 L 846.659,-195.89 L 850.841,-195.89 L 854.93,-195.021 L 858.75,-193.321 L 862.133,-190.863
 L 864.93,-187.756 L 867.021,-184.135 L 868.313,-180.158 L 868.75,-176 L 868.313,-171.842 L 867.021,-167.865
 L 864.93,-164.244 L 862.133,-161.137 L 858.75,-158.679 L 854.93,-156.979 L 850.841,-156.11 L 846.659,-156.11
 z
M 756.57,-155.979 L 752.75,-157.679 L 749.367,-160.137 L 746.57,-163.244 L 744.479,-166.865 L 743.187,-170.842
 L 742.75,-175 L 743.187,-179.158 L 744.479,-183.135 L 746.57,-186.756 L 749.367,-189.863 L 752.75,-192.321
 L 756.57,-194.021 L 760.659,-194.89 L 764.841,-194.89 L 768.93,-194.021 L 772.75,-192.321 L 776.133,-189.863
 L 778.93,-186.756 L 781.021,-183.135 L 782.313,-179.158 L 782.75,-175 L 782.313,-170.842 L 781.021,-166.865
 L 778.93,-163.244 L 776.133,-160.137 L 772.75,-157.679 L 768.93,-155.979 L 764.841,-155.11 L 760.659,-155.11
 z
M 1083.57,-153.979 L 1079.75,-155.679 L 1076.37,-158.137 L 1073.57,-161.244 L 1071.48,-164.865 L 1070.19,-168.842
 L 1069.75,-173 L 1070.19,-177.158 L 1071.48,-181.135 L 1073.57,-184.756 L 1076.37,-187.863 L 1079.75,-190.321
 L 1083.57,-192.021 L 1087.66,-192.89 L 1091.84,-192.89 L 1095.93,-192.021 L 1099.75,-190.321 L 1103.13,-187.863
 L 1105.93,-184.756 L 1108.02,-181.135 L 1109.31,-177.158 L 1109.75,-173 L 1109.31,-168.842 L 1108.02,-164.865
 L 1105.93,-161.244 L 1103.13,-158.137 L 1099.75,-155.679 L 1095.93,-153.979 L 1091.84,-153.11 L 1087.66,-153.11
 z
M 1161.57,-152.979 L 1157.75,-154.679 L 1154.37,-157.137 L 1151.57,-160.244 L 1149.48,-163.865 L 1148.19,-167.842
 L 1147.75,-172 L 1148.19,-176.158 L 1149.48,-180.135 L 1151.57,-183.756 L 1154.37,-186.863 L 1157.75,-189.321
 L 1161.57,-191.021 L 1165.66,-191.89 L 1169.84,-191.89 L 1173.93,-191.021 L 1177.75,-189.321 L 1181.13,-186.863
 L 1183.93,-183.756 L 1186.02,-180.135 L 1187.31,-176.158 L 1187.75,-172 L 1187.31,-167.842 L 1186.02,-163.865
 L 1183.93,-160.244 L 1181.13,-157.137 L 1177.75,-154.679 L 1173.93,-152.979 L 1169.84,-152.11 L 1165.66,-152.11
 z
M 430,-141 L 326.5,-141 L 326.5,-106 L 322.5,-106 L 322.5,-141 L 219,-141
 L 219,-106 L 215,-106 L 215,-141 L 111.5,-141 L 111.5,-106 L 107.5,-106
 L 107.5,-141 L 0,-141 L 0,-71 L 430,-71 z
M 47.5697,-86.9789 L 43.75,-88.6795 L 40.3674,-91.1371 L 37.5697,-94.2443 L 35.4791,-97.8653 L 34.187,-101.842
 L 33.75,-106 L 34.187,-110.158 L 35.4791,-114.135 L 37.5697,-117.756 L 40.3674,-120.863 L 43.75,-123.321
 L 47.5697,-125.021 L 51.6594,-125.89 L 55.8406,-125.89 L 59.9303,-125.021 L 63.75,-123.321 L 67.1326,-120.863
 L 69.9303,-117.756 L 72.0209,-114.135 L 73.313,-110.158 L 73.75,-106 L 73.313,-101.842 L 72.0209,-97.8653
 L 69.9303,-94.2443 L 67.1326,-91.1371 L 63.75,-88.6795 L 59.9303,-86.9789 L 55.8406,-86.1096 L 51.6594,-86.1096
 z
M 262.57,-86.9789 L 258.75,-88.6795 L 255.367,-91.1371 L 252.57,-94.2443 L 250.479,-97.8653 L 249.187,-101.842
 L 248.75,-106 L 249.187,-110.158 L 250.479,-114.135 L 252.57,-117.756 L 255.367,-120.863 L 258.75,-123.321
 L 262.57,-125.021 L 266.659,-125.89 L 270.841,-125.89 L 274.93,-125.021 L 278.75,-123.321 L 282.133,-120.863
 L 284.93,-117.756 L 287.021,-114.135 L 288.313,-110.158 L 288.75,-106 L 288.313,-101.842 L 287.021,-97.8653
 L 284.93,-94.2443 L 282.133,-91.1371 L 278.75,-88.6795 L 274.93,-86.9789 L 270.841,-86.1096 L 266.659,-86.1096
 z
M 1230,-141 L 1129,-141 L 1129,-106 L 1125,-106 L 1125,-141 L 1024,-141
 L 1024,-106 L 1020,-106 L 1020,-141 L 919,-141 L 919,-106 L 915,-106
 L 915,-141 L 814,-141 L 814,-106 L 810,-106 L 810,-141 L 709,-141
 L 709,-106 L 705,-106 L 705,-141 L 600,-141 L 600,-71 L 1230,-71
 z
M 855.57,-91.9789 L 851.75,-93.6795 L 848.367,-96.1371 L 845.57,-99.2443 L 843.479,-102.865 L 842.187,-106.842
 L 841.75,-111 L 842.187,-115.158 L 843.479,-119.135 L 845.57,-122.756 L 848.367,-125.863 L 851.75,-128.321
 L 855.57,-130.021 L 859.659,-130.89 L 863.841,-130.89 L 867.93,-130.021 L 871.75,-128.321 L 875.133,-125.863
 L 877.93,-122.756 L 880.021,-119.135 L 881.313,-115.158 L 881.75,-111 L 881.313,-106.842 L 880.021,-102.865
 L 877.93,-99.2443 L 875.133,-96.1371 L 871.75,-93.6795 L 867.93,-91.9789 L 863.841,-91.1096 L 859.659,-91.1096
 z
M 957.57,-91.9789 L 953.75,-93.6795 L 950.367,-96.1371 L 947.57,-99.2443 L 945.479,-102.865 L 944.187,-106.842
 L 943.75,-111 L 944.187,-115.158 L 945.479,-119.135 L 947.57,-122.756 L 950.367,-125.863 L 953.75,-128.321
 L 957.57,-130.021 L 961.659,-130.89 L 965.841,-130.89 L 969.93,-130.021 L 973.75,-128.321 L 977.133,-125.863
 L 979.93,-122.756 L 982.021,-119.135 L 983.313,-115.158 L 983.75,-111 L 983.313,-106.842 L 982.021,-102.865
 L 979.93,-99.2443 L 977.133,-96.1371 L 973.75,-93.6795 L 969.93,-91.9789 L 965.841,-91.1096 L 961.659,-91.1096
 z
M 1049.57,-90.9789 L 1045.75,-92.6795 L 1042.37,-95.1371 L 1039.57,-98.2443 L 1037.48,-101.865 L 1036.19,-105.842
 L 1035.75,-110 L 1036.19,-114.158 L 1037.48,-118.135 L 1039.57,-121.756 L 1042.37,-124.863 L 1045.75,-127.321
 L 1049.57,-129.021 L 1053.66,-129.89 L 1057.84,-129.89 L 1061.93,-129.021 L 1065.75,-127.321 L 1069.13,-124.863
 L 1071.93,-121.756 L 1074.02,-118.135 L 1075.31,-114.158 L 1075.75,-110 L 1075.31,-105.842 L 1074.02,-101.865
 L 1071.93,-98.2443 L 1069.13,-95.1371 L 1065.75,-92.6795 L 1061.93,-90.9789 L 1057.84,-90.1096 L 1053.66,-90.1096
 z
M 641.57,-87.9789 L 637.75,-89.6795 L 634.367,-92.1371 L 631.57,-95.2443 L 629.479,-98.8653 L 628.187,-102.842
 L 627.75,-107 L 628.187,-111.158 L 629.479,-115.135 L 631.57,-118.756 L 634.367,-121.863 L 637.75,-124.321
 L 641.57,-126.021 L 645.659,-126.89 L 649.841,-126.89 L 653.93,-126.021 L 657.75,-124.321 L 661.133,-121.863
 L 663.93,-118.756 L 666.021,-115.135 L 667.313,-111.158 L 667.75,-107 L 667.313,-102.842 L 666.021,-98.8653
 L 663.93,-95.2443 L 661.133,-92.1371 L 657.75,-89.6795 L 653.93,-87.9789 L 649.841,-87.1096 L 645.659,-87.1096
 z
M 739.57,-86.9789 L 735.75,-88.6795 L 732.367,-91.1371 L 729.57,-94.2443 L 727.479,-97.8653 L 726.187,-101.842
 L 725.75,-106 L 726.187,-110.158 L 727.479,-114.135 L 729.57,-117.756 L 732.367,-120.863 L 735.75,-123.321
 L 739.57,-125.021 L 743.659,-125.89 L 747.841,-125.89 L 751.93,-125.021 L 755.75,-123.321 L 759.133,-120.863
 L 761.93,-117.756 L 764.021,-114.135 L 765.313,-110.158 L 765.75,-106 L 765.313,-101.842 L 764.021,-97.8653
 L 761.93,-94.2443 L 759.133,-91.1371 L 755.75,-88.6795 L 751.93,-86.9789 L 747.841,-86.1096 L 743.659,-86.1096
 z
M 1192.57,-82.9789 L 1188.75,-84.6795 L 1185.37,-87.1371 L 1182.57,-90.2443 L 1180.48,-93.8653 L 1179.19,-97.8418
 L 1178.75,-102 L 1179.19,-106.158 L 1180.48,-110.135 L 1182.57,-113.756 L 1185.37,-116.863 L 1188.75,-119.321
 L 1192.57,-121.021 L 1196.66,-121.89 L 1200.84,-121.89 L 1204.93,-121.021 L 1208.75,-119.321 L 1212.13,-116.863
 L 1214.93,-113.756 L 1217.02,-110.135 L 1218.31,-106.158 L 1218.75,-102 L 1218.31,-97.8418 L 1217.02,-93.8653
 L 1214.93,-90.2443 L 1212.13,-87.1371 L 1208.75,-84.6795 L 1204.93,-82.9789 L 1200.84,-82.1096 L 1196.66,-82.1096
 z
M 430,-70 L 326.5,-70 L 326.5,-35 L 322.5,-35 L 322.5,-70 L 219,-70
 L 219,-35 L 215,-35 L 215,-70 L 111.5,-70 L 111.5,-35 L 107.5,-35
 L 107.5,-70 L 0,-70 L 0,-0 L 430,-0 z
M 155.07,-15.9789 L 151.25,-17.6795 L 147.867,-20.1371 L 145.07,-23.2443 L 142.979,-26.8653 L 141.687,-30.8418
 L 141.25,-35 L 141.687,-39.1582 L 142.979,-43.1347 L 145.07,-46.7557 L 147.867,-49.8629 L 151.25,-52.3205
 L 155.07,-54.0211 L 159.159,-54.8904 L 163.341,-54.8904 L 167.43,-54.0211 L 171.25,-52.3205 L 174.633,-49.8629
 L 177.43,-46.7557 L 179.521,-43.1347 L 180.813,-39.1582 L 181.25,-35 L 180.813,-30.8418 L 179.521,-26.8653
 L 177.43,-23.2443 L 174.633,-20.1371 L 171.25,-17.6795 L 167.43,-15.9789 L 163.341,-15.1096 L 159.159,-15.1096
 z
M 370.07,-15.9789 L 366.25,-17.6795 L 362.867,-20.1371 L 360.07,-23.2443 L 357.979,-26.8653 L 356.687,-30.8418
 L 356.25,-35 L 356.687,-39.1582 L 357.979,-43.1347 L 360.07,-46.7557 L 362.867,-49.8629 L 366.25,-52.3205
 L 370.07,-54.0211 L 374.159,-54.8904 L 378.341,-54.8904 L 382.43,-54.0211 L 386.25,-52.3205 L 389.633,-49.8629
 L 392.43,-46.7557 L 394.521,-43.1347 L 395.813,-39.1582 L 396.25,-35 L 395.813,-30.8418 L 394.521,-26.8653
 L 392.43,-23.2443 L 389.633,-20.1371 L 386.25,-17.6795 L 382.43,-15.9789 L 378.341,-15.1096 L 374.159,-15.1096
 z
M 1230,-70 L 1129,-70 L 1129,-35 L 1125,-35 L 1125,-70 L 1024,-70
 L 1024,-35 L 1020,-35 L 1020,-70 L 919,-70 L 919,-35 L 915,-35
 L 915,-70 L 814,-70 L 814,-35 L 810,-35 L 810,-70 L 709,-70
 L 709,-35 L 705,-35 L 705,-70 L 600,-70 L 600,-0 L 1230,-0
 z
M 1084.57,-19.9789 L 1080.75,-21.6795 L 1077.37,-24.1371 L 1074.57,-27.2443 L 1072.48,-30.8653 L 1071.19,-34.8418
 L 1070.75,-39 L 1071.19,-43.1582 L 1072.48,-47.1347 L 1074.57,-50.7557 L 1077.37,-53.8629 L 1080.75,-56.3205
 L 1084.57,-58.0211 L 1088.66,-58.8904 L 1092.84,-58.8904 L 1096.93,-58.0211 L 1100.75,-56.3205 L 1104.13,-53.8629
 L 1106.93,-50.7557 L 1109.02,-47.1347 L 1110.31,-43.1582 L 1110.75,-39 L 1110.31,-34.8418 L 1109.02,-30.8653
 L 1106.93,-27.2443 L 1104.13,-24.1371 L 1100.75,-21.6795 L 1096.93,-19.9789 L 1092.84,-19.1096 L 1088.66,-19.1096
 z
M 965.57,-17.9789 L 961.75,-19.6795 L 958.367,-22.1371 L 955.57,-25.2443 L 953.479,-28.8653 L 952.187,-32.8418
 L 951.75,-37 L 952.187,-41.1582 L 953.479,-45.1347 L 955.57,-48.7557 L 958.367,-51.8629 L 961.75,-54.3205
 L 965.57,-56.0211 L 969.659,-56.8904 L 973.841,-56.8904 L 977.93,-56.0211 L 981.75,-54.3205 L 985.133,-51.8629
 L 987.93,-48.7557 L 990.021,-45.1347 L 991.313,-41.1582 L 991.75,-37 L 991.313,-32.8418 L 990.021,-28.8653
 L 987.93,-25.2443 L 985.133,-22.1371 L 981.75,-19.6795 L 977.93,-17.9789 L 973.841,-17.1096 L 969.659,-17.1096
 z
M 633.57,-10.9789 L 629.75,-12.6795 L 626.367,-15.1371 L 623.57,-18.2443 L 621.479,-21.8653 L 620.187,-25.8418
 L 619.75,-30 L 620.187,-34.1582 L 621.479,-38.1347 L 623.57,-41.7557 L 626.367,-44.8629 L 629.75,-47.3205
 L 633.57,-49.0211 L 637.659,-49.8904 L 640.405,-49.8904 L 643.75,-52.3205 L 647.57,-54.0211 L 651.659,-54.8904
 L 655.841,-54.8904 L 659.93,-54.0211 L 663.75,-52.3205 L 667.133,-49.8629 L 669.93,-46.7557 L 672.021,-43.1347
 L 673.313,-39.1582 L 673.75,-35 L 673.313,-30.8418 L 672.021,-26.8653 L 669.93,-23.2443 L 667.133,-20.1371
 L 663.75,-17.6795 L 659.93,-15.9789 L 655.841,-15.1096 L 653.095,-15.1096 L 649.75,-12.6795 L 645.93,-10.9789
 L 641.841,-10.1096 L 637.659,-10.1096 z
M 740.57,-15.9789 L 736.75,-17.6795 L 733.367,-20.1371 L 730.57,-23.2443 L 728.479,-26.8653 L 727.187,-30.8418
 L 726.75,-35 L 727.187,-39.1582 L 728.479,-43.1347 L 730.57,-46.7557 L 733.367,-49.8629 L 736.75,-52.3205
 L 740.57,-54.0211 L 744.659,-54.8904 L 748.841,-54.8904 L 752.93,-54.0211 L 756.75,-52.3205 L 760.133,-49.8629
 L 762.93,-46.7557 L 765.021,-43.1347 L 766.313,-39.1582 L 766.75,-35 L 766.313,-30.8418 L 765.021,-26.8653
 L 762.93,-23.2443 L 760.133,-20.1371 L 756.75,-17.6795 L 752.93,-15.9789 L 748.841,-15.1096 L 744.659,-15.1096
 z
M 859.57,-15.9789 L 855.75,-17.6795 L 852.367,-20.1371 L 849.57,-23.2443 L 847.479,-26.8653 L 846.187,-30.8418
 L 845.75,-35 L 846.187,-39.1582 L 847.479,-43.1347 L 849.57,-46.7557 L 852.367,-49.8629 L 855.75,-52.3205
 L 859.57,-54.0211 L 863.659,-54.8904 L 867.841,-54.8904 L 871.93,-54.0211 L 875.75,-52.3205 L 879.133,-49.8629
 L 881.93,-46.7557 L 884.021,-43.1347 L 885.313,-39.1582 L 885.75,-35 L 885.313,-30.8418 L 884.021,-26.8653
 L 881.93,-23.2443 L 879.133,-20.1371 L 875.75,-17.6795 L 871.93,-15.9789 L 867.841,-15.1096 L 863.659,-15.1096
 z
M 1151.57,-12.9789 L 1147.75,-14.6795 L 1144.37,-17.1371 L 1141.57,-20.2443 L 1139.48,-23.8653 L 1138.19,-27.8418
 L 1137.75,-32 L 1138.19,-36.1582 L 1139.48,-40.1347 L 1141.57,-43.7557 L 1144.37,-46.8629 L 1147.75,-49.3205
 L 1151.57,-51.0211 L 1155.66,-51.8904 L 1159.84,-51.8904 L 1163.93,-51.0211 L 1167.75,-49.3205 L 1171.13,-46.8629
 L 1173.93,-43.7557 L 1176.02,-40.1347 L 1177.31,-36.1582 L 1177.75,-32 L 1177.31,-27.8418 L 1176.02,-23.8653
 L 1173.93,-20.2443 L 1171.13,-17.1371 L 1167.75,-14.6795 L 1163.93,-12.9789 L 1159.84,-12.1096 L 1155.66,-12.1096
 z
" stroke="black" fill="lightgray" stroke-width="0.5"/>
</svg>
