<?xml version="1.0" standalone="no"?>
<!DOCTYPE svg PUBLIC "-//W3C//DTD SVG 1.1//EN" "http://www.w3.org/Graphics/SVG/1.1/DTD/svg11.dtd">
<svg width="1000mm" height="286mm" viewBox="0 -286 1000 286" xmlns="http://www.w3.org/2000/svg" version="1.1">
<title>OpenSCAD Model</title>
<path d="
M 300,-286 L 256,-286 L 256,-266 L 250,-266 L 250,-286 L 206,-286
 L 206,-266 L 200,-266 L 200,-286 L 156,-286 L 156,-266 L 150,-266
 L 150,-286 L 106,-286 L 106,-266 L 100,-266 L 100,-286 L 56,-286
 L 56,-266 L 50,-266 L 50,-286 L 0,-286 L 0,-246 L 300,-246
 z
M 174.91,-256.489 L 173,-257.34 L 171.309,-258.569 L 169.91,-260.122 L 168.865,-261.933 L 168.219,-263.921
 L 168,-266 L 168.219,-268.079 L 168.865,-270.067 L 169.91,-271.878 L 171.309,-273.431 L 173,-274.66
 L 174.91,-275.511 L 176.955,-275.945 L 179.045,-275.945 L 181.09,-275.511 L 183,-274.66 L 184.691,-273.431
 L 186.09,-271.878 L 187.135,-270.067 L 187.781,-268.079 L 188,-266 L 187.781,-263.921 L 187.135,-261.933
 L 186.09,-260.122 L 184.691,-258.569 L 183,-257.34 L 181.09,-256.489 L 179.045,-256.055 L 176.955,-256.055
 z
M 271.91,-256.489 L 270,-257.34 L 268.309,-258.569 L 266.91,-260.122 L 265.865,-261.933 L 265.219,-263.921
 L 265,-266 L 265.219,-268.079 L 265.865,-270.067 L 266.91,-271.878 L 268.309,-273.431 L 270,-274.66
 L 271.91,-275.511 L 273.955,-275.945 L 276.045,-275.945 L 278.09,-275.511 L 280,-274.66 L 281.691,-273.431
 L 283.09,-271.878 L 284.135,-270.067 L 284.781,-268.079 L 285,-266 L 284.781,-263.921 L 284.135,-261.933
 L 283.09,-260.122 L 281.691,-258.569 L 280,-257.34 L 278.09,-256.489 L 276.045,-256.055 L 273.955,-256.055
 z
M 300,-245 L 256,-245 L 256,-225 L 250,-225 L 250,-245 L 206,-245
 L 206,-225 L 200,-225 L 200,-245 L 156,-245 L 156,-225 L 150,-225
 L 150,-245 L 106,-245 L 106,-225 L 100,-225 L 100,-245 L 56,-245
 L 56,-225 L 50,-225 L 50,-245 L 0,-245 L 0,-205 L 300,-205
 z
M 21.9098,-215.489 L 20,-216.34 L 18.3087,-217.569 L 16.9098,-219.122 L 15.8645,-220.933 L 15.2185,-222.921
 L 15,-225 L 15.2185,-227.079 L 15.8645,-229.067 L 16.9098,-230.878 L 18.3087,-232.431 L 20,-233.66
 L 21.9098,-234.511 L 23.9547,-234.945 L 26.0453,-234.945 L 28.0902,-234.511 L 30,-233.66 L 31.6913,-232.431
 L 33.0902,-230.878 L 34.1355,-229.067 L 34.7815,-227.079 L 35,-225 L 34.7815,-222.921 L 34.1355,-220.933
 L 33.0902,-219.122 L 31.6913,-217.569 L 30,-216.34 L 28.0902,-215.489 L 26.0453,-215.055 L 23.9547,-215.055
 z
M 74.9098,-215.489 L 73,-216.34 L 71.3087,-217.569 L 69.9098,-219.122 L 68.8645,-220.933 L 68.2185,-222.921
 L 68,-225 L 68.2185,-227.079 L 68.8645,-229.067 L 69.9098,-230.878 L 71.3087,-232.431 L 73,-233.66
 L 74.9098,-234.511 L 76.9547,-234.945 L 79.0453,-234.945 L 81.0902,-234.511 L 83,-233.66 L 84.6913,-232.431
 L 86.0902,-230.878 L 87.1355,-229.067 L 87.7815,-227.079 L 88,-225 L 87.7815,-222.921 L 87.1355,-220.933
 L 86.0902,-219.122 L 84.6913,-217.569 L 83,-216.34 L 81.0902,-215.489 L 79.0453,-215.055 L 76.9547,-215.055
 z
M 300,-204 L 256,-204 L 256,-184 L 250,-184 L 250,-204 L 206,-204
 L 206,-184 L 200,-184 L 200,-204 L 156,-204 L 156,-184 L 150,-184
 L 150,-204 L 106,-204 L 106,-184 L 100,-184 L 100,-204 L 56,-204
 L 56,-184 L 50,-184 L 50,-204 L 0,-204 L 0,-164 L 300,-164
 z
M 74.9098,-174.489 L 73,-175.34 L 71.3087,-176.569 L 69.9098,-178.122 L 68.8645,-179.933 L 68.2185,-181.921
 L 68,-184 L 68.2185,-186.079 L 68.8645,-188.067 L 69.9098,-189.878 L 71.3087,-191.431 L 73,-192.66
 L 74.9098,-193.511 L 76.9547,-193.945 L 79.0453,-193.945 L 81.0902,-193.511 L 83,-192.66 L 84.6913,-191.431
 L 86.0902,-189.878 L 87.1355,-188.067 L 87.7815,-186.079 L 88,-184 L 87.7815,-181.921 L 87.1355,-179.933
 L 86.0902,-178.122 L 84.6913,-176.569 L 83,-175.34 L 81.0902,-174.489 L 79.0453,-174.055 L 76.9547,-174.055
 z
M 271.91,-174.489 L 270,-175.34 L 268.309,-176.569 L 266.91,-178.122 L 265.865,-179.933 L 265.219,-181.921
 L 265,-184 L 265.219,-186.079 L 265.865,-188.067 L 266.91,-189.878 L 268.309,-191.431 L 270,-192.66
 L 271.91,-193.511 L 273.955,-193.945 L 276.045,-193.945 L 278.09,-193.511 L 280,-192.66 L 281.691,-191.431
 L 283.09,-189.878 L 284.135,-188.067 L 284.781,-186.079 L 285,-184 L 284.781,-181.921 L 284.135,-179.933
 L 283.09,-178.122 L 281.691,-176.569 L 280,-175.34 L 278.09,-174.489 L 276.045,-174.055 L 273.955,-174.055
 z
M 1000,-204 L 956,-204 L 956,-184 L 950,-184 L 950,-204 L 906,-204
 L 906,-184 L 900,-184 L 900,-204 L 856,-204 L 856,-184 L 850,-184
 L 850,-204 L 806,-204 L 806,-184 L 800,-184 L 800,-204 L 756,-204
 L 756,-184 L 750,-184 L 750,-204 L 706,-204 L 706,-184 L 700,-184
 L 700,-204 L 656,-204 L 656,-184 L 650,-184 L 650,-204 L 600,-204
 L 600,-164 L 1000,-164 z
M 621.91,-174.489 L 620,-175.34 L 618.309,-176.569 L 616.91,-178.122 L 615.865,-179.933 L 615.219,-181.921
 L 615,-184 L 615.219,-186.079 L 615.865,-188.067 L 616.91,-189.878 L 618.309,-191.431 L 620,-192.66
 L 621.91,-193.511 L 623.955,-193.945 L 626.045,-193.945 L 628.09,-193.511 L 630,-192.66 L 631.691,-191.431
 L 633.09,-189.878 L 634.135,-188.067 L 634.781,-186.079 L 635,-184 L 634.781,-181.921 L 634.135,-179.933
 L 633.09,-178.122 L 631.691,-176.569 L 630,-175.34 L 628.09,-174.489 L 626.045,-174.055 L 623.955,-174.055
 z
M 671.91,-174.489 L 670,-175.34 L 668.309,-176.569 L 666.91,-178.122 L 665.865,-179.933 L 665.219,-181.921
 L 665,-184 L 665.219,-186.079 L 665.865,-188.067 L 666.91,-189.878 L 668.309,-191.431 L 670,-192.66
 L 671.91,-193.511 L 673.955,-193.945 L 676.045,-193.945 L 678.09,-193.511 L 680,-192.66 L 681.691,-191.431
 L 683.09,-189.878 L 684.135,-188.067 L 684.781,-186.079 L 685,-184 L 684.781,-181.921 L 684.135,-179.933
 L 683.09,-178.122 L 681.691,-176.569 L 680,-175.34 L 678.09,-174.489 L 676.045,-174.055 L 673.955,-174.055
 z
M 721.91,-174.489 L 720,-175.34 L 718.309,-176.569 L 716.91,-178.122 L 715.865,-179.933 L 715.219,-181.921
 L 715,-184 L 715.219,-186.079 L 715.865,-188.067 L 716.91,-189.878 L 718.309,-191.431 L 720,-192.66
 L 721.91,-193.511 L 723.955,-193.945 L 726.045,-193.945 L 728.09,-193.511 L 730,-192.66 L 731.691,-191.431
 L 733.09,-189.878 L 734.135,-188.067 L 734.781,-186.079 L 735,-184 L 734.781,-181.921 L 734.135,-179.933
 L 733.09,-178.122 L 731.691,-176.569 L 730,-175.34 L 728.09,-174.489 L 726.045,-174.055 L 723.955,-174.055
 z
M 771.91,-174.489 L 770,-175.34 L 768.309,-176.569 L 766.91,-178.122 L 765.865,-179.933 L 765.219,-181.921
 L 765,-184 L 765.219,-186.079 L 765.865,-188.067 L 766.91,-189.878 L 768.309,-191.431 L 770,-192.66
 L 771.91,-193.511 L 773.955,-193.945 L 776.045,-193.945 L 778.09,-193.511 L 780,-192.66 L 781.691,-191.431
 L 783.09,-189.878 L 784.135,-188.067 L 784.781,-186.079 L 785,-184 L 784.781,-181.921 L 784.135,-179.933
 L 783.09,-178.122 L 781.691,-176.569 L 780,-175.34 L 778.09,-174.489 L 776.045,-174.055 L 773.955,-174.055
 z
M 821.91,-174.489 L 820,-175.34 L 818.309,-176.569 L 816.91,-178.122 L 815.865,-179.933 L 815.219,-181.921
 L 815,-184 L 815.219,-186.079 L 815.865,-188.067 L 816.91,-189.878 L 818.309,-191.431 L 820,-192.66
 L 821.91,-193.511 L 823.955,-193.945 L 826.045,-193.945 L 828.09,-193.511 L 830,-192.66 L 831.691,-191.431
 L 833.09,-189.878 L 834.135,-188.067 L 834.781,-186.079 L 835,-184 L 834.781,-181.921 L 834.135,-179.933
 L 833.09,-178.122 L 831.691,-176.569 L 830,-175.34 L 828.09,-174.489 L 826.045,-174.055 L 823.955,-174.055
 z
M 871.91,-174.489 L 870,-175.34 L 868.309,-176.569 L 866.91,-178.122 L 865.865,-179.933 L 865.219,-181.921
 L 865,-184 L 865.219,-186.079 L 865.865,-188.067 L 866.91,-189.878 L 868.309,-191.431 L 870,-192.66
 L 871.91,-193.511 L 873.955,-193.945 L 876.045,-193.945 L 878.09,-193.511 L 880,-192.66 L 881.691,-191.431
 L 883.09,-189.878 L 884.135,-188.067 L 884.781,-186.079 L 885,-184 L 884.781,-181.921 L 884.135,-179.933
 L 883.09,-178.122 L 881.691,-176.569 L 880,-175.34 L 878.09,-174.489 L 876.045,-174.055 L 873.955,-174.055
 z
M 921.91,-174.489 L 920,-175.34 L 918.309,-176.569 L 916.91,-178.122 L 915.865,-179.933 L 915.219,-181.921
 L 915,-184 L 915.219,-186.079 L 915.865,-188.067 L 916.91,-189.878 L 918.309,-191.431 L 920,-192.66
 L 921.91,-193.511 L 923.955,-193.945 L 926.045,-193.945 L 928.09,-193.511 L 930,-192.66 L 931.691,-191.431
 L 933.09,-189.878 L 934.135,-188.067 L 934.781,-186.079 L 935,-184 L 934.781,-181.921 L 934.135,-179.933
 L 933.09,-178.122 L 931.691,-176.569 L 930,-175.34 L 928.09,-174.489 L 926.045,-174.055 L 923.955,-174.055
 z
M 971.91,-174.489 L 970,-175.34 L 968.309,-176.569 L 966.91,-178.122 L 965.865,-179.933 L 965.219,-181.921
 L 965,-184 L 965.219,-186.079 L 965.865,-188.067 L 966.91,-189.878 L 968.309,-191.431 L 970,-192.66
 L 971.91,-193.511 L 973.955,-193.945 L 976.045,-193.945 L 978.09,-193.511 L 980,-192.66 L 981.691,-191.431
 L 983.09,-189.878 L 984.135,-188.067 L 984.781,-186.079 L 985,-184 L 984.781,-181.921 L 984.135,-179.933
 L 983.09,-178.122 L 981.691,-176.569 L 980,-175.34 L 978.09,-174.489 L 976.045,-174.055 L 973.955,-174.055
 z
M 300,-163 L 256,-163 L 256,-143 L 250,-143 L 250,-163 L 206,-163
 L 206,-143 L 200,-143 L 200,-163 L 156,-163 L 156,-143 L 150,-143
 L 150,-163 L 106,-163 L 106,-143 L 100,-143 L 100,-163 L 56,-163
 L 56,-143 L 50,-143 L 50,-163 L 0,-163 L 0,-123 L 300,-123
 z
M 21.9098,-133.489 L 20,-134.34 L 18.3087,-135.569 L 16.9098,-137.122 L 15.8645,-138.933 L 15.2185,-140.921
 L 15,-143 L 15.2185,-145.079 L 15.8645,-147.067 L 16.9098,-148.878 L 18.3087,-150.431 L 20,-151.66
 L 21.9098,-152.511 L 23.9547,-152.945 L 26.0453,-152.945 L 28.0902,-152.511 L 30,-151.66 L 31.6913,-150.431
 L 33.0902,-148.878 L 34.1355,-147.067 L 34.7815,-145.079 L 35,-143 L 34.7815,-140.921 L 34.1355,-138.933
 L 33.0902,-137.122 L 31.6913,-135.569 L 30,-134.34 L 28.0902,-133.489 L 26.0453,-133.055 L 23.9547,-133.055
 z
M 224.91,-133.489 L 223,-134.34 L 221.309,-135.569 L 219.91,-137.122 L 218.865,-138.933 L 218.219,-140.921
 L 218,-143 L 218.219,-145.079 L 218.865,-147.067 L 219.91,-148.878 L 221.309,-150.431 L 223,-151.66
 L 224.91,-152.511 L 226.955,-152.945 L 229.045,-152.945 L 231.09,-152.511 L 233,-151.66 L 234.691,-150.431
 L 236.09,-148.878 L 237.135,-147.067 L 237.781,-145.079 L 238,-143 L 237.781,-140.921 L 237.135,-138.933
 L 236.09,-137.122 L 234.691,-135.569 L 233,-134.34 L 231.09,-133.489 L 229.045,-133.055 L 226.955,-133.055
 z
M 1000,-163 L 956,-163 L 956,-143 L 950,-143 L 950,-163 L 906,-163
 L 906,-143 L 900,-143 L 900,-163 L 856,-163 L 856,-143 L 850,-143
 L 850,-163 L 806,-163 L 806,-143 L 800,-143 L 800,-163 L 756,-163
 L 756,-143 L 750,-143 L 750,-163 L 706,-163 L 706,-143 L 700,-143
 L 700,-163 L 656,-163 L 656,-143 L 650,-143 L 650,-163 L 600,-163
 L 600,-123 L 1000,-123 z
M 621.91,-133.489 L 620,-134.34 L 618.309,-135.569 L 616.91,-137.122 L 615.865,-138.933 L 615.219,-140.921
 L 615,-143 L 615.219,-145.079 L 615.865,-147.067 L 616.91,-148.878 L 618.309,-150.431 L 620,-151.66
 L 621.91,-152.511 L 623.955,-152.945 L 626.045,-152.945 L 628.09,-152.511 L 630,-151.66 L 631.691,-150.431
 L 633.09,-148.878 L 634.135,-147.067 L 634.781,-145.079 L 635,-143 L 634.781,-140.921 L 634.135,-138.933
 L 633.09,-137.122 L 631.691,-135.569 L 630,-134.34 L 628.09,-133.489 L 626.045,-133.055 L 623.955,-133.055
 z
M 671.91,-133.489 L 670,-134.34 L 668.309,-135.569 L 666.91,-137.122 L 665.865,-138.933 L 665.219,-140.921
 L 665,-143 L 665.219,-145.079 L 665.865,-147.067 L 666.91,-148.878 L 668.309,-150.431 L 670,-151.66
 L 671.91,-152.511 L 673.955,-152.945 L 676.045,-152.945 L 678.09,-152.511 L 680,-151.66 L 681.691,-150.431
 L 683.09,-148.878 L 684.135,-147.067 L 684.781,-145.079 L 685,-143 L 684.781,-140.921 L 684.135,-138.933
 L 683.09,-137.122 L 681.691,-135.569 L 680,-134.34 L 678.09,-133.489 L 676.045,-133.055 L 673.955,-133.055
 z
M 721.91,-133.489 L 720,-134.34 L 718.309,-135.569 L 716.91,-137.122 L 715.865,-138.933 L 715.219,-140.921
 L 715,-143 L 715.219,-145.079 L 715.865,-147.067 L 716.91,-148.878 L 718.309,-150.431 L 720,-151.66
 L 721.91,-152.511 L 723.955,-152.945 L 726.045,-152.945 L 728.09,-152.511 L 730,-151.66 L 731.691,-150.431
 L 733.09,-148.878 L 734.135,-147.067 L 734.781,-145.079 L 735,-143 L 734.781,-140.921 L 734.135,-138.933
 L 733.09,-137.122 L 731.691,-135.569 L 730,-134.34 L 728.09,-133.489 L 726.045,-133.055 L 723.955,-133.055
 z
M 771.91,-133.489 L 770,-134.34 L 768.309,-135.569 L 766.91,-137.122 L 765.865,-138.933 L 765.219,-140.921
 L 765,-143 L 765.219,-145.079 L 765.865,-147.067 L 766.91,-148.878 L 768.309,-150.431 L 770,-151.66
 L 771.91,-152.511 L 773.955,-152.945 L 776.045,-152.945 L 778.09,-152.511 L 780,-151.66 L 781.691,-150.431
 L 783.09,-148.878 L 784.135,-147.067 L 784.781,-145.079 L 785,-143 L 784.781,-140.921 L 784.135,-138.933
 L 783.09,-137.122 L 781.691,-135.569 L 780,-134.34 L 778.09,-133.489 L 776.045,-133.055 L 773.955,-133.055
 z
M 821.91,-133.489 L 820,-134.34 L 818.309,-135.569 L 816.91,-137.122 L 815.865,-138.933 L 815.219,-140.921
 L 815,-143 L 815.219,-145.079 L 815.865,-147.067 L 816.91,-148.878 L 818.309,-150.431 L 820,-151.66
 L 821.91,-152.511 L 823.955,-152.945 L 826.045,-152.945 L 828.09,-152.511 L 830,-151.66 L 831.691,-150.431
 L 833.09,-148.878 L 834.135,-147.067 L 834.781,-145.079 L 835,-143 L 834.781,-140.921 L 834.135,-138.933
 L 833.09,-137.122 L 831.691,-135.569 L 830,-134.34 L 828.09,-133.489 L 826.045,-133.055 L 823.955,-133.055
 z
M 871.91,-133.489 L 870,-134.34 L 868.309,-135.569 L 866.91,-137.122 L 865.865,-138.933 L 865.219,-140.921
 L 865,-143 L 865.219,-145.079 L 865.865,-147.067 L 866.91,-148.878 L 868.309,-150.431 L 870,-151.66
 L 871.91,-152.511 L 873.955,-152.945 L 876.045,-152.945 L 878.09,-152.511 L 880,-151.66 L 881.691,-150.431
 L 883.09,-148.878 L 884.135,-147.067 L 884.781,-145.079 L 885,-143 L 884.781,-140.921 L 884.135,-138.933
 L 883.09,-137.122 L 881.691,-135.569 L 880,-134.34 L 878.09,-133.489 L 876.045,-133.055 L 873.955,-133.055
 z
M 921.91,-133.489 L 920,-134.34 L 918.309,-135.569 L 916.91,-137.122 L 915.865,-138.933 L 915.219,-140.921
 L 915,-143 L 915.219,-145.079 L 915.865,-147.067 L 916.91,-148.878 L 918.309,-150.431 L 920,-151.66
 L 921.91,-152.511 L 923.955,-152.945 L 926.045,-152.945 L 928.09,-152.511 L 930,-151.66 L 931.691,-150.431
 L 933.09,-148.878 L 934.135,-147.067 L 934.781,-145.079 L 935,-143 L 934.781,-140.921 L 934.135,-138.933
 L 933.09,-137.122 L 931.691,-135.569 L 930,-134.34 L 928.09,-133.489 L 926.045,-133.055 L 923.955,-133.055
 z
M 971.91,-133.489 L 970,-134.34 L 968.309,-135.569 L 966.91,-137.122 L 965.865,-138.933 L 965.219,-140.921
 L 965,-143 L 965.219,-145.079 L 965.865,-147.067 L 966.91,-148.878 L 968.309,-150.431 L 970,-151.66
 L 971.91,-152.511 L 973.955,-152.945 L 976.045,-152.945 L 978.09,-152.511 L 980,-151.66 L 981.691,-150.431
 L 983.09,-148.878 L 984.135,-147.067 L 984.781,-145.079 L 985,-143 L 984.781,-140.921 L 984.135,-138.933
 L 983.09,-137.122 L 981.691,-135.569 L 980,-134.34 L 978.09,-133.489 L 976.045,-133.055 L 973.955,-133.055
 z
M 300,-122 L 256,-122 L 256,-102 L 250,-102 L 250,-122 L 206,-122
 L 206,-102 L 200,-102 L 200,-122 L 156,-122 L 156,-102 L 150,-102
 L 150,-122 L 106,-122 L 106,-102 L 100,-102 L 100,-122 L 56,-122
 L 56,-102 L 50,-102 L 50,-122 L 0,-122 L 0,-82 L 300,-82
 z
M 124.91,-92.4894 L 123,-93.3397 L 121.309,-94.5686 L 119.91,-96.1221 L 118.865,-97.9326 L 118.219,-99.9209
 L 118,-102 L 118.219,-104.079 L 118.865,-106.067 L 119.91,-107.878 L 121.309,-109.431 L 123,-110.66
 L 124.91,-111.511 L 126.955,-111.945 L 129.045,-111.945 L 131.09,-111.511 L 133,-110.66 L 134.691,-109.431
 L 136.09,-107.878 L 137.135,-106.067 L 137.781,-104.079 L 138,-102 L 137.781,-99.9209 L 137.135,-97.9326
 L 136.09,-96.1221 L 134.691,-94.5686 L 133,-93.3397 L 131.09,-92.4894 L 129.045,-92.0548 L 126.955,-92.0548
 z
M 271.91,-92.4894 L 270,-93.3397 L 268.309,-94.5686 L 266.91,-96.1221 L 265.865,-97.9326 L 265.219,-99.9209
 L 265,-102 L 265.219,-104.079 L 265.865,-106.067 L 266.91,-107.878 L 268.309,-109.431 L 270,-110.66
 L 271.91,-111.511 L 273.955,-111.945 L 276.045,-111.945 L 278.09,-111.511 L 280,-110.66 L 281.691,-109.431
 L 283.09,-107.878 L 284.135,-106.067 L 284.781,-104.079 L 285,-102 L 284.781,-99.9209 L 284.135,-97.9326
 L 283.09,-96.1221 L 281.691,-94.5686 L 280,-93.3397 L 278.09,-92.4894 L 276.045,-92.0548 L 273.955,-92.0548
 z
M 1000,-122 L 956,-122 L 956,-102 L 950,-102 L 950,-122 L 906,-122
 L 906,-102 L 900,-102 L 900,-122 L 856,-122 L 856,-102 L 850,-102
 L 850,-122 L 806,-122 L 806,-102 L 800,-102 L 800,-122 L 756,-122
 L 756,-102 L 750,-102 L 750,-122 L 706,-122 L 706,-102 L 700,-102
 L 700,-122 L 656,-122 L 656,-102 L 650,-102 L 650,-122 L 600,-122
 L 600,-82 L 1000,-82 z
M 621.91,-92.4894 L 620,-93.3397 L 618.309,-94.5686 L 616.91,-96.1221 L 615.865,-97.9326 L 615.219,-99.9209
 L 615,-102 L 615.219,-104.079 L 615.865,-106.067 L 616.91,-107.878 L 618.309,-109.431 L 620,-110.66
 L 621.91,-111.511 L 623.955,-111.945 L 626.045,-111.945 L 628.09,-111.511 L 630,-110.66 L 631.691,-109.431
 L 633.09,-107.878 L 634.135,-106.067 L 634.781,-104.079 L 635,-102 L 634.781,-99.9209 L 634.135,-97.9326
 L 633.09,-96.1221 L 631.691,-94.5686 L 630,-93.3397 L 628.09,-92.4894 L 626.045,-92.0548 L 623.955,-92.0548
 z
M 671.91,-92.4894 L 670,-93.3397 L 668.309,-94.5686 L 666.91,-96.1221 L 665.865,-97.9326 L 665.219,-99.9209
 L 665,-102 L 665.219,-104.079 L 665.865,-106.067 L 666.91,-107.878 L 668.309,-109.431 L 670,-110.66
 L 671.91,-111.511 L 673.955,-111.945 L 676.045,-111.945 L 678.09,-111.511 L 680,-110.66 L 681.691,-109.431
 L 683.09,-107.878 L 684.135,-106.067 L 684.781,-104.079 L 685,-102 L 684.781,-99.9209 L 684.135,-97.9326
 L 683.09,-96.1221 L 681.691,-94.5686 L 680,-93.3397 L 678.09,-92.4894 L 676.045,-92.0548 L 673.955,-92.0548
 z
M 721.91,-92.4894 L 720,-93.3397 L 718.309,-94.5686 L 716.91,-96.1221 L 715.865,-97.9326 L 715.219,-99.9209
 L 715,-102 L 715.219,-104.079 L 715.865,-106.067 L 716.91,-107.878 L 718.309,-109.431 L 720,-110.66
 L 721.91,-111.511 L 723.955,-111.945 L 726.045,-111.945 L 728.09,-111.511 L 730,-110.66 L 731.691,-109.431
 L 733.09,-107.878 L 734.135,-106.067 L 734.781,-104.079 L 735,-102 L 734.781,-99.9209 L 734.135,-97.9326
 L 733.09,-96.1221 L 731.691,-94.5686 L 730,-93.3397 L 728.09,-92.4894 L 726.045,-92.0548 L 723.955,-92.0548
 z
M 771.91,-92.4894 L 770,-93.3397 L 768.309,-94.5686 L 766.91,-96.1221 L 765.865,-97.9326 L 765.219,-99.9209
 L 765,-102 L 765.219,-104.079 L 765.865,-106.067 L 766.91,-107.878 L 768.309,-109.431 L 770,-110.66
 L 771.91,-111.511 L 773.955,-111.945 L 776.045,-111.945 L 778.09,-111.511 L 780,-110.66 L 781.691,-109.431
 L 783.09,-107.878 L 784.135,-106.067 L 784.781,-104.079 L 785,-102 L 784.781,-99.9209 L 784.135,-97.9326
 L 783.09,-96.1221 L 781.691,-94.5686 L 780,-93.3397 L 778.09,-92.4894 L 776.045,-92.0548 L 773.955,-92.0548
 z
M 821.91,-92.4894 L 820,-93.3397 L 818.309,-94.5686 L 816.91,-96.1221 L 815.865,-97.9326 L 815.219,-99.9209
 L 815,-102 L 815.219,-104.079 L 815.865,-106.067 L 816.91,-107.878 L 818.309,-109.431 L 820,-110.66
 L 821.91,-111.511 L 823.955,-111.945 L 826.045,-111.945 L 828.09,-111.511 L 830,-110.66 L 831.691,-109.431
 L 833.09,-107.878 L 834.135,-106.067 L 834.781,-104.079 L 835,-102 L 834.781,-99.9209 L 834.135,-97.9326
 L 833.09,-96.1221 L 831.691,-94.5686 L 830,-93.3397 L 828.09,-92.4894 L 826.045,-92.0548 L 823.955,-92.0548
 z
M 871.91,-92.4894 L 870,-93.3397 L 868.309,-94.5686 L 866.91,-96.1221 L 865.865,-97.9326 L 865.219,-99.9209
 L 865,-102 L 865.219,-104.079 L 865.865,-106.067 L 866.91,-107.878 L 868.309,-109.431 L 870,-110.66
 L 871.91,-111.511 L 873.955,-111.945 L 876.045,-111.945 L 878.09,-111.511 L 880,-110.66 L 881.691,-109.431
 L 883.09,-107.878 L 884.135,-106.067 L 884.781,-104.079 L 885,-102 L 884.781,-99.9209 L 884.135,-97.9326
 L 883.09,-96.1221 L 881.691,-94.5686 L 880,-93.3397 L 878.09,-92.4894 L 876.045,-92.0548 L 873.955,-92.0548
 z
M 921.91,-92.4894 L 920,-93.3397 L 918.309,-94.5686 L 916.91,-96.1221 L 915.865,-97.9326 L 915.219,-99.9209
 L 915,-102 L 915.219,-104.079 L 915.865,-106.067 L 916.91,-107.878 L 918.309,-109.431 L 920,-110.66
 L 921.91,-111.511 L 923.955,-111.945 L 926.045,-111.945 L 928.09,-111.511 L 930,-110.66 L 931.691,-109.431
 L 933.09,-107.878 L 934.135,-106.067 L 934.781,-104.079 L 935,-102 L 934.781,-99.9209 L 934.135,-97.9326
 L 933.09,-96.1221 L 931.691,-94.5686 L 930,-93.3397 L 928.09,-92.4894 L 926.045,-92.0548 L 923.955,-92.0548
 z
M 971.91,-92.4894 L 970,-93.3397 L 968.309,-94.5686 L 966.91,-96.1221 L 965.865,-97.9326 L 965.219,-99.9209
 L 965,-102 L 965.219,-104.079 L 965.865,-106.067 L 966.91,-107.878 L 968.309,-109.431 L 970,-110.66
 L 971.91,-111.511 L 973.955,-111.945 L 976.045,-111.945 L 978.09,-111.511 L 980,-110.66 L 981.691,-109.431
 L 983.09,-107.878 L 984.135,-106.067 L 984.781,-104.079 L 985,-102 L 984.781,-99.9209 L 984.135,-97.9326
 L 983.09,-96.1221 L 981.691,-94.5686 L 980,-93.3397 L 978.09,-92.4894 L 976.045,-92.0548 L 973.955,-92.0548
 z
M 300,-81 L 256,-81 L 256,-61 L 250,-61 L 250,-81 L 206,-81
 L 206,-61 L 200,-61 L 200,-81 L 156,-81 L 156,-61 L 150,-61
 L 150,-81 L 106,-81 L 106,-61 L 100,-61 L 100,-81 L 56,-81
 L 56,-61 L 50,-61 L 50,-81 L 0,-81 L 0,-41 L 300,-41
 z
M 21.9098,-51.4894 L 20,-52.3397 L 18.3087,-53.5686 L 16.9098,-55.1221 L 15.8645,-56.9326 L 15.2185,-58.9209
 L 15,-61 L 15.2185,-63.0791 L 15.8645,-65.0674 L 16.9098,-66.8779 L 18.3087,-68.4314 L 20,-69.6603
 L 21.9098,-70.5106 L 23.9547,-70.9452 L 26.0453,-70.9452 L 28.0902,-70.5106 L 30,-69.6603 L 31.6913,-68.4314
 L 33.0902,-66.8779 L 34.1355,-65.0674 L 34.7815,-63.0791 L 35,-61 L 34.7815,-58.9209 L 34.1355,-56.9326
 L 33.0902,-55.1221 L 31.6913,-53.5686 L 30,-52.3397 L 28.0902,-51.4894 L 26.0453,-51.0548 L 23.9547,-51.0548
 z
M 224.91,-51.4894 L 223,-52.3397 L 221.309,-53.5686 L 219.91,-55.1221 L 218.865,-56.9326 L 218.219,-58.9209
 L 218,-61 L 218.219,-63.0791 L 218.865,-65.0674 L 219.91,-66.8779 L 221.309,-68.4314 L 223,-69.6603
 L 224.91,-70.5106 L 226.955,-70.9452 L 229.045,-70.9452 L 231.09,-70.5106 L 233,-69.6603 L 234.691,-68.4314
 L 236.09,-66.8779 L 237.135,-65.0674 L 237.781,-63.0791 L 238,-61 L 237.781,-58.9209 L 237.135,-56.9326
 L 236.09,-55.1221 L 234.691,-53.5686 L 233,-52.3397 L 231.09,-51.4894 L 229.045,-51.0548 L 226.955,-51.0548
 z
M 1000,-81 L 956,-81 L 956,-61 L 950,-61 L 950,-81 L 906,-81
 L 906,-61 L 900,-61 L 900,-81 L 856,-81 L 856,-61 L 850,-61
 L 850,-81 L 806,-81 L 806,-61 L 800,-61 L 800,-81 L 756,-81
 L 756,-61 L 750,-61 L 750,-81 L 706,-81 L 706,-61 L 700,-61
 L 700,-81 L 656,-81 L 656,-61 L 650,-61 L 650,-81 L 600,-81
 L 600,-41 L 1000,-41 z
M 621.91,-51.4894 L 620,-52.3397 L 618.309,-53.5686 L 616.91,-55.1221 L 615.865,-56.9326 L 615.219,-58.9209
 L 615,-61 L 615.219,-63.0791 L 615.865,-65.0674 L 616.91,-66.8779 L 618.309,-68.4314 L 620,-69.6603
 L 621.91,-70.5106 L 623.955,-70.9452 L 626.045,-70.9452 L 628.09,-70.5106 L 630,-69.6603 L 631.691,-68.4314
 L 633.09,-66.8779 L 634.135,-65.0674 L 634.781,-63.0791 L 635,-61 L 634.781,-58.9209 L 634.135,-56.9326
 L 633.09,-55.1221 L 631.691,-53.5686 L 630,-52.3397 L 628.09,-51.4894 L 626.045,-51.0548 L 623.955,-51.0548
 z
M 671.91,-51.4894 L 670,-52.3397 L 668.309,-53.5686 L 666.91,-55.1221 L 665.865,-56.9326 L 665.219,-58.9209
 L 665,-61 L 665.219,-63.0791 L 665.865,-65.0674 L 666.91,-66.8779 L 668.309,-68.4314 L 670,-69.6603
 L 671.91,-70.5106 L 673.955,-70.9452 L 676.045,-70.9452 L 678.09,-70.5106 L 680,-69.6603 L 681.691,-68.4314
 L 683.09,-66.8779 L 684.135,-65.0674 L 684.781,-63.0791 L 685,-61 L 684.781,-58.9209 L 684.135,-56.9326
 L 683.09,-55.1221 L 681.691,-53.5686 L 680,-52.3397 L 678.09,-51.4894 L 676.045,-51.0548 L 673.955,-51.0548
 z
M 721.91,-51.4894 L 720,-52.3397 L 718.309,-53.5686 L 716.91,-55.1221 L 715.865,-56.9326 L 715.219,-58.9209
 L 715,-61 L 715.219,-63.0791 L 715.865,-65.0674 L 716.91,-66.8779 L 718.309,-68.4314 L 720,-69.6603
 L 721.91,-70.5106 L 723.955,-70.9452 L 726.045,-70.9452 L 728.09,-70.5106 L 730,-69.6603 L 731.691,-68.4314
 L 733.09,-66.8779 L 734.135,-65.0674 L 734.781,-63.0791 L 735,-61 L 734.781,-58.9209 L 734.135,-56.9326
 L 733.09,-55.1221 L 731.691,-53.5686 L 730,-52.3397 L 728.09,-51.4894 L 726.045,-51.0548 L 723.955,-51.0548
 z
M 771.91,-51.4894 L 770,-52.3397 L 768.309,-53.5686 L 766.91,-55.1221 L 765.865,-56.9326 L 765.219,-58.9209
 L 765,-61 L 765.219,-63.0791 L 765.865,-65.0674 L 766.91,-66.8779 L 768.309,-68.4314 L 770,-69.6603
 L 771.91,-70.5106 L 773.955,-70.9452 L 776.045,-70.9452 L 778.09,-70.5106 L 780,-69.6603 L 781.691,-68.4314
 L 783.09,-66.8779 L 784.135,-65.0674 L 784.781,-63.0791 L 785,-61 L 784.781,-58.9209 L 784.135,-56.9326
 L 783.09,-55.1221 L 781.691,-53.5686 L 780,-52.3397 L 778.09,-51.4894 L 776.045,-51.0548 L 773.955,-51.0548
 z
M 821.91,-51.4894 L 820,-52.3397 L 818.309,-53.5686 L 816.91,-55.1221 L 815.865,-56.9326 L 815.219,-58.9209
 L 815,-61 L 815.219,-63.0791 L 815.865,-65.0674 L 816.91,-66.8779 L 818.309,-68.4314 L 820,-69.6603
 L 821.91,-70.5106 L 823.955,-70.9452 L 826.045,-70.9452 L 828.09,-70.5106 L 830,-69.6603 L 831.691,-68.4314
 L 833.09,-66.8779 L 834.135,-65.0674 L 834.781,-63.0791 L 835,-61 L 834.781,-58.9209 L 834.135,-56.9326
 L 833.09,-55.1221 L 831.691,-53.5686 L 830,-52.3397 L 828.09,-51.4894 L 826.045,-51.0548 L 823.955,-51.0548
 z
M 871.91,-51.4894 L 870,-52.3397 L 868.309,-53.5686 L 866.91,-55.1221 L 865.865,-56.9326 L 865.219,-58.9209
 L 865,-61 L 865.219,-63.0791 L 865.865,-65.0674 L 866.91,-66.8779 L 868.309,-68.4314 L 870,-69.6603
 L 871.91,-70.5106 L 873.955,-70.9452 L 876.045,-70.9452 L 878.09,-70.5106 L 880,-69.6603 L 881.691,-68.4314
 L 883.09,-66.8779 L 884.135,-65.0674 L 884.781,-63.0791 L 885,-61 L 884.781,-58.9209 L 884.135,-56.9326
 L 883.09,-55.1221 L 881.691,-53.5686 L 880,-52.3397 L 878.09,-51.4894 L 876.045,-51.0548 L 873.955,-51.0548
 z
M 921.91,-51.4894 L 920,-52.3397 L 918.309,-53.5686 L 916.91,-55.1221 L 915.865,-56.9326 L 915.219,-58.9209
 L 915,-61 L 915.219,-63.0791 L 915.865,-65.0674 L 916.91,-66.8779 L 918.309,-68.4314 L 920,-69.6603
 L 921.91,-70.5106 L 923.955,-70.9452 L 926.045,-70.9452 L 928.09,-70.5106 L 930,-69.6603 L 931.691,-68.4314
 L 933.09,-66.8779 L 934.135,-65.0674 L 934.781,-63.0791 L 935,-61 L 934.781,-58.9209 L 934.135,-56.9326
 L 933.09,-55.1221 L 931.691,-53.5686 L 930,-52.3397 L 928.09,-51.4894 L 926.045,-51.0548 L 923.955,-51.0548
 z
M 971.91,-51.4894 L 970,-52.3397 L 968.309,-53.5686 L 966.91,-55.1221 L 965.865,-56.9326 L 965.219,-58.9209
 L 965,-61 L 965.219,-63.0791 L 965.865,-65.0674 L 966.91,-66.8779 L 968.309,-68.4314 L 970,-69.6603
 L 971.91,-70.5106 L 973.955,-70.9452 L 976.045,-70.9452 L 978.09,-70.5106 L 980,-69.6603 L 981.691,-68.4314
 L 983.09,-66.8779 L 984.135,-65.0674 L 984.781,-63.0791 L 985,-61 L 984.781,-58.9209 L 984.135,-56.9326
 L 983.09,-55.1221 L 981.691,-53.5686 L 980,-52.3397 L 978.09,-51.4894 L 976.045,-51.0548 L 973.955,-51.0548
 z
M 300,-40 L 256,-40 L 256,-20 L 250,-20 L 250,-40 L 206,-40
 L 206,-20 L 200,-20 L 200,-40 L 156,-40 L 156,-20 L 150,-20
 L 150,-40 L 106,-40 L 106,-20 L 100,-20 L 100,-40 L 56,-40
 L 56,-20 L 50,-20 L 50,-40 L 0,-40 L 0,-0 L 300,-0
 z
M 174.91,-10.4894 L 173,-11.3397 L 171.309,-12.5686 L 169.91,-14.1221 L 168.865,-15.9326 L 168.219,-17.9209
 L 168,-20 L 168.219,-22.0791 L 168.865,-24.0674 L 169.91,-25.8779 L 171.309,-27.4314 L 173,-28.6603
 L 174.91,-29.5106 L 176.955,-29.9452 L 179.045,-29.9452 L 181.09,-29.5106 L 183,-28.6603 L 184.691,-27.4314
 L 186.09,-25.8779 L 187.135,-24.0674 L 187.781,-22.0791 L 188,-20 L 187.781,-17.9209 L 187.135,-15.9326
 L 186.09,-14.1221 L 184.691,-12.5686 L 183,-11.3397 L 181.09,-10.4894 L 179.045,-10.0548 L 176.955,-10.0548
 z
M 271.91,-10.4894 L 270,-11.3397 L 268.309,-12.5686 L 266.91,-14.1221 L 265.865,-15.9326 L 265.219,-17.9209
 L 265,-20 L 265.219,-22.0791 L 265.865,-24.0674 L 266.91,-25.8779 L 268.309,-27.4314 L 270,-28.6603
 L 271.91,-29.5106 L 273.955,-29.9452 L 276.045,-29.9452 L 278.09,-29.5106 L 280,-28.6603 L 281.691,-27.4314
 L 283.09,-25.8779 L 284.135,-24.0674 L 284.781,-22.0791 L 285,-20 L 284.781,-17.9209 L 284.135,-15.9326
 L 283.09,-14.1221 L 281.691,-12.5686 L 280,-11.3397 L 278.09,-10.4894 L 276.045,-10.0548 L 273.955,-10.0548
 z
M 1000,-40 L 956,-40 L 956,-20 L 950,-20 L 950,-40 L 906,-40
 L 906,-20 L 900,-20 L 900,-40 L 856,-40 L 856,-20 L 850,-20
 L 850,-40 L 806,-40 L 806,-20 L 800,-20 L 800,-40 L 756,-40
 L 756,-20 L 750,-20 L 750,-40 L 706,-40 L 706,-20 L 700,-20
 L 700,-40 L 656,-40 L 656,-20 L 650,-20 L 650,-40 L 600,-40
 L 600,-0 L 1000,-0 z
M 621.91,-10.4894 L 620,-11.3397 L 618.309,-12.5686 L 616.91,-14.1221 L 615.865,-15.9326 L 615.219,-17.9209
 L 615,-20 L 615.219,-22.0791 L 615.865,-24.0674 L 616.91,-25.8779 L 618.309,-27.4314 L 620,-28.6603
 L 621.91,-29.5106 L 623.955,-29.9452 L 626.045,-29.9452 L 628.09,-29.5106 L 630,-28.6603 L 631.691,-27.4314
 L 633.09,-25.8779 L 634.135,-24.0674 L 634.781,-22.0791 L 635,-20 L 634.781,-17.9209 L 634.135,-15.9326
 L 633.09,-14.1221 L 631.691,-12.5686 L 630,-11.3397 L 628.09,-10.4894 L 626.045,-10.0548 L 623.955,-10.0548
 z
M 671.91,-10.4894 L 670,-11.3397 L 668.309,-12.5686 L 666.91,-14.1221 L 665.865,-15.9326 L 665.219,-17.9209
 L 665,-20 L 665.219,-22.0791 L 665.865,-24.0674 L 666.91,-25.8779 L 668.309,-27.4314 L 670,-28.6603
 L 671.91,-29.5106 L 673.955,-29.9452 L 676.045,-29.9452 L 678.09,-29.5106 L 680,-28.6603 L 681.691,-27.4314
 L 683.09,-25.8779 L 684.135,-24.0674 L 684.781,-22.0791 L 685,-20 L 684.781,-17.9209 L 684.135,-15.9326
 L 683.09,-14.1221 L 681.691,-12.5686 L 680,-11.3397 L 678.09,-10.4894 L 676.045,-10.0548 L 673.955,-10.0548
 z
M 721.91,-10.4894 L 720,-11.3397 L 718.309,-12.5686 L 716.91,-14.1221 L 715.865,-15.9326 L 715.219,-17.9209
 L 715,-20 L 715.219,-22.0791 L 715.865,-24.0674 L 716.91,-25.8779 L 718.309,-27.4314 L 720,-28.6603
 L 721.91,-29.5106 L 723.955,-29.9452 L 726.045,-29.9452 L 728.09,-29.5106 L 730,-28.6603 L 731.691,-27.4314
 L 733.09,-25.8779 L 734.135,-24.0674 L 734.781,-22.0791 L 735,-20 L 734.781,-17.9209 L 734.135,-15.9326
 L 733.09,-14.1221 L 731.691,-12.5686 L 730,-11.3397 L 728.09,-10.4894 L 726.045,-10.0548 L 723.955,-10.0548
 z
M 771.91,-10.4894 L 770,-11.3397 L 768.309,-12.5686 L 766.91,-14.1221 L 765.865,-15.9326 L 765.219,-17.9209
 L 765,-20 L 765.219,-22.0791 L 765.865,-24.0674 L 766.91,-25.8779 L 768.309,-27.4314 L 770,-28.6603
 L 771.91,-29.5106 L 773.955,-29.9452 L 776.045,-29.9452 L 778.09,-29.5106 L 780,-28.6603 L 781.691,-27.4314
 L 783.09,-25.8779 L 784.135,-24.0674 L 784.781,-22.0791 L 785,-20 L 784.781,-17.9209 L 784.135,-15.9326
 L 783.09,-14.1221 L 781.691,-12.5686 L 780,-11.3397 L 778.09,-10.4894 L 776.045,-10.0548 L 773.955,-10.0548
 z
M 821.91,-10.4894 L 820,-11.3397 L 818.309,-12.5686 L 816.91,-14.1221 L 815.865,-15.9326 L 815.219,-17.9209
 L 815,-20 L 815.219,-22.0791 L 815.865,-24.0674 L 816.91,-25.8779 L 818.309,-27.4314 L 820,-28.6603
 L 821.91,-29.5106 L 823.955,-29.9452 L 826.045,-29.9452 L 828.09,-29.5106 L 830,-28.6603 L 831.691,-27.4314
 L 833.09,-25.8779 L 834.135,-24.0674 L 834.781,-22.0791 L 835,-20 L 834.781,-17.9209 L 834.135,-15.9326
 L 833.09,-14.1221 L 831.691,-12.5686 L 830,-11.3397 L 828.09,-10.4894 L 826.045,-10.0548 L 823.955,-10.0548
 z
M 871.91,-10.4894 L 870,-11.3397 L 868.309,-12.5686 L 866.91,-14.1221 L 865.865,-15.9326 L 865.219,-17.9209
 L 865,-20 L 865.219,-22.0791 L 865.865,-24.0674 L 866.91,-25.8779 L 868.309,-27.4314 L 870,-28.6603
 L 871.91,-29.5106 L 873.955,-29.9452 L 876.045,-29.9452 L 878.09,-29.5106 L 880,-28.6603 L 881.691,-27.4314
 L 883.09,-25.8779 L 884.135,-24.0674 L 884.781,-22.0791 L 885,-20 L 884.781,-17.9209 L 884.135,-15.9326
 L 883.09,-14.1221 L 881.691,-12.5686 L 880,-11.3397 L 878.09,-10.4894 L 876.045,-10.0548 L 873.955,-10.0548
 z
M 921.91,-10.4894 L 920,-11.3397 L 918.309,-12.5686 L 916.91,-14.1221 L 915.865,-15.9326 L 915.219,-17.9209
 L 915,-20 L 915.219,-22.0791 L 915.865,-24.0674 L 916.91,-25.8779 L 918.309,-27.4314 L 920,-28.6603
 L 921.91,-29.5106 L 923.955,-29.9452 L 926.045,-29.9452 L 928.09,-29.5106 L 930,-28.6603 L 931.691,-27.4314
 L 933.09,-25.8779 L 934.135,-24.0674 L 934.781,-22.0791 L 935,-20 L 934.781,-17.9209 L 934.135,-15.9326
 L 933.09,-14.1221 L 931.691,-12.5686 L 930,-11.3397 L 928.09,-10.4894 L 926.045,-10.0548 L 923.955,-10.0548
 z
M 971.91,-10.4894 L 970,-11.3397 L 968.309,-12.5686 L 966.91,-14.1221 L 965.865,-15.9326 L 965.219,-17.9209
 L 965,-20 L 965.219,-22.0791 L 965.865,-24.0674 L 966.91,-25.8779 L 968.309,-27.4314 L 970,-28.6603
 L 971.91,-29.5106 L 973.955,-29.9452 L 976.045,-29.9452 L 978.09,-29.5106 L 980,-28.6603 L 981.691,-27.4314
 L 983.09,-25.8779 L 984.135,-24.0674 L 984.781,-22.0791 L 985,-20 L 984.781,-17.9209 L 984.135,-15.9326
 L 983.09,-14.1221 L 981.691,-12.5686 L 980,-11.3397 L 978.09,-10.4894 L 976.045,-10.0548 L 973.955,-10.0548
 z
" stroke="black" fill="lightgray" stroke-width="0.5"/>
</svg>
