<?xml version="1.0" standalone="no"?>
<!DOCTYPE svg PUBLIC "-//W3C//DTD SVG 1.1//EN" "http://www.w3.org/Graphics/SVG/1.1/DTD/svg11.dtd">
<svg width="1220mm" height="567mm" viewBox="0 -567 1220 567" xmlns="http://www.w3.org/2000/svg" version="1.1">
<title>OpenSCAD Model</title>
<path d="
M 430,-567 L 362.333,-567 L 362.333,-532 L 358.333,-532 L 358.333,-567 L 290.667,-567
 L 290.667,-532 L 286.667,-532 L 286.667,-567 L 219,-567 L 219,-532 L 215,-532
 L 215,-567 L 147.333,-567 L 147.333,-532 L 143.333,-532 L 143.333,-567 L 75.6667,-567
 L 75.6667,-532 L 71.6667,-532 L 71.6667,-567 L 0,-567 L 0,-497 L 430,-497
 z
M 29.653,-512.979 L 25.8333,-514.679 L 22.4507,-517.137 L 19.653,-520.244 L 17.5624,-523.865 L 16.2704,-527.842
 L 15.8333,-532 L 16.2704,-536.158 L 17.5624,-540.135 L 19.653,-543.756 L 22.4507,-546.863 L 25.8333,-549.321
 L 29.653,-551.021 L 33.7428,-551.89 L 37.9239,-551.89 L 42.0137,-551.021 L 45.8333,-549.321 L 49.2159,-546.863
 L 52.0137,-543.756 L 54.1042,-540.135 L 55.3963,-536.158 L 55.8333,-532 L 55.3963,-527.842 L 54.1042,-523.865
 L 52.0137,-520.244 L 49.2159,-517.137 L 45.8333,-514.679 L 42.0137,-512.979 L 37.9239,-512.11 L 33.7428,-512.11
 z
M 246.653,-512.979 L 242.833,-514.679 L 239.451,-517.137 L 236.653,-520.244 L 234.562,-523.865 L 233.27,-527.842
 L 232.833,-532 L 233.27,-536.158 L 234.562,-540.135 L 236.653,-543.756 L 239.451,-546.863 L 242.833,-549.321
 L 246.653,-551.021 L 250.743,-551.89 L 254.924,-551.89 L 259.014,-551.021 L 262.833,-549.321 L 266.216,-546.863
 L 269.014,-543.756 L 271.104,-540.135 L 272.396,-536.158 L 272.833,-532 L 272.396,-527.842 L 271.104,-523.865
 L 269.014,-520.244 L 266.216,-517.137 L 262.833,-514.679 L 259.014,-512.979 L 254.924,-512.11 L 250.743,-512.11
 z
M 430,-496 L 362.333,-496 L 362.333,-461 L 358.333,-461 L 358.333,-496 L 290.667,-496
 L 290.667,-461 L 286.667,-461 L 286.667,-496 L 219,-496 L 219,-461 L 215,-461
 L 215,-496 L 147.333,-496 L 147.333,-461 L 143.333,-461 L 143.333,-496 L 75.6667,-496
 L 75.6667,-461 L 71.6667,-461 L 71.6667,-496 L 0,-496 L 0,-426 L 430,-426
 z
M 246.653,-441.979 L 242.833,-443.679 L 239.451,-446.137 L 236.653,-449.244 L 234.562,-452.865 L 233.27,-456.842
 L 232.833,-461 L 233.27,-465.158 L 234.562,-469.135 L 236.653,-472.756 L 239.451,-475.863 L 242.833,-478.321
 L 246.653,-480.021 L 250.743,-480.89 L 254.924,-480.89 L 259.014,-480.021 L 262.833,-478.321 L 266.216,-475.863
 L 269.014,-472.756 L 271.104,-469.135 L 272.396,-465.158 L 272.833,-461 L 272.396,-456.842 L 271.104,-452.865
 L 269.014,-449.244 L 266.216,-446.137 L 262.833,-443.679 L 259.014,-441.979 L 254.924,-441.11 L 250.743,-441.11
 z
M 387.986,-441.979 L 384.167,-443.679 L 380.784,-446.137 L 377.986,-449.244 L 375.896,-452.865 L 374.604,-456.842
 L 374.167,-461 L 374.604,-465.158 L 375.896,-469.135 L 377.986,-472.756 L 380.784,-475.863 L 384.167,-478.321
 L 387.986,-480.021 L 392.076,-480.89 L 396.257,-480.89 L 400.347,-480.021 L 404.167,-478.321 L 407.549,-475.863
 L 410.347,-472.756 L 412.438,-469.135 L 413.73,-465.158 L 414.167,-461 L 413.73,-456.842 L 412.438,-452.865
 L 410.347,-449.244 L 407.549,-446.137 L 404.167,-443.679 L 400.347,-441.979 L 396.257,-441.11 L 392.076,-441.11
 z
M 430,-425 L 362.333,-425 L 362.333,-390 L 358.333,-390 L 358.333,-425 L 290.667,-425
 L 290.667,-390 L 286.667,-390 L 286.667,-425 L 219,-425 L 219,-390 L 215,-390
 L 215,-425 L 147.333,-425 L 147.333,-390 L 143.333,-390 L 143.333,-425 L 75.6667,-425
 L 75.6667,-390 L 71.6667,-390 L 71.6667,-425 L 0,-425 L 0,-355 L 430,-355
 z
M 29.653,-370.979 L 25.8333,-372.679 L 22.4507,-375.137 L 19.653,-378.244 L 17.5624,-381.865 L 16.2704,-385.842
 L 15.8333,-390 L 16.2704,-394.158 L 17.5624,-398.135 L 19.653,-401.756 L 22.4507,-404.863 L 25.8333,-407.321
 L 29.653,-409.021 L 33.7428,-409.89 L 37.9239,-409.89 L 42.0137,-409.021 L 45.8333,-407.321 L 49.2159,-404.863
 L 52.0137,-401.756 L 54.1042,-398.135 L 55.3963,-394.158 L 55.8333,-390 L 55.3963,-385.842 L 54.1042,-381.865
 L 52.0137,-378.244 L 49.2159,-375.137 L 45.8333,-372.679 L 42.0137,-370.979 L 37.9239,-370.11 L 33.7428,-370.11
 z
M 318.32,-370.979 L 314.5,-372.679 L 311.117,-375.137 L 308.32,-378.244 L 306.229,-381.865 L 304.937,-385.842
 L 304.5,-390 L 304.937,-394.158 L 306.229,-398.135 L 308.32,-401.756 L 311.117,-404.863 L 314.5,-407.321
 L 318.32,-409.021 L 322.409,-409.89 L 326.591,-409.89 L 330.68,-409.021 L 334.5,-407.321 L 337.883,-404.863
 L 340.68,-401.756 L 342.771,-398.135 L 344.063,-394.158 L 344.5,-390 L 344.063,-385.842 L 342.771,-381.865
 L 340.68,-378.244 L 337.883,-375.137 L 334.5,-372.679 L 330.68,-370.979 L 326.591,-370.11 L 322.409,-370.11
 z
M 430,-354 L 362.333,-354 L 362.333,-319 L 358.333,-319 L 358.333,-354 L 290.667,-354
 L 290.667,-319 L 286.667,-319 L 286.667,-354 L 219,-354 L 219,-319 L 215,-319
 L 215,-354 L 147.333,-354 L 147.333,-319 L 143.333,-319 L 143.333,-354 L 75.6667,-354
 L 75.6667,-319 L 71.6667,-319 L 71.6667,-354 L 0,-354 L 0,-284 L 430,-284
 z
M 246.653,-299.979 L 242.833,-301.679 L 239.451,-304.137 L 236.653,-307.244 L 234.562,-310.865 L 233.27,-314.842
 L 232.833,-319 L 233.27,-323.158 L 234.562,-327.135 L 236.653,-330.756 L 239.451,-333.863 L 242.833,-336.321
 L 246.653,-338.021 L 250.743,-338.89 L 254.924,-338.89 L 259.014,-338.021 L 262.833,-336.321 L 266.216,-333.863
 L 269.014,-330.756 L 271.104,-327.135 L 272.396,-323.158 L 272.833,-319 L 272.396,-314.842 L 271.104,-310.865
 L 269.014,-307.244 L 266.216,-304.137 L 262.833,-301.679 L 259.014,-299.979 L 254.924,-299.11 L 250.743,-299.11
 z
M 387.986,-299.979 L 384.167,-301.679 L 380.784,-304.137 L 377.986,-307.244 L 375.896,-310.865 L 374.604,-314.842
 L 374.167,-319 L 374.604,-323.158 L 375.896,-327.135 L 377.986,-330.756 L 380.784,-333.863 L 384.167,-336.321
 L 387.986,-338.021 L 392.076,-338.89 L 396.257,-338.89 L 400.347,-338.021 L 404.167,-336.321 L 407.549,-333.863
 L 410.347,-330.756 L 412.438,-327.135 L 413.73,-323.158 L 414.167,-319 L 413.73,-314.842 L 412.438,-310.865
 L 410.347,-307.244 L 407.549,-304.137 L 404.167,-301.679 L 400.347,-299.979 L 396.257,-299.11 L 392.076,-299.11
 z
M 1220,-354 L 1155.11,-354 L 1155.11,-319 L 1151.11,-319 L 1151.11,-354 L 1086.22,-354
 L 1086.22,-319 L 1082.22,-319 L 1082.22,-354 L 1017.33,-354 L 1017.33,-319 L 1013.33,-319
 L 1013.33,-354 L 948.444,-354 L 948.444,-319 L 944.444,-319 L 944.444,-354 L 879.556,-354
 L 879.556,-319 L 875.556,-319 L 875.556,-354 L 810.667,-354 L 810.667,-319 L 806.667,-319
 L 806.667,-354 L 741.778,-354 L 741.778,-319 L 737.778,-319 L 737.778,-354 L 672.889,-354
 L 672.889,-319 L 668.889,-319 L 668.889,-354 L 600,-354 L 600,-284 L 1220,-284
 z
M 629.653,-299.979 L 625.833,-301.679 L 622.451,-304.137 L 619.653,-307.244 L 617.562,-310.865 L 616.27,-314.842
 L 615.833,-319 L 616.27,-323.158 L 617.562,-327.135 L 619.653,-330.756 L 622.451,-333.863 L 625.833,-336.321
 L 629.653,-338.021 L 633.743,-338.89 L 637.924,-338.89 L 642.014,-338.021 L 645.833,-336.321 L 649.216,-333.863
 L 652.014,-330.756 L 654.104,-327.135 L 655.396,-323.158 L 655.833,-319 L 655.396,-314.842 L 654.104,-310.865
 L 652.014,-307.244 L 649.216,-304.137 L 645.833,-301.679 L 642.014,-299.979 L 637.924,-299.11 L 633.743,-299.11
 z
M 698.542,-299.979 L 694.722,-301.679 L 691.34,-304.137 L 688.542,-307.244 L 686.451,-310.865 L 685.159,-314.842
 L 684.722,-319 L 685.159,-323.158 L 686.451,-327.135 L 688.542,-330.756 L 691.34,-333.863 L 694.722,-336.321
 L 698.542,-338.021 L 702.632,-338.89 L 706.813,-338.89 L 710.903,-338.021 L 714.722,-336.321 L 718.105,-333.863
 L 720.903,-330.756 L 722.993,-327.135 L 724.285,-323.158 L 724.722,-319 L 724.285,-314.842 L 722.993,-310.865
 L 720.903,-307.244 L 718.105,-304.137 L 714.722,-301.679 L 710.903,-299.979 L 706.813,-299.11 L 702.632,-299.11
 z
M 767.431,-299.979 L 763.611,-301.679 L 760.228,-304.137 L 757.431,-307.244 L 755.34,-310.865 L 754.048,-314.842
 L 753.611,-319 L 754.048,-323.158 L 755.34,-327.135 L 757.431,-330.756 L 760.228,-333.863 L 763.611,-336.321
 L 767.431,-338.021 L 771.521,-338.89 L 775.702,-338.89 L 779.791,-338.021 L 783.611,-336.321 L 786.994,-333.863
 L 789.791,-330.756 L 791.882,-327.135 L 793.174,-323.158 L 793.611,-319 L 793.174,-314.842 L 791.882,-310.865
 L 789.791,-307.244 L 786.994,-304.137 L 783.611,-301.679 L 779.791,-299.979 L 775.702,-299.11 L 771.521,-299.11
 z
M 836.32,-299.979 L 832.5,-301.679 L 829.117,-304.137 L 826.32,-307.244 L 824.229,-310.865 L 822.937,-314.842
 L 822.5,-319 L 822.937,-323.158 L 824.229,-327.135 L 826.32,-330.756 L 829.117,-333.863 L 832.5,-336.321
 L 836.32,-338.021 L 840.409,-338.89 L 844.591,-338.89 L 848.68,-338.021 L 852.5,-336.321 L 855.883,-333.863
 L 858.68,-330.756 L 860.771,-327.135 L 862.063,-323.158 L 862.5,-319 L 862.063,-314.842 L 860.771,-310.865
 L 858.68,-307.244 L 855.883,-304.137 L 852.5,-301.679 L 848.68,-299.979 L 844.591,-299.11 L 840.409,-299.11
 z
M 905.209,-299.979 L 901.389,-301.679 L 898.006,-304.137 L 895.209,-307.244 L 893.118,-310.865 L 891.826,-314.842
 L 891.389,-319 L 891.826,-323.158 L 893.118,-327.135 L 895.209,-330.756 L 898.006,-333.863 L 901.389,-336.321
 L 905.209,-338.021 L 909.298,-338.89 L 913.479,-338.89 L 917.569,-338.021 L 921.389,-336.321 L 924.772,-333.863
 L 927.569,-330.756 L 929.66,-327.135 L 930.952,-323.158 L 931.389,-319 L 930.952,-314.842 L 929.66,-310.865
 L 927.569,-307.244 L 924.772,-304.137 L 921.389,-301.679 L 917.569,-299.979 L 913.479,-299.11 L 909.298,-299.11
 z
M 974.097,-299.979 L 970.278,-301.679 L 966.895,-304.137 L 964.097,-307.244 L 962.007,-310.865 L 960.715,-314.842
 L 960.278,-319 L 960.715,-323.158 L 962.007,-327.135 L 964.097,-330.756 L 966.895,-333.863 L 970.278,-336.321
 L 974.097,-338.021 L 978.187,-338.89 L 982.368,-338.89 L 986.458,-338.021 L 990.278,-336.321 L 993.66,-333.863
 L 996.458,-330.756 L 998.549,-327.135 L 999.841,-323.158 L 1000.28,-319 L 999.841,-314.842 L 998.549,-310.865
 L 996.458,-307.244 L 993.66,-304.137 L 990.278,-301.679 L 986.458,-299.979 L 982.368,-299.11 L 978.187,-299.11
 z
M 1042.99,-299.979 L 1039.17,-301.679 L 1035.78,-304.137 L 1032.99,-307.244 L 1030.9,-310.865 L 1029.6,-314.842
 L 1029.17,-319 L 1029.6,-323.158 L 1030.9,-327.135 L 1032.99,-330.756 L 1035.78,-333.863 L 1039.17,-336.321
 L 1042.99,-338.021 L 1047.08,-338.89 L 1051.26,-338.89 L 1055.35,-338.021 L 1059.17,-336.321 L 1062.55,-333.863
 L 1065.35,-330.756 L 1067.44,-327.135 L 1068.73,-323.158 L 1069.17,-319 L 1068.73,-314.842 L 1067.44,-310.865
 L 1065.35,-307.244 L 1062.55,-304.137 L 1059.17,-301.679 L 1055.35,-299.979 L 1051.26,-299.11 L 1047.08,-299.11
 z
M 1111.88,-299.979 L 1108.06,-301.679 L 1104.67,-304.137 L 1101.88,-307.244 L 1099.78,-310.865 L 1098.49,-314.842
 L 1098.06,-319 L 1098.49,-323.158 L 1099.78,-327.135 L 1101.88,-330.756 L 1104.67,-333.863 L 1108.06,-336.321
 L 1111.88,-338.021 L 1115.96,-338.89 L 1120.15,-338.89 L 1124.24,-338.021 L 1128.06,-336.321 L 1131.44,-333.863
 L 1134.24,-330.756 L 1136.33,-327.135 L 1137.62,-323.158 L 1138.06,-319 L 1137.62,-314.842 L 1136.33,-310.865
 L 1134.24,-307.244 L 1131.44,-304.137 L 1128.06,-301.679 L 1124.24,-299.979 L 1120.15,-299.11 L 1115.96,-299.11
 z
M 1180.76,-299.979 L 1176.94,-301.679 L 1173.56,-304.137 L 1170.76,-307.244 L 1168.67,-310.865 L 1167.38,-314.842
 L 1166.94,-319 L 1167.38,-323.158 L 1168.67,-327.135 L 1170.76,-330.756 L 1173.56,-333.863 L 1176.94,-336.321
 L 1180.76,-338.021 L 1184.85,-338.89 L 1189.04,-338.89 L 1193.12,-338.021 L 1196.94,-336.321 L 1200.33,-333.863
 L 1203.12,-330.756 L 1205.22,-327.135 L 1206.51,-323.158 L 1206.94,-319 L 1206.51,-314.842 L 1205.22,-310.865
 L 1203.12,-307.244 L 1200.33,-304.137 L 1196.94,-301.679 L 1193.12,-299.979 L 1189.04,-299.11 L 1184.85,-299.11
 z
M 430,-283 L 362.333,-283 L 362.333,-248 L 358.333,-248 L 358.333,-283 L 290.667,-283
 L 290.667,-248 L 286.667,-248 L 286.667,-283 L 219,-283 L 219,-248 L 215,-248
 L 215,-283 L 147.333,-283 L 147.333,-248 L 143.333,-248 L 143.333,-283 L 75.6667,-283
 L 75.6667,-248 L 71.6667,-248 L 71.6667,-283 L 0,-283 L 0,-213 L 430,-213
 z
M 29.653,-228.979 L 25.8333,-230.679 L 22.4507,-233.137 L 19.653,-236.244 L 17.5624,-239.865 L 16.2704,-243.842
 L 15.8333,-248 L 16.2704,-252.158 L 17.5624,-256.135 L 19.653,-259.756 L 22.4507,-262.863 L 25.8333,-265.321
 L 29.653,-267.021 L 33.7428,-267.89 L 37.9239,-267.89 L 42.0137,-267.021 L 45.8333,-265.321 L 49.2159,-262.863
 L 52.0137,-259.756 L 54.1042,-256.135 L 55.3963,-252.158 L 55.8333,-248 L 55.3963,-243.842 L 54.1042,-239.865
 L 52.0137,-236.244 L 49.2159,-233.137 L 45.8333,-230.679 L 42.0137,-228.979 L 37.9239,-228.11 L 33.7428,-228.11
 z
M 318.32,-228.979 L 314.5,-230.679 L 311.117,-233.137 L 308.32,-236.244 L 306.229,-239.865 L 304.937,-243.842
 L 304.5,-248 L 304.937,-252.158 L 306.229,-256.135 L 308.32,-259.756 L 311.117,-262.863 L 314.5,-265.321
 L 318.32,-267.021 L 322.409,-267.89 L 326.591,-267.89 L 330.68,-267.021 L 334.5,-265.321 L 337.883,-262.863
 L 340.68,-259.756 L 342.771,-256.135 L 344.063,-252.158 L 344.5,-248 L 344.063,-243.842 L 342.771,-239.865
 L 340.68,-236.244 L 337.883,-233.137 L 334.5,-230.679 L 330.68,-228.979 L 326.591,-228.11 L 322.409,-228.11
 z
M 1220,-283 L 1155.11,-283 L 1155.11,-248 L 1151.11,-248 L 1151.11,-283 L 1086.22,-283
 L 1086.22,-248 L 1082.22,-248 L 1082.22,-283 L 1017.33,-283 L 1017.33,-248 L 1013.33,-248
 L 1013.33,-283 L 948.444,-283 L 948.444,-248 L 944.444,-248 L 944.444,-283 L 879.556,-283
 L 879.556,-248 L 875.556,-248 L 875.556,-283 L 810.667,-283 L 810.667,-248 L 806.667,-248
 L 806.667,-283 L 741.778,-283 L 741.778,-248 L 737.778,-248 L 737.778,-283 L 672.889,-283
 L 672.889,-248 L 668.889,-248 L 668.889,-283 L 600,-283 L 600,-213 L 1220,-213
 z
M 629.653,-228.979 L 625.833,-230.679 L 622.451,-233.137 L 619.653,-236.244 L 617.562,-239.865 L 616.27,-243.842
 L 615.833,-248 L 616.27,-252.158 L 617.562,-256.135 L 619.653,-259.756 L 622.451,-262.863 L 625.833,-265.321
 L 629.653,-267.021 L 633.743,-267.89 L 637.924,-267.89 L 642.014,-267.021 L 645.833,-265.321 L 649.216,-262.863
 L 652.014,-259.756 L 654.104,-256.135 L 655.396,-252.158 L 655.833,-248 L 655.396,-243.842 L 654.104,-239.865
 L 652.014,-236.244 L 649.216,-233.137 L 645.833,-230.679 L 642.014,-228.979 L 637.924,-228.11 L 633.743,-228.11
 z
M 698.542,-228.979 L 694.722,-230.679 L 691.34,-233.137 L 688.542,-236.244 L 686.451,-239.865 L 685.159,-243.842
 L 684.722,-248 L 685.159,-252.158 L 686.451,-256.135 L 688.542,-259.756 L 691.34,-262.863 L 694.722,-265.321
 L 698.542,-267.021 L 702.632,-267.89 L 706.813,-267.89 L 710.903,-267.021 L 714.722,-265.321 L 718.105,-262.863
 L 720.903,-259.756 L 722.993,-256.135 L 724.285,-252.158 L 724.722,-248 L 724.285,-243.842 L 722.993,-239.865
 L 720.903,-236.244 L 718.105,-233.137 L 714.722,-230.679 L 710.903,-228.979 L 706.813,-228.11 L 702.632,-228.11
 z
M 767.431,-228.979 L 763.611,-230.679 L 760.228,-233.137 L 757.431,-236.244 L 755.34,-239.865 L 754.048,-243.842
 L 753.611,-248 L 754.048,-252.158 L 755.34,-256.135 L 757.431,-259.756 L 760.228,-262.863 L 763.611,-265.321
 L 767.431,-267.021 L 771.521,-267.89 L 775.702,-267.89 L 779.791,-267.021 L 783.611,-265.321 L 786.994,-262.863
 L 789.791,-259.756 L 791.882,-256.135 L 793.174,-252.158 L 793.611,-248 L 793.174,-243.842 L 791.882,-239.865
 L 789.791,-236.244 L 786.994,-233.137 L 783.611,-230.679 L 779.791,-228.979 L 775.702,-228.11 L 771.521,-228.11
 z
M 836.32,-228.979 L 832.5,-230.679 L 829.117,-233.137 L 826.32,-236.244 L 824.229,-239.865 L 822.937,-243.842
 L 822.5,-248 L 822.937,-252.158 L 824.229,-256.135 L 826.32,-259.756 L 829.117,-262.863 L 832.5,-265.321
 L 836.32,-267.021 L 840.409,-267.89 L 844.591,-267.89 L 848.68,-267.021 L 852.5,-265.321 L 855.883,-262.863
 L 858.68,-259.756 L 860.771,-256.135 L 862.063,-252.158 L 862.5,-248 L 862.063,-243.842 L 860.771,-239.865
 L 858.68,-236.244 L 855.883,-233.137 L 852.5,-230.679 L 848.68,-228.979 L 844.591,-228.11 L 840.409,-228.11
 z
M 905.209,-228.979 L 901.389,-230.679 L 898.006,-233.137 L 895.209,-236.244 L 893.118,-239.865 L 891.826,-243.842
 L 891.389,-248 L 891.826,-252.158 L 893.118,-256.135 L 895.209,-259.756 L 898.006,-262.863 L 901.389,-265.321
 L 905.209,-267.021 L 909.298,-267.89 L 913.479,-267.89 L 917.569,-267.021 L 921.389,-265.321 L 924.772,-262.863
 L 927.569,-259.756 L 929.66,-256.135 L 930.952,-252.158 L 931.389,-248 L 930.952,-243.842 L 929.66,-239.865
 L 927.569,-236.244 L 924.772,-233.137 L 921.389,-230.679 L 917.569,-228.979 L 913.479,-228.11 L 909.298,-228.11
 z
M 974.097,-228.979 L 970.278,-230.679 L 966.895,-233.137 L 964.097,-236.244 L 962.007,-239.865 L 960.715,-243.842
 L 960.278,-248 L 960.715,-252.158 L 962.007,-256.135 L 964.097,-259.756 L 966.895,-262.863 L 970.278,-265.321
 L 974.097,-267.021 L 978.187,-267.89 L 982.368,-267.89 L 986.458,-267.021 L 990.278,-265.321 L 993.66,-262.863
 L 996.458,-259.756 L 998.549,-256.135 L 999.841,-252.158 L 1000.28,-248 L 999.841,-243.842 L 998.549,-239.865
 L 996.458,-236.244 L 993.66,-233.137 L 990.278,-230.679 L 986.458,-228.979 L 982.368,-228.11 L 978.187,-228.11
 z
M 1042.99,-228.979 L 1039.17,-230.679 L 1035.78,-233.137 L 1032.99,-236.244 L 1030.9,-239.865 L 1029.6,-243.842
 L 1029.17,-248 L 1029.6,-252.158 L 1030.9,-256.135 L 1032.99,-259.756 L 1035.78,-262.863 L 1039.17,-265.321
 L 1042.99,-267.021 L 1047.08,-267.89 L 1051.26,-267.89 L 1055.35,-267.021 L 1059.17,-265.321 L 1062.55,-262.863
 L 1065.35,-259.756 L 1067.44,-256.135 L 1068.73,-252.158 L 1069.17,-248 L 1068.73,-243.842 L 1067.44,-239.865
 L 1065.35,-236.244 L 1062.55,-233.137 L 1059.17,-230.679 L 1055.35,-228.979 L 1051.26,-228.11 L 1047.08,-228.11
 z
M 1111.88,-228.979 L 1108.06,-230.679 L 1104.67,-233.137 L 1101.88,-236.244 L 1099.78,-239.865 L 1098.49,-243.842
 L 1098.06,-248 L 1098.49,-252.158 L 1099.78,-256.135 L 1101.88,-259.756 L 1104.67,-262.863 L 1108.06,-265.321
 L 1111.88,-267.021 L 1115.96,-267.89 L 1120.15,-267.89 L 1124.24,-267.021 L 1128.06,-265.321 L 1131.44,-262.863
 L 1134.24,-259.756 L 1136.33,-256.135 L 1137.62,-252.158 L 1138.06,-248 L 1137.62,-243.842 L 1136.33,-239.865
 L 1134.24,-236.244 L 1131.44,-233.137 L 1128.06,-230.679 L 1124.24,-228.979 L 1120.15,-228.11 L 1115.96,-228.11
 z
M 1180.76,-228.979 L 1176.94,-230.679 L 1173.56,-233.137 L 1170.76,-236.244 L 1168.67,-239.865 L 1167.38,-243.842
 L 1166.94,-248 L 1167.38,-252.158 L 1168.67,-256.135 L 1170.76,-259.756 L 1173.56,-262.863 L 1176.94,-265.321
 L 1180.76,-267.021 L 1184.85,-267.89 L 1189.04,-267.89 L 1193.12,-267.021 L 1196.94,-265.321 L 1200.33,-262.863
 L 1203.12,-259.756 L 1205.22,-256.135 L 1206.51,-252.158 L 1206.94,-248 L 1206.51,-243.842 L 1205.22,-239.865
 L 1203.12,-236.244 L 1200.33,-233.137 L 1196.94,-230.679 L 1193.12,-228.979 L 1189.04,-228.11 L 1184.85,-228.11
 z
M 430,-212 L 362.333,-212 L 362.333,-177 L 358.333,-177 L 358.333,-212 L 290.667,-212
 L 290.667,-177 L 286.667,-177 L 286.667,-212 L 219,-212 L 219,-177 L 215,-177
 L 215,-212 L 147.333,-212 L 147.333,-177 L 143.333,-177 L 143.333,-212 L 75.6667,-212
 L 75.6667,-177 L 71.6667,-177 L 71.6667,-212 L 0,-212 L 0,-142 L 430,-142
 z
M 103.32,-157.979 L 99.5,-159.679 L 96.1174,-162.137 L 93.3197,-165.244 L 91.2291,-168.865 L 89.937,-172.842
 L 89.5,-177 L 89.937,-181.158 L 91.2291,-185.135 L 93.3197,-188.756 L 96.1174,-191.863 L 99.5,-194.321
 L 103.32,-196.021 L 107.409,-196.89 L 111.591,-196.89 L 115.68,-196.021 L 119.5,-194.321 L 122.883,-191.863
 L 125.68,-188.756 L 127.771,-185.135 L 129.063,-181.158 L 129.5,-177 L 129.063,-172.842 L 127.771,-168.865
 L 125.68,-165.244 L 122.883,-162.137 L 119.5,-159.679 L 115.68,-157.979 L 111.591,-157.11 L 107.409,-157.11
 z
M 387.986,-157.979 L 384.167,-159.679 L 380.784,-162.137 L 377.986,-165.244 L 375.896,-168.865 L 374.604,-172.842
 L 374.167,-177 L 374.604,-181.158 L 375.896,-185.135 L 377.986,-188.756 L 380.784,-191.863 L 384.167,-194.321
 L 387.986,-196.021 L 392.076,-196.89 L 396.257,-196.89 L 400.347,-196.021 L 404.167,-194.321 L 407.549,-191.863
 L 410.347,-188.756 L 412.438,-185.135 L 413.73,-181.158 L 414.167,-177 L 413.73,-172.842 L 412.438,-168.865
 L 410.347,-165.244 L 407.549,-162.137 L 404.167,-159.679 L 400.347,-157.979 L 396.257,-157.11 L 392.076,-157.11
 z
M 1220,-212 L 1155.11,-212 L 1155.11,-177 L 1151.11,-177 L 1151.11,-212 L 1086.22,-212
 L 1086.22,-177 L 1082.22,-177 L 1082.22,-212 L 1017.33,-212 L 1017.33,-177 L 1013.33,-177
 L 1013.33,-212 L 948.444,-212 L 948.444,-177 L 944.444,-177 L 944.444,-212 L 879.556,-212
 L 879.556,-177 L 875.556,-177 L 875.556,-212 L 810.667,-212 L 810.667,-177 L 806.667,-177
 L 806.667,-212 L 741.778,-212 L 741.778,-177 L 737.778,-177 L 737.778,-212 L 672.889,-212
 L 672.889,-177 L 668.889,-177 L 668.889,-212 L 600,-212 L 600,-142 L 1220,-142
 z
M 629.653,-157.979 L 625.833,-159.679 L 622.451,-162.137 L 619.653,-165.244 L 617.562,-168.865 L 616.27,-172.842
 L 615.833,-177 L 616.27,-181.158 L 617.562,-185.135 L 619.653,-188.756 L 622.451,-191.863 L 625.833,-194.321
 L 629.653,-196.021 L 633.743,-196.89 L 637.924,-196.89 L 642.014,-196.021 L 645.833,-194.321 L 649.216,-191.863
 L 652.014,-188.756 L 654.104,-185.135 L 655.396,-181.158 L 655.833,-177 L 655.396,-172.842 L 654.104,-168.865
 L 652.014,-165.244 L 649.216,-162.137 L 645.833,-159.679 L 642.014,-157.979 L 637.924,-157.11 L 633.743,-157.11
 z
M 698.542,-157.979 L 694.722,-159.679 L 691.34,-162.137 L 688.542,-165.244 L 686.451,-168.865 L 685.159,-172.842
 L 684.722,-177 L 685.159,-181.158 L 686.451,-185.135 L 688.542,-188.756 L 691.34,-191.863 L 694.722,-194.321
 L 698.542,-196.021 L 702.632,-196.89 L 706.813,-196.89 L 710.903,-196.021 L 714.722,-194.321 L 718.105,-191.863
 L 720.903,-188.756 L 722.993,-185.135 L 724.285,-181.158 L 724.722,-177 L 724.285,-172.842 L 722.993,-168.865
 L 720.903,-165.244 L 718.105,-162.137 L 714.722,-159.679 L 710.903,-157.979 L 706.813,-157.11 L 702.632,-157.11
 z
M 767.431,-157.979 L 763.611,-159.679 L 760.228,-162.137 L 757.431,-165.244 L 755.34,-168.865 L 754.048,-172.842
 L 753.611,-177 L 754.048,-181.158 L 755.34,-185.135 L 757.431,-188.756 L 760.228,-191.863 L 763.611,-194.321
 L 767.431,-196.021 L 771.521,-196.89 L 775.702,-196.89 L 779.791,-196.021 L 783.611,-194.321 L 786.994,-191.863
 L 789.791,-188.756 L 791.882,-185.135 L 793.174,-181.158 L 793.611,-177 L 793.174,-172.842 L 791.882,-168.865
 L 789.791,-165.244 L 786.994,-162.137 L 783.611,-159.679 L 779.791,-157.979 L 775.702,-157.11 L 771.521,-157.11
 z
M 836.32,-157.979 L 832.5,-159.679 L 829.117,-162.137 L 826.32,-165.244 L 824.229,-168.865 L 822.937,-172.842
 L 822.5,-177 L 822.937,-181.158 L 824.229,-185.135 L 826.32,-188.756 L 829.117,-191.863 L 832.5,-194.321
 L 836.32,-196.021 L 840.409,-196.89 L 844.591,-196.89 L 848.68,-196.021 L 852.5,-194.321 L 855.883,-191.863
 L 858.68,-188.756 L 860.771,-185.135 L 862.063,-181.158 L 862.5,-177 L 862.063,-172.842 L 860.771,-168.865
 L 858.68,-165.244 L 855.883,-162.137 L 852.5,-159.679 L 848.68,-157.979 L 844.591,-157.11 L 840.409,-157.11
 z
M 905.209,-157.979 L 901.389,-159.679 L 898.006,-162.137 L 895.209,-165.244 L 893.118,-168.865 L 891.826,-172.842
 L 891.389,-177 L 891.826,-181.158 L 893.118,-185.135 L 895.209,-188.756 L 898.006,-191.863 L 901.389,-194.321
 L 905.209,-196.021 L 909.298,-196.89 L 913.479,-196.89 L 917.569,-196.021 L 921.389,-194.321 L 924.772,-191.863
 L 927.569,-188.756 L 929.66,-185.135 L 930.952,-181.158 L 931.389,-177 L 930.952,-172.842 L 929.66,-168.865
 L 927.569,-165.244 L 924.772,-162.137 L 921.389,-159.679 L 917.569,-157.979 L 913.479,-157.11 L 909.298,-157.11
 z
M 974.097,-157.979 L 970.278,-159.679 L 966.895,-162.137 L 964.097,-165.244 L 962.007,-168.865 L 960.715,-172.842
 L 960.278,-177 L 960.715,-181.158 L 962.007,-185.135 L 964.097,-188.756 L 966.895,-191.863 L 970.278,-194.321
 L 974.097,-196.021 L 978.187,-196.89 L 982.368,-196.89 L 986.458,-196.021 L 990.278,-194.321 L 993.66,-191.863
 L 996.458,-188.756 L 998.549,-185.135 L 999.841,-181.158 L 1000.28,-177 L 999.841,-172.842 L 998.549,-168.865
 L 996.458,-165.244 L 993.66,-162.137 L 990.278,-159.679 L 986.458,-157.979 L 982.368,-157.11 L 978.187,-157.11
 z
M 1042.99,-157.979 L 1039.17,-159.679 L 1035.78,-162.137 L 1032.99,-165.244 L 1030.9,-168.865 L 1029.6,-172.842
 L 1029.17,-177 L 1029.6,-181.158 L 1030.9,-185.135 L 1032.99,-188.756 L 1035.78,-191.863 L 1039.17,-194.321
 L 1042.99,-196.021 L 1047.08,-196.89 L 1051.26,-196.89 L 1055.35,-196.021 L 1059.17,-194.321 L 1062.55,-191.863
 L 1065.35,-188.756 L 1067.44,-185.135 L 1068.73,-181.158 L 1069.17,-177 L 1068.73,-172.842 L 1067.44,-168.865
 L 1065.35,-165.244 L 1062.55,-162.137 L 1059.17,-159.679 L 1055.35,-157.979 L 1051.26,-157.11 L 1047.08,-157.11
 z
M 1111.88,-157.979 L 1108.06,-159.679 L 1104.67,-162.137 L 1101.88,-165.244 L 1099.78,-168.865 L 1098.49,-172.842
 L 1098.06,-177 L 1098.49,-181.158 L 1099.78,-185.135 L 1101.88,-188.756 L 1104.67,-191.863 L 1108.06,-194.321
 L 1111.88,-196.021 L 1115.96,-196.89 L 1120.15,-196.89 L 1124.24,-196.021 L 1128.06,-194.321 L 1131.44,-191.863
 L 1134.24,-188.756 L 1136.33,-185.135 L 1137.62,-181.158 L 1138.06,-177 L 1137.62,-172.842 L 1136.33,-168.865
 L 1134.24,-165.244 L 1131.44,-162.137 L 1128.06,-159.679 L 1124.24,-157.979 L 1120.15,-157.11 L 1115.96,-157.11
 z
M 1180.76,-157.979 L 1176.94,-159.679 L 1173.56,-162.137 L 1170.76,-165.244 L 1168.67,-168.865 L 1167.38,-172.842
 L 1166.94,-177 L 1167.38,-181.158 L 1168.67,-185.135 L 1170.76,-188.756 L 1173.56,-191.863 L 1176.94,-194.321
 L 1180.76,-196.021 L 1184.85,-196.89 L 1189.04,-196.89 L 1193.12,-196.021 L 1196.94,-194.321 L 1200.33,-191.863
 L 1203.12,-188.756 L 1205.22,-185.135 L 1206.51,-181.158 L 1206.94,-177 L 1206.51,-172.842 L 1205.22,-168.865
 L 1203.12,-165.244 L 1200.33,-162.137 L 1196.94,-159.679 L 1193.12,-157.979 L 1189.04,-157.11 L 1184.85,-157.11
 z
M 430,-141 L 362.333,-141 L 362.333,-106 L 358.333,-106 L 358.333,-141 L 290.667,-141
 L 290.667,-106 L 286.667,-106 L 286.667,-141 L 219,-141 L 219,-106 L 215,-106
 L 215,-141 L 147.333,-141 L 147.333,-106 L 143.333,-106 L 143.333,-141 L 75.6667,-141
 L 75.6667,-106 L 71.6667,-106 L 71.6667,-141 L 0,-141 L 0,-71 L 430,-71
 z
M 29.653,-86.9789 L 25.8333,-88.6795 L 22.4507,-91.1371 L 19.653,-94.2443 L 17.5624,-97.8653 L 16.2704,-101.842
 L 15.8333,-106 L 16.2704,-110.158 L 17.5624,-114.135 L 19.653,-117.756 L 22.4507,-120.863 L 25.8333,-123.321
 L 29.653,-125.021 L 33.7428,-125.89 L 37.9239,-125.89 L 42.0137,-125.021 L 45.8333,-123.321 L 49.2159,-120.863
 L 52.0137,-117.756 L 54.1042,-114.135 L 55.3963,-110.158 L 55.8333,-106 L 55.3963,-101.842 L 54.1042,-97.8653
 L 52.0137,-94.2443 L 49.2159,-91.1371 L 45.8333,-88.6795 L 42.0137,-86.9789 L 37.9239,-86.1096 L 33.7428,-86.1096
 z
M 318.32,-86.9789 L 314.5,-88.6795 L 311.117,-91.1371 L 308.32,-94.2443 L 306.229,-97.8653 L 304.937,-101.842
 L 304.5,-106 L 304.937,-110.158 L 306.229,-114.135 L 308.32,-117.756 L 311.117,-120.863 L 314.5,-123.321
 L 318.32,-125.021 L 322.409,-125.89 L 326.591,-125.89 L 330.68,-125.021 L 334.5,-123.321 L 337.883,-120.863
 L 340.68,-117.756 L 342.771,-114.135 L 344.063,-110.158 L 344.5,-106 L 344.063,-101.842 L 342.771,-97.8653
 L 340.68,-94.2443 L 337.883,-91.1371 L 334.5,-88.6795 L 330.68,-86.9789 L 326.591,-86.1096 L 322.409,-86.1096
 z
M 1220,-141 L 1155.11,-141 L 1155.11,-106 L 1151.11,-106 L 1151.11,-141 L 1086.22,-141
 L 1086.22,-106 L 1082.22,-106 L 1082.22,-141 L 1017.33,-141 L 1017.33,-106 L 1013.33,-106
 L 1013.33,-141 L 948.444,-141 L 948.444,-106 L 944.444,-106 L 944.444,-141 L 879.556,-141
 L 879.556,-106 L 875.556,-106 L 875.556,-141 L 810.667,-141 L 810.667,-106 L 806.667,-106
 L 806.667,-141 L 741.778,-141 L 741.778,-106 L 737.778,-106 L 737.778,-141 L 672.889,-141
 L 672.889,-106 L 668.889,-106 L 668.889,-141 L 600,-141 L 600,-71 L 1220,-71
 z
M 629.653,-86.9789 L 625.833,-88.6795 L 622.451,-91.1371 L 619.653,-94.2443 L 617.562,-97.8653 L 616.27,-101.842
 L 615.833,-106 L 616.27,-110.158 L 617.562,-114.135 L 619.653,-117.756 L 622.451,-120.863 L 625.833,-123.321
 L 629.653,-125.021 L 633.743,-125.89 L 637.924,-125.89 L 642.014,-125.021 L 645.833,-123.321 L 649.216,-120.863
 L 652.014,-117.756 L 654.104,-114.135 L 655.396,-110.158 L 655.833,-106 L 655.396,-101.842 L 654.104,-97.8653
 L 652.014,-94.2443 L 649.216,-91.1371 L 645.833,-88.6795 L 642.014,-86.9789 L 637.924,-86.1096 L 633.743,-86.1096
 z
M 698.542,-86.9789 L 694.722,-88.6795 L 691.34,-91.1371 L 688.542,-94.2443 L 686.451,-97.8653 L 685.159,-101.842
 L 684.722,-106 L 685.159,-110.158 L 686.451,-114.135 L 688.542,-117.756 L 691.34,-120.863 L 694.722,-123.321
 L 698.542,-125.021 L 702.632,-125.89 L 706.813,-125.89 L 710.903,-125.021 L 714.722,-123.321 L 718.105,-120.863
 L 720.903,-117.756 L 722.993,-114.135 L 724.285,-110.158 L 724.722,-106 L 724.285,-101.842 L 722.993,-97.8653
 L 720.903,-94.2443 L 718.105,-91.1371 L 714.722,-88.6795 L 710.903,-86.9789 L 706.813,-86.1096 L 702.632,-86.1096
 z
M 767.431,-86.9789 L 763.611,-88.6795 L 760.228,-91.1371 L 757.431,-94.2443 L 755.34,-97.8653 L 754.048,-101.842
 L 753.611,-106 L 754.048,-110.158 L 755.34,-114.135 L 757.431,-117.756 L 760.228,-120.863 L 763.611,-123.321
 L 767.431,-125.021 L 771.521,-125.89 L 775.702,-125.89 L 779.791,-125.021 L 783.611,-123.321 L 786.994,-120.863
 L 789.791,-117.756 L 791.882,-114.135 L 793.174,-110.158 L 793.611,-106 L 793.174,-101.842 L 791.882,-97.8653
 L 789.791,-94.2443 L 786.994,-91.1371 L 783.611,-88.6795 L 779.791,-86.9789 L 775.702,-86.1096 L 771.521,-86.1096
 z
M 836.32,-86.9789 L 832.5,-88.6795 L 829.117,-91.1371 L 826.32,-94.2443 L 824.229,-97.8653 L 822.937,-101.842
 L 822.5,-106 L 822.937,-110.158 L 824.229,-114.135 L 826.32,-117.756 L 829.117,-120.863 L 832.5,-123.321
 L 836.32,-125.021 L 840.409,-125.89 L 844.591,-125.89 L 848.68,-125.021 L 852.5,-123.321 L 855.883,-120.863
 L 858.68,-117.756 L 860.771,-114.135 L 862.063,-110.158 L 862.5,-106 L 862.063,-101.842 L 860.771,-97.8653
 L 858.68,-94.2443 L 855.883,-91.1371 L 852.5,-88.6795 L 848.68,-86.9789 L 844.591,-86.1096 L 840.409,-86.1096
 z
M 905.209,-86.9789 L 901.389,-88.6795 L 898.006,-91.1371 L 895.209,-94.2443 L 893.118,-97.8653 L 891.826,-101.842
 L 891.389,-106 L 891.826,-110.158 L 893.118,-114.135 L 895.209,-117.756 L 898.006,-120.863 L 901.389,-123.321
 L 905.209,-125.021 L 909.298,-125.89 L 913.479,-125.89 L 917.569,-125.021 L 921.389,-123.321 L 924.772,-120.863
 L 927.569,-117.756 L 929.66,-114.135 L 930.952,-110.158 L 931.389,-106 L 930.952,-101.842 L 929.66,-97.8653
 L 927.569,-94.2443 L 924.772,-91.1371 L 921.389,-88.6795 L 917.569,-86.9789 L 913.479,-86.1096 L 909.298,-86.1096
 z
M 974.097,-86.9789 L 970.278,-88.6795 L 966.895,-91.1371 L 964.097,-94.2443 L 962.007,-97.8653 L 960.715,-101.842
 L 960.278,-106 L 960.715,-110.158 L 962.007,-114.135 L 964.097,-117.756 L 966.895,-120.863 L 970.278,-123.321
 L 974.097,-125.021 L 978.187,-125.89 L 982.368,-125.89 L 986.458,-125.021 L 990.278,-123.321 L 993.66,-120.863
 L 996.458,-117.756 L 998.549,-114.135 L 999.841,-110.158 L 1000.28,-106 L 999.841,-101.842 L 998.549,-97.8653
 L 996.458,-94.2443 L 993.66,-91.1371 L 990.278,-88.6795 L 986.458,-86.9789 L 982.368,-86.1096 L 978.187,-86.1096
 z
M 1042.99,-86.9789 L 1039.17,-88.6795 L 1035.78,-91.1371 L 1032.99,-94.2443 L 1030.9,-97.8653 L 1029.6,-101.842
 L 1029.17,-106 L 1029.6,-110.158 L 1030.9,-114.135 L 1032.99,-117.756 L 1035.78,-120.863 L 1039.17,-123.321
 L 1042.99,-125.021 L 1047.08,-125.89 L 1051.26,-125.89 L 1055.35,-125.021 L 1059.17,-123.321 L 1062.55,-120.863
 L 1065.35,-117.756 L 1067.44,-114.135 L 1068.73,-110.158 L 1069.17,-106 L 1068.73,-101.842 L 1067.44,-97.8653
 L 1065.35,-94.2443 L 1062.55,-91.1371 L 1059.17,-88.6795 L 1055.35,-86.9789 L 1051.26,-86.1096 L 1047.08,-86.1096
 z
M 1111.88,-86.9789 L 1108.06,-88.6795 L 1104.67,-91.1371 L 1101.88,-94.2443 L 1099.78,-97.8653 L 1098.49,-101.842
 L 1098.06,-106 L 1098.49,-110.158 L 1099.78,-114.135 L 1101.88,-117.756 L 1104.67,-120.863 L 1108.06,-123.321
 L 1111.88,-125.021 L 1115.96,-125.89 L 1120.15,-125.89 L 1124.24,-125.021 L 1128.06,-123.321 L 1131.44,-120.863
 L 1134.24,-117.756 L 1136.33,-114.135 L 1137.62,-110.158 L 1138.06,-106 L 1137.62,-101.842 L 1136.33,-97.8653
 L 1134.24,-94.2443 L 1131.44,-91.1371 L 1128.06,-88.6795 L 1124.24,-86.9789 L 1120.15,-86.1096 L 1115.96,-86.1096
 z
M 1180.76,-86.9789 L 1176.94,-88.6795 L 1173.56,-91.1371 L 1170.76,-94.2443 L 1168.67,-97.8653 L 1167.38,-101.842
 L 1166.94,-106 L 1167.38,-110.158 L 1168.67,-114.135 L 1170.76,-117.756 L 1173.56,-120.863 L 1176.94,-123.321
 L 1180.76,-125.021 L 1184.85,-125.89 L 1189.04,-125.89 L 1193.12,-125.021 L 1196.94,-123.321 L 1200.33,-120.863
 L 1203.12,-117.756 L 1205.22,-114.135 L 1206.51,-110.158 L 1206.94,-106 L 1206.51,-101.842 L 1205.22,-97.8653
 L 1203.12,-94.2443 L 1200.33,-91.1371 L 1196.94,-88.6795 L 1193.12,-86.9789 L 1189.04,-86.1096 L 1184.85,-86.1096
 z
M 430,-70 L 362.333,-70 L 362.333,-35 L 358.333,-35 L 358.333,-70 L 290.667,-70
 L 290.667,-35 L 286.667,-35 L 286.667,-70 L 219,-70 L 219,-35 L 215,-35
 L 215,-70 L 147.333,-70 L 147.333,-35 L 143.333,-35 L 143.333,-70 L 75.6667,-70
 L 75.6667,-35 L 71.6667,-35 L 71.6667,-70 L 0,-70 L 0,-0 L 430,-0
 z
M 103.32,-15.9789 L 99.5,-17.6795 L 96.1174,-20.1371 L 93.3197,-23.2443 L 91.2291,-26.8653 L 89.937,-30.8418
 L 89.5,-35 L 89.937,-39.1582 L 91.2291,-43.1347 L 93.3197,-46.7557 L 96.1174,-49.8629 L 99.5,-52.3205
 L 103.32,-54.0211 L 107.409,-54.8904 L 111.591,-54.8904 L 115.68,-54.0211 L 119.5,-52.3205 L 122.883,-49.8629
 L 125.68,-46.7557 L 127.771,-43.1347 L 129.063,-39.1582 L 129.5,-35 L 129.063,-30.8418 L 127.771,-26.8653
 L 125.68,-23.2443 L 122.883,-20.1371 L 119.5,-17.6795 L 115.68,-15.9789 L 111.591,-15.1096 L 107.409,-15.1096
 z
M 387.986,-15.9789 L 384.167,-17.6795 L 380.784,-20.1371 L 377.986,-23.2443 L 375.896,-26.8653 L 374.604,-30.8418
 L 374.167,-35 L 374.604,-39.1582 L 375.896,-43.1347 L 377.986,-46.7557 L 380.784,-49.8629 L 384.167,-52.3205
 L 387.986,-54.0211 L 392.076,-54.8904 L 396.257,-54.8904 L 400.347,-54.0211 L 404.167,-52.3205 L 407.549,-49.8629
 L 410.347,-46.7557 L 412.438,-43.1347 L 413.73,-39.1582 L 414.167,-35 L 413.73,-30.8418 L 412.438,-26.8653
 L 410.347,-23.2443 L 407.549,-20.1371 L 404.167,-17.6795 L 400.347,-15.9789 L 396.257,-15.1096 L 392.076,-15.1096
 z
M 1220,-70 L 1155.11,-70 L 1155.11,-35 L 1151.11,-35 L 1151.11,-70 L 1086.22,-70
 L 1086.22,-35 L 1082.22,-35 L 1082.22,-70 L 1017.33,-70 L 1017.33,-35 L 1013.33,-35
 L 1013.33,-70 L 948.444,-70 L 948.444,-35 L 944.444,-35 L 944.444,-70 L 879.556,-70
 L 879.556,-35 L 875.556,-35 L 875.556,-70 L 810.667,-70 L 810.667,-35 L 806.667,-35
 L 806.667,-70 L 741.778,-70 L 741.778,-35 L 737.778,-35 L 737.778,-70 L 672.889,-70
 L 672.889,-35 L 668.889,-35 L 668.889,-70 L 600,-70 L 600,-0 L 1220,-0
 z
M 629.653,-15.9789 L 625.833,-17.6795 L 622.451,-20.1371 L 619.653,-23.2443 L 617.562,-26.8653 L 616.27,-30.8418
 L 615.833,-35 L 616.27,-39.1582 L 617.562,-43.1347 L 619.653,-46.7557 L 622.451,-49.8629 L 625.833,-52.3205
 L 629.653,-54.0211 L 633.743,-54.8904 L 637.924,-54.8904 L 642.014,-54.0211 L 645.833,-52.3205 L 649.216,-49.8629
 L 652.014,-46.7557 L 654.104,-43.1347 L 655.396,-39.1582 L 655.833,-35 L 655.396,-30.8418 L 654.104,-26.8653
 L 652.014,-23.2443 L 649.216,-20.1371 L 645.833,-17.6795 L 642.014,-15.9789 L 637.924,-15.1096 L 633.743,-15.1096
 z
M 698.542,-15.9789 L 694.722,-17.6795 L 691.34,-20.1371 L 688.542,-23.2443 L 686.451,-26.8653 L 685.159,-30.8418
 L 684.722,-35 L 685.159,-39.1582 L 686.451,-43.1347 L 688.542,-46.7557 L 691.34,-49.8629 L 694.722,-52.3205
 L 698.542,-54.0211 L 702.632,-54.8904 L 706.813,-54.8904 L 710.903,-54.0211 L 714.722,-52.3205 L 718.105,-49.8629
 L 720.903,-46.7557 L 722.993,-43.1347 L 724.285,-39.1582 L 724.722,-35 L 724.285,-30.8418 L 722.993,-26.8653
 L 720.903,-23.2443 L 718.105,-20.1371 L 714.722,-17.6795 L 710.903,-15.9789 L 706.813,-15.1096 L 702.632,-15.1096
 z
M 767.431,-15.9789 L 763.611,-17.6795 L 760.228,-20.1371 L 757.431,-23.2443 L 755.34,-26.8653 L 754.048,-30.8418
 L 753.611,-35 L 754.048,-39.1582 L 755.34,-43.1347 L 757.431,-46.7557 L 760.228,-49.8629 L 763.611,-52.3205
 L 767.431,-54.0211 L 771.521,-54.8904 L 775.702,-54.8904 L 779.791,-54.0211 L 783.611,-52.3205 L 786.994,-49.8629
 L 789.791,-46.7557 L 791.882,-43.1347 L 793.174,-39.1582 L 793.611,-35 L 793.174,-30.8418 L 791.882,-26.8653
 L 789.791,-23.2443 L 786.994,-20.1371 L 783.611,-17.6795 L 779.791,-15.9789 L 775.702,-15.1096 L 771.521,-15.1096
 z
M 836.32,-15.9789 L 832.5,-17.6795 L 829.117,-20.1371 L 826.32,-23.2443 L 824.229,-26.8653 L 822.937,-30.8418
 L 822.5,-35 L 822.937,-39.1582 L 824.229,-43.1347 L 826.32,-46.7557 L 829.117,-49.8629 L 832.5,-52.3205
 L 836.32,-54.0211 L 840.409,-54.8904 L 844.591,-54.8904 L 848.68,-54.0211 L 852.5,-52.3205 L 855.883,-49.8629
 L 858.68,-46.7557 L 860.771,-43.1347 L 862.063,-39.1582 L 862.5,-35 L 862.063,-30.8418 L 860.771,-26.8653
 L 858.68,-23.2443 L 855.883,-20.1371 L 852.5,-17.6795 L 848.68,-15.9789 L 844.591,-15.1096 L 840.409,-15.1096
 z
M 905.209,-15.9789 L 901.389,-17.6795 L 898.006,-20.1371 L 895.209,-23.2443 L 893.118,-26.8653 L 891.826,-30.8418
 L 891.389,-35 L 891.826,-39.1582 L 893.118,-43.1347 L 895.209,-46.7557 L 898.006,-49.8629 L 901.389,-52.3205
 L 905.209,-54.0211 L 909.298,-54.8904 L 913.479,-54.8904 L 917.569,-54.0211 L 921.389,-52.3205 L 924.772,-49.8629
 L 927.569,-46.7557 L 929.66,-43.1347 L 930.952,-39.1582 L 931.389,-35 L 930.952,-30.8418 L 929.66,-26.8653
 L 927.569,-23.2443 L 924.772,-20.1371 L 921.389,-17.6795 L 917.569,-15.9789 L 913.479,-15.1096 L 909.298,-15.1096
 z
M 974.097,-15.9789 L 970.278,-17.6795 L 966.895,-20.1371 L 964.097,-23.2443 L 962.007,-26.8653 L 960.715,-30.8418
 L 960.278,-35 L 960.715,-39.1582 L 962.007,-43.1347 L 964.097,-46.7557 L 966.895,-49.8629 L 970.278,-52.3205
 L 974.097,-54.0211 L 978.187,-54.8904 L 982.368,-54.8904 L 986.458,-54.0211 L 990.278,-52.3205 L 993.66,-49.8629
 L 996.458,-46.7557 L 998.549,-43.1347 L 999.841,-39.1582 L 1000.28,-35 L 999.841,-30.8418 L 998.549,-26.8653
 L 996.458,-23.2443 L 993.66,-20.1371 L 990.278,-17.6795 L 986.458,-15.9789 L 982.368,-15.1096 L 978.187,-15.1096
 z
M 1042.99,-15.9789 L 1039.17,-17.6795 L 1035.78,-20.1371 L 1032.99,-23.2443 L 1030.9,-26.8653 L 1029.6,-30.8418
 L 1029.17,-35 L 1029.6,-39.1582 L 1030.9,-43.1347 L 1032.99,-46.7557 L 1035.78,-49.8629 L 1039.17,-52.3205
 L 1042.99,-54.0211 L 1047.08,-54.8904 L 1051.26,-54.8904 L 1055.35,-54.0211 L 1059.17,-52.3205 L 1062.55,-49.8629
 L 1065.35,-46.7557 L 1067.44,-43.1347 L 1068.73,-39.1582 L 1069.17,-35 L 1068.73,-30.8418 L 1067.44,-26.8653
 L 1065.35,-23.2443 L 1062.55,-20.1371 L 1059.17,-17.6795 L 1055.35,-15.9789 L 1051.26,-15.1096 L 1047.08,-15.1096
 z
M 1111.88,-15.9789 L 1108.06,-17.6795 L 1104.67,-20.1371 L 1101.88,-23.2443 L 1099.78,-26.8653 L 1098.49,-30.8418
 L 1098.06,-35 L 1098.49,-39.1582 L 1099.78,-43.1347 L 1101.88,-46.7557 L 1104.67,-49.8629 L 1108.06,-52.3205
 L 1111.88,-54.0211 L 1115.96,-54.8904 L 1120.15,-54.8904 L 1124.24,-54.0211 L 1128.06,-52.3205 L 1131.44,-49.8629
 L 1134.24,-46.7557 L 1136.33,-43.1347 L 1137.62,-39.1582 L 1138.06,-35 L 1137.62,-30.8418 L 1136.33,-26.8653
 L 1134.24,-23.2443 L 1131.44,-20.1371 L 1128.06,-17.6795 L 1124.24,-15.9789 L 1120.15,-15.1096 L 1115.96,-15.1096
 z
M 1180.76,-15.9789 L 1176.94,-17.6795 L 1173.56,-20.1371 L 1170.76,-23.2443 L 1168.67,-26.8653 L 1167.38,-30.8418
 L 1166.94,-35 L 1167.38,-39.1582 L 1168.67,-43.1347 L 1170.76,-46.7557 L 1173.56,-49.8629 L 1176.94,-52.3205
 L 1180.76,-54.0211 L 1184.85,-54.8904 L 1189.04,-54.8904 L 1193.12,-54.0211 L 1196.94,-52.3205 L 1200.33,-49.8629
 L 1203.12,-46.7557 L 1205.22,-43.1347 L 1206.51,-39.1582 L 1206.94,-35 L 1206.51,-30.8418 L 1205.22,-26.8653
 L 1203.12,-23.2443 L 1200.33,-20.1371 L 1196.94,-17.6795 L 1193.12,-15.9789 L 1189.04,-15.1096 L 1184.85,-15.1096
 z
" stroke="black" fill="lightgray" stroke-width="0.5"/>
</svg>
