<?xml version="1.0" standalone="no"?>
<!DOCTYPE svg PUBLIC "-//W3C//DTD SVG 1.1//EN" "http://www.w3.org/Graphics/SVG/1.1/DTD/svg11.dtd">
<svg width="1000mm" height="327mm" viewBox="0 -327 1000 327" xmlns="http://www.w3.org/2000/svg" version="1.1">
<title>OpenSCAD Model</title>
<path d="
M 300,-327 L 254,-327 L 254,-307 L 250,-307 L 250,-327 L 204,-327
 L 204,-307 L 200,-307 L 200,-327 L 154,-327 L 154,-307 L 150,-307
 L 150,-327 L 104,-327 L 104,-307 L 100,-307 L 100,-327 L 54,-327
 L 54,-307 L 50,-307 L 50,-327 L 0,-327 L 0,-287 L 300,-287
 z
M 20.3647,-292.734 L 17.5,-294.01 L 14.963,-295.853 L 12.8647,-298.183 L 11.2968,-300.899 L 10.3278,-303.881
 L 10,-307 L 10.3278,-310.119 L 11.2968,-313.101 L 12.8647,-315.817 L 14.963,-318.147 L 17.5,-319.99
 L 20.3647,-321.266 L 23.4321,-321.918 L 26.5679,-321.918 L 29.6353,-321.266 L 32.5,-319.99 L 35.037,-318.147
 L 37.1353,-315.817 L 38.7032,-313.101 L 39.6722,-310.119 L 40,-307 L 39.6722,-303.881 L 38.7032,-300.899
 L 37.1353,-298.183 L 35.037,-295.853 L 32.5,-294.01 L 29.6353,-292.734 L 26.5679,-292.082 L 23.4321,-292.082
 z
M 120.365,-292.734 L 117.5,-294.01 L 114.963,-295.853 L 112.865,-298.183 L 111.297,-300.899 L 110.328,-303.881
 L 110,-307 L 110.328,-310.119 L 111.297,-313.101 L 112.865,-315.817 L 114.963,-318.147 L 117.5,-319.99
 L 120.365,-321.266 L 123.432,-321.918 L 126.568,-321.918 L 129.635,-321.266 L 132.5,-319.99 L 135.037,-318.147
 L 137.135,-315.817 L 138.703,-313.101 L 139.672,-310.119 L 140,-307 L 139.672,-303.881 L 138.703,-300.899
 L 137.135,-298.183 L 135.037,-295.853 L 132.5,-294.01 L 129.635,-292.734 L 126.568,-292.082 L 123.432,-292.082
 z
M 300,-286 L 254,-286 L 254,-266 L 250,-266 L 250,-286 L 204,-286
 L 204,-266 L 200,-266 L 200,-286 L 154,-286 L 154,-266 L 150,-266
 L 150,-286 L 104,-286 L 104,-266 L 100,-266 L 100,-286 L 54,-286
 L 54,-266 L 50,-266 L 50,-286 L 0,-286 L 0,-246 L 300,-246
 z
M 120.365,-251.734 L 117.5,-253.01 L 114.963,-254.853 L 112.865,-257.183 L 111.297,-259.899 L 110.328,-262.881
 L 110,-266 L 110.328,-269.119 L 111.297,-272.101 L 112.865,-274.817 L 114.963,-277.147 L 117.5,-278.99
 L 120.365,-280.266 L 123.432,-280.918 L 126.568,-280.918 L 129.635,-280.266 L 132.5,-278.99 L 135.037,-277.147
 L 137.135,-274.817 L 138.703,-272.101 L 139.672,-269.119 L 140,-266 L 139.672,-262.881 L 138.703,-259.899
 L 137.135,-257.183 L 135.037,-254.853 L 132.5,-253.01 L 129.635,-251.734 L 126.568,-251.082 L 123.432,-251.082
 z
M 270.365,-251.734 L 267.5,-253.01 L 264.963,-254.853 L 262.865,-257.183 L 261.297,-259.899 L 260.328,-262.881
 L 260,-266 L 260.328,-269.119 L 261.297,-272.101 L 262.865,-274.817 L 264.963,-277.147 L 267.5,-278.99
 L 270.365,-280.266 L 273.432,-280.918 L 276.568,-280.918 L 279.635,-280.266 L 282.5,-278.99 L 285.037,-277.147
 L 287.135,-274.817 L 288.703,-272.101 L 289.672,-269.119 L 290,-266 L 289.672,-262.881 L 288.703,-259.899
 L 287.135,-257.183 L 285.037,-254.853 L 282.5,-253.01 L 279.635,-251.734 L 276.568,-251.082 L 273.432,-251.082
 z
M 300,-245 L 254,-245 L 254,-225 L 250,-225 L 250,-245 L 204,-245
 L 204,-225 L 200,-225 L 200,-245 L 154,-245 L 154,-225 L 150,-225
 L 150,-245 L 104,-245 L 104,-225 L 100,-225 L 100,-245 L 54,-245
 L 54,-225 L 50,-225 L 50,-245 L 0,-245 L 0,-205 L 300,-205
 z
M 20.3647,-210.734 L 17.5,-212.01 L 14.963,-213.853 L 12.8647,-216.183 L 11.2968,-218.899 L 10.3278,-221.881
 L 10,-225 L 10.3278,-228.119 L 11.2968,-231.101 L 12.8647,-233.817 L 14.963,-236.147 L 17.5,-237.99
 L 20.3647,-239.266 L 23.4321,-239.918 L 26.5679,-239.918 L 29.6353,-239.266 L 32.5,-237.99 L 35.037,-236.147
 L 37.1353,-233.817 L 38.7032,-231.101 L 39.6722,-228.119 L 40,-225 L 39.6722,-221.881 L 38.7032,-218.899
 L 37.1353,-216.183 L 35.037,-213.853 L 32.5,-212.01 L 29.6353,-210.734 L 26.5679,-210.082 L 23.4321,-210.082
 z
M 70.3647,-210.734 L 67.5,-212.01 L 64.963,-213.853 L 62.8647,-216.183 L 61.2968,-218.899 L 60.3278,-221.881
 L 60,-225 L 60.3278,-228.119 L 61.2968,-231.101 L 62.8647,-233.817 L 64.963,-236.147 L 67.5,-237.99
 L 70.3647,-239.266 L 73.4321,-239.918 L 76.5679,-239.918 L 79.6353,-239.266 L 82.5,-237.99 L 85.037,-236.147
 L 87.1353,-233.817 L 88.7032,-231.101 L 89.6722,-228.119 L 90,-225 L 89.6722,-221.881 L 88.7032,-218.899
 L 87.1353,-216.183 L 85.037,-213.853 L 82.5,-212.01 L 79.6353,-210.734 L 76.5679,-210.082 L 73.4321,-210.082
 z
M 300,-204 L 254,-204 L 254,-184 L 250,-184 L 250,-204 L 204,-204
 L 204,-184 L 200,-184 L 200,-204 L 154,-204 L 154,-184 L 150,-184
 L 150,-204 L 104,-204 L 104,-184 L 100,-184 L 100,-204 L 54,-204
 L 54,-184 L 50,-184 L 50,-204 L 0,-204 L 0,-164 L 300,-164
 z
M 170.365,-169.734 L 167.5,-171.01 L 164.963,-172.853 L 162.865,-175.183 L 161.297,-177.899 L 160.328,-180.881
 L 160,-184 L 160.328,-187.119 L 161.297,-190.101 L 162.865,-192.817 L 164.963,-195.147 L 167.5,-196.99
 L 170.365,-198.266 L 173.432,-198.918 L 176.568,-198.918 L 179.635,-198.266 L 182.5,-196.99 L 185.037,-195.147
 L 187.135,-192.817 L 188.703,-190.101 L 189.672,-187.119 L 190,-184 L 189.672,-180.881 L 188.703,-177.899
 L 187.135,-175.183 L 185.037,-172.853 L 182.5,-171.01 L 179.635,-169.734 L 176.568,-169.082 L 173.432,-169.082
 z
M 270.365,-169.734 L 267.5,-171.01 L 264.963,-172.853 L 262.865,-175.183 L 261.297,-177.899 L 260.328,-180.881
 L 260,-184 L 260.328,-187.119 L 261.297,-190.101 L 262.865,-192.817 L 264.963,-195.147 L 267.5,-196.99
 L 270.365,-198.266 L 273.432,-198.918 L 276.568,-198.918 L 279.635,-198.266 L 282.5,-196.99 L 285.037,-195.147
 L 287.135,-192.817 L 288.703,-190.101 L 289.672,-187.119 L 290,-184 L 289.672,-180.881 L 288.703,-177.899
 L 287.135,-175.183 L 285.037,-172.853 L 282.5,-171.01 L 279.635,-169.734 L 276.568,-169.082 L 273.432,-169.082
 z
M 1000,-204 L 959.556,-204 L 959.556,-184 L 955.556,-184 L 955.556,-204 L 915.111,-204
 L 915.111,-184 L 911.111,-184 L 911.111,-204 L 870.667,-204 L 870.667,-184 L 866.667,-184
 L 866.667,-204 L 826.222,-204 L 826.222,-184 L 822.222,-184 L 822.222,-204 L 781.778,-204
 L 781.778,-184 L 777.778,-184 L 777.778,-204 L 737.333,-204 L 737.333,-184 L 733.333,-184
 L 733.333,-204 L 692.889,-204 L 692.889,-184 L 688.889,-184 L 688.889,-204 L 648.444,-204
 L 648.444,-184 L 644.444,-184 L 644.444,-204 L 600,-204 L 600,-164 L 1000,-164
 z
M 620.365,-169.734 L 617.5,-171.01 L 614.963,-172.853 L 612.865,-175.183 L 611.297,-177.899 L 610.328,-180.881
 L 610,-184 L 610.328,-187.119 L 611.297,-190.101 L 612.865,-192.817 L 614.963,-195.147 L 617.5,-196.99
 L 620.365,-198.266 L 623.432,-198.918 L 626.568,-198.918 L 629.635,-198.266 L 632.5,-196.99 L 635.037,-195.147
 L 637.135,-192.817 L 638.703,-190.101 L 639.672,-187.119 L 640,-184 L 639.672,-180.881 L 638.703,-177.899
 L 637.135,-175.183 L 635.037,-172.853 L 632.5,-171.01 L 629.635,-169.734 L 626.568,-169.082 L 623.432,-169.082
 z
M 664.809,-169.734 L 661.944,-171.01 L 659.407,-172.853 L 657.309,-175.183 L 655.741,-177.899 L 654.772,-180.881
 L 654.444,-184 L 654.772,-187.119 L 655.741,-190.101 L 657.309,-192.817 L 659.407,-195.147 L 661.944,-196.99
 L 664.809,-198.266 L 667.877,-198.918 L 671.012,-198.918 L 674.08,-198.266 L 676.944,-196.99 L 679.481,-195.147
 L 681.58,-192.817 L 683.148,-190.101 L 684.117,-187.119 L 684.444,-184 L 684.117,-180.881 L 683.148,-177.899
 L 681.58,-175.183 L 679.481,-172.853 L 676.944,-171.01 L 674.08,-169.734 L 671.012,-169.082 L 667.877,-169.082
 z
M 709.254,-169.734 L 706.389,-171.01 L 703.852,-172.853 L 701.754,-175.183 L 700.186,-177.899 L 699.217,-180.881
 L 698.889,-184 L 699.217,-187.119 L 700.186,-190.101 L 701.754,-192.817 L 703.852,-195.147 L 706.389,-196.99
 L 709.254,-198.266 L 712.321,-198.918 L 715.457,-198.918 L 718.524,-198.266 L 721.389,-196.99 L 723.926,-195.147
 L 726.024,-192.817 L 727.592,-190.101 L 728.561,-187.119 L 728.889,-184 L 728.561,-180.881 L 727.592,-177.899
 L 726.024,-175.183 L 723.926,-172.853 L 721.389,-171.01 L 718.524,-169.734 L 715.457,-169.082 L 712.321,-169.082
 z
M 753.698,-169.734 L 750.833,-171.01 L 748.296,-172.853 L 746.198,-175.183 L 744.63,-177.899 L 743.661,-180.881
 L 743.333,-184 L 743.661,-187.119 L 744.63,-190.101 L 746.198,-192.817 L 748.296,-195.147 L 750.833,-196.99
 L 753.698,-198.266 L 756.765,-198.918 L 759.901,-198.918 L 762.969,-198.266 L 765.833,-196.99 L 768.37,-195.147
 L 770.469,-192.817 L 772.037,-190.101 L 773.006,-187.119 L 773.333,-184 L 773.006,-180.881 L 772.037,-177.899
 L 770.469,-175.183 L 768.37,-172.853 L 765.833,-171.01 L 762.969,-169.734 L 759.901,-169.082 L 756.765,-169.082
 z
M 798.143,-169.734 L 795.278,-171.01 L 792.741,-172.853 L 790.643,-175.183 L 789.075,-177.899 L 788.106,-180.881
 L 787.778,-184 L 788.106,-187.119 L 789.075,-190.101 L 790.643,-192.817 L 792.741,-195.147 L 795.278,-196.99
 L 798.143,-198.266 L 801.21,-198.918 L 804.346,-198.918 L 807.413,-198.266 L 810.278,-196.99 L 812.815,-195.147
 L 814.913,-192.817 L 816.481,-190.101 L 817.45,-187.119 L 817.778,-184 L 817.45,-180.881 L 816.481,-177.899
 L 814.913,-175.183 L 812.815,-172.853 L 810.278,-171.01 L 807.413,-169.734 L 804.346,-169.082 L 801.21,-169.082
 z
M 842.587,-169.734 L 839.722,-171.01 L 837.185,-172.853 L 835.087,-175.183 L 833.519,-177.899 L 832.55,-180.881
 L 832.222,-184 L 832.55,-187.119 L 833.519,-190.101 L 835.087,-192.817 L 837.185,-195.147 L 839.722,-196.99
 L 842.587,-198.266 L 845.654,-198.918 L 848.79,-198.918 L 851.857,-198.266 L 854.722,-196.99 L 857.259,-195.147
 L 859.357,-192.817 L 860.925,-190.101 L 861.894,-187.119 L 862.222,-184 L 861.894,-180.881 L 860.925,-177.899
 L 859.357,-175.183 L 857.259,-172.853 L 854.722,-171.01 L 851.857,-169.734 L 848.79,-169.082 L 845.654,-169.082
 z
M 887.031,-169.734 L 884.167,-171.01 L 881.63,-172.853 L 879.531,-175.183 L 877.963,-177.899 L 876.994,-180.881
 L 876.667,-184 L 876.994,-187.119 L 877.963,-190.101 L 879.531,-192.817 L 881.63,-195.147 L 884.167,-196.99
 L 887.031,-198.266 L 890.099,-198.918 L 893.235,-198.918 L 896.302,-198.266 L 899.167,-196.99 L 901.704,-195.147
 L 903.802,-192.817 L 905.37,-190.101 L 906.339,-187.119 L 906.667,-184 L 906.339,-180.881 L 905.37,-177.899
 L 903.802,-175.183 L 901.704,-172.853 L 899.167,-171.01 L 896.302,-169.734 L 893.235,-169.082 L 890.099,-169.082
 z
M 931.476,-169.734 L 928.611,-171.01 L 926.074,-172.853 L 923.976,-175.183 L 922.408,-177.899 L 921.439,-180.881
 L 921.111,-184 L 921.439,-187.119 L 922.408,-190.101 L 923.976,-192.817 L 926.074,-195.147 L 928.611,-196.99
 L 931.476,-198.266 L 934.543,-198.918 L 937.679,-198.918 L 940.746,-198.266 L 943.611,-196.99 L 946.148,-195.147
 L 948.246,-192.817 L 949.814,-190.101 L 950.783,-187.119 L 951.111,-184 L 950.783,-180.881 L 949.814,-177.899
 L 948.246,-175.183 L 946.148,-172.853 L 943.611,-171.01 L 940.746,-169.734 L 937.679,-169.082 L 934.543,-169.082
 z
M 975.92,-169.734 L 973.056,-171.01 L 970.519,-172.853 L 968.42,-175.183 L 966.852,-177.899 L 965.883,-180.881
 L 965.556,-184 L 965.883,-187.119 L 966.852,-190.101 L 968.42,-192.817 L 970.519,-195.147 L 973.056,-196.99
 L 975.92,-198.266 L 978.988,-198.918 L 982.123,-198.918 L 985.191,-198.266 L 988.056,-196.99 L 990.593,-195.147
 L 992.691,-192.817 L 994.259,-190.101 L 995.228,-187.119 L 995.556,-184 L 995.228,-180.881 L 994.259,-177.899
 L 992.691,-175.183 L 990.593,-172.853 L 988.056,-171.01 L 985.191,-169.734 L 982.123,-169.082 L 978.988,-169.082
 z
M 300,-163 L 254,-163 L 254,-143 L 250,-143 L 250,-163 L 204,-163
 L 204,-143 L 200,-143 L 200,-163 L 154,-163 L 154,-143 L 150,-143
 L 150,-163 L 104,-163 L 104,-143 L 100,-143 L 100,-163 L 54,-163
 L 54,-143 L 50,-143 L 50,-163 L 0,-163 L 0,-123 L 300,-123
 z
M 20.3647,-128.734 L 17.5,-130.01 L 14.963,-131.853 L 12.8647,-134.183 L 11.2968,-136.899 L 10.3278,-139.881
 L 10,-143 L 10.3278,-146.119 L 11.2968,-149.101 L 12.8647,-151.817 L 14.963,-154.147 L 17.5,-155.99
 L 20.3647,-157.266 L 23.4321,-157.918 L 26.5679,-157.918 L 29.6353,-157.266 L 32.5,-155.99 L 35.037,-154.147
 L 37.1353,-151.817 L 38.7032,-149.101 L 39.6722,-146.119 L 40,-143 L 39.6722,-139.881 L 38.7032,-136.899
 L 37.1353,-134.183 L 35.037,-131.853 L 32.5,-130.01 L 29.6353,-128.734 L 26.5679,-128.082 L 23.4321,-128.082
 z
M 70.3647,-128.734 L 67.5,-130.01 L 64.963,-131.853 L 62.8647,-134.183 L 61.2968,-136.899 L 60.3278,-139.881
 L 60,-143 L 60.3278,-146.119 L 61.2968,-149.101 L 62.8647,-151.817 L 64.963,-154.147 L 67.5,-155.99
 L 70.3647,-157.266 L 73.4321,-157.918 L 76.5679,-157.918 L 79.6353,-157.266 L 82.5,-155.99 L 85.037,-154.147
 L 87.1353,-151.817 L 88.7032,-149.101 L 89.6722,-146.119 L 90,-143 L 89.6722,-139.881 L 88.7032,-136.899
 L 87.1353,-134.183 L 85.037,-131.853 L 82.5,-130.01 L 79.6353,-128.734 L 76.5679,-128.082 L 73.4321,-128.082
 z
M 1000,-163 L 959.556,-163 L 959.556,-143 L 955.556,-143 L 955.556,-163 L 915.111,-163
 L 915.111,-143 L 911.111,-143 L 911.111,-163 L 870.667,-163 L 870.667,-143 L 866.667,-143
 L 866.667,-163 L 826.222,-163 L 826.222,-143 L 822.222,-143 L 822.222,-163 L 781.778,-163
 L 781.778,-143 L 777.778,-143 L 777.778,-163 L 737.333,-163 L 737.333,-143 L 733.333,-143
 L 733.333,-163 L 692.889,-163 L 692.889,-143 L 688.889,-143 L 688.889,-163 L 648.444,-163
 L 648.444,-143 L 644.444,-143 L 644.444,-163 L 600,-163 L 600,-123 L 1000,-123
 z
M 620.365,-128.734 L 617.5,-130.01 L 614.963,-131.853 L 612.865,-134.183 L 611.297,-136.899 L 610.328,-139.881
 L 610,-143 L 610.328,-146.119 L 611.297,-149.101 L 612.865,-151.817 L 614.963,-154.147 L 617.5,-155.99
 L 620.365,-157.266 L 623.432,-157.918 L 626.568,-157.918 L 629.635,-157.266 L 632.5,-155.99 L 635.037,-154.147
 L 637.135,-151.817 L 638.703,-149.101 L 639.672,-146.119 L 640,-143 L 639.672,-139.881 L 638.703,-136.899
 L 637.135,-134.183 L 635.037,-131.853 L 632.5,-130.01 L 629.635,-128.734 L 626.568,-128.082 L 623.432,-128.082
 z
M 664.809,-128.734 L 661.944,-130.01 L 659.407,-131.853 L 657.309,-134.183 L 655.741,-136.899 L 654.772,-139.881
 L 654.444,-143 L 654.772,-146.119 L 655.741,-149.101 L 657.309,-151.817 L 659.407,-154.147 L 661.944,-155.99
 L 664.809,-157.266 L 667.877,-157.918 L 671.012,-157.918 L 674.08,-157.266 L 676.944,-155.99 L 679.481,-154.147
 L 681.58,-151.817 L 683.148,-149.101 L 684.117,-146.119 L 684.444,-143 L 684.117,-139.881 L 683.148,-136.899
 L 681.58,-134.183 L 679.481,-131.853 L 676.944,-130.01 L 674.08,-128.734 L 671.012,-128.082 L 667.877,-128.082
 z
M 709.254,-128.734 L 706.389,-130.01 L 703.852,-131.853 L 701.754,-134.183 L 700.186,-136.899 L 699.217,-139.881
 L 698.889,-143 L 699.217,-146.119 L 700.186,-149.101 L 701.754,-151.817 L 703.852,-154.147 L 706.389,-155.99
 L 709.254,-157.266 L 712.321,-157.918 L 715.457,-157.918 L 718.524,-157.266 L 721.389,-155.99 L 723.926,-154.147
 L 726.024,-151.817 L 727.592,-149.101 L 728.561,-146.119 L 728.889,-143 L 728.561,-139.881 L 727.592,-136.899
 L 726.024,-134.183 L 723.926,-131.853 L 721.389,-130.01 L 718.524,-128.734 L 715.457,-128.082 L 712.321,-128.082
 z
M 753.698,-128.734 L 750.833,-130.01 L 748.296,-131.853 L 746.198,-134.183 L 744.63,-136.899 L 743.661,-139.881
 L 743.333,-143 L 743.661,-146.119 L 744.63,-149.101 L 746.198,-151.817 L 748.296,-154.147 L 750.833,-155.99
 L 753.698,-157.266 L 756.765,-157.918 L 759.901,-157.918 L 762.969,-157.266 L 765.833,-155.99 L 768.37,-154.147
 L 770.469,-151.817 L 772.037,-149.101 L 773.006,-146.119 L 773.333,-143 L 773.006,-139.881 L 772.037,-136.899
 L 770.469,-134.183 L 768.37,-131.853 L 765.833,-130.01 L 762.969,-128.734 L 759.901,-128.082 L 756.765,-128.082
 z
M 798.143,-128.734 L 795.278,-130.01 L 792.741,-131.853 L 790.643,-134.183 L 789.075,-136.899 L 788.106,-139.881
 L 787.778,-143 L 788.106,-146.119 L 789.075,-149.101 L 790.643,-151.817 L 792.741,-154.147 L 795.278,-155.99
 L 798.143,-157.266 L 801.21,-157.918 L 804.346,-157.918 L 807.413,-157.266 L 810.278,-155.99 L 812.815,-154.147
 L 814.913,-151.817 L 816.481,-149.101 L 817.45,-146.119 L 817.778,-143 L 817.45,-139.881 L 816.481,-136.899
 L 814.913,-134.183 L 812.815,-131.853 L 810.278,-130.01 L 807.413,-128.734 L 804.346,-128.082 L 801.21,-128.082
 z
M 842.587,-128.734 L 839.722,-130.01 L 837.185,-131.853 L 835.087,-134.183 L 833.519,-136.899 L 832.55,-139.881
 L 832.222,-143 L 832.55,-146.119 L 833.519,-149.101 L 835.087,-151.817 L 837.185,-154.147 L 839.722,-155.99
 L 842.587,-157.266 L 845.654,-157.918 L 848.79,-157.918 L 851.857,-157.266 L 854.722,-155.99 L 857.259,-154.147
 L 859.357,-151.817 L 860.925,-149.101 L 861.894,-146.119 L 862.222,-143 L 861.894,-139.881 L 860.925,-136.899
 L 859.357,-134.183 L 857.259,-131.853 L 854.722,-130.01 L 851.857,-128.734 L 848.79,-128.082 L 845.654,-128.082
 z
M 887.031,-128.734 L 884.167,-130.01 L 881.63,-131.853 L 879.531,-134.183 L 877.963,-136.899 L 876.994,-139.881
 L 876.667,-143 L 876.994,-146.119 L 877.963,-149.101 L 879.531,-151.817 L 881.63,-154.147 L 884.167,-155.99
 L 887.031,-157.266 L 890.099,-157.918 L 893.235,-157.918 L 896.302,-157.266 L 899.167,-155.99 L 901.704,-154.147
 L 903.802,-151.817 L 905.37,-149.101 L 906.339,-146.119 L 906.667,-143 L 906.339,-139.881 L 905.37,-136.899
 L 903.802,-134.183 L 901.704,-131.853 L 899.167,-130.01 L 896.302,-128.734 L 893.235,-128.082 L 890.099,-128.082
 z
M 931.476,-128.734 L 928.611,-130.01 L 926.074,-131.853 L 923.976,-134.183 L 922.408,-136.899 L 921.439,-139.881
 L 921.111,-143 L 921.439,-146.119 L 922.408,-149.101 L 923.976,-151.817 L 926.074,-154.147 L 928.611,-155.99
 L 931.476,-157.266 L 934.543,-157.918 L 937.679,-157.918 L 940.746,-157.266 L 943.611,-155.99 L 946.148,-154.147
 L 948.246,-151.817 L 949.814,-149.101 L 950.783,-146.119 L 951.111,-143 L 950.783,-139.881 L 949.814,-136.899
 L 948.246,-134.183 L 946.148,-131.853 L 943.611,-130.01 L 940.746,-128.734 L 937.679,-128.082 L 934.543,-128.082
 z
M 975.92,-128.734 L 973.056,-130.01 L 970.519,-131.853 L 968.42,-134.183 L 966.852,-136.899 L 965.883,-139.881
 L 965.556,-143 L 965.883,-146.119 L 966.852,-149.101 L 968.42,-151.817 L 970.519,-154.147 L 973.056,-155.99
 L 975.92,-157.266 L 978.988,-157.918 L 982.123,-157.918 L 985.191,-157.266 L 988.056,-155.99 L 990.593,-154.147
 L 992.691,-151.817 L 994.259,-149.101 L 995.228,-146.119 L 995.556,-143 L 995.228,-139.881 L 994.259,-136.899
 L 992.691,-134.183 L 990.593,-131.853 L 988.056,-130.01 L 985.191,-128.734 L 982.123,-128.082 L 978.988,-128.082
 z
M 300,-122 L 254,-122 L 254,-102 L 250,-102 L 250,-122 L 204,-122
 L 204,-102 L 200,-102 L 200,-122 L 154,-122 L 154,-102 L 150,-102
 L 150,-122 L 104,-122 L 104,-102 L 100,-102 L 100,-122 L 54,-122
 L 54,-102 L 50,-102 L 50,-122 L 0,-122 L 0,-82 L 300,-82
 z
M 70.3647,-87.7342 L 67.5,-89.0096 L 64.963,-90.8528 L 62.8647,-93.1832 L 61.2968,-95.899 L 60.3278,-98.8813
 L 60,-102 L 60.3278,-105.119 L 61.2968,-108.101 L 62.8647,-110.817 L 64.963,-113.147 L 67.5,-114.99
 L 70.3647,-116.266 L 73.4321,-116.918 L 76.5679,-116.918 L 79.6353,-116.266 L 82.5,-114.99 L 85.037,-113.147
 L 87.1353,-110.817 L 88.7032,-108.101 L 89.6722,-105.119 L 90,-102 L 89.6722,-98.8813 L 88.7032,-95.899
 L 87.1353,-93.1832 L 85.037,-90.8528 L 82.5,-89.0096 L 79.6353,-87.7342 L 76.5679,-87.0822 L 73.4321,-87.0822
 z
M 270.365,-87.7342 L 267.5,-89.0096 L 264.963,-90.8528 L 262.865,-93.1832 L 261.297,-95.899 L 260.328,-98.8813
 L 260,-102 L 260.328,-105.119 L 261.297,-108.101 L 262.865,-110.817 L 264.963,-113.147 L 267.5,-114.99
 L 270.365,-116.266 L 273.432,-116.918 L 276.568,-116.918 L 279.635,-116.266 L 282.5,-114.99 L 285.037,-113.147
 L 287.135,-110.817 L 288.703,-108.101 L 289.672,-105.119 L 290,-102 L 289.672,-98.8813 L 288.703,-95.899
 L 287.135,-93.1832 L 285.037,-90.8528 L 282.5,-89.0096 L 279.635,-87.7342 L 276.568,-87.0822 L 273.432,-87.0822
 z
M 1000,-122 L 959.556,-122 L 959.556,-102 L 955.556,-102 L 955.556,-122 L 915.111,-122
 L 915.111,-102 L 911.111,-102 L 911.111,-122 L 870.667,-122 L 870.667,-102 L 866.667,-102
 L 866.667,-122 L 826.222,-122 L 826.222,-102 L 822.222,-102 L 822.222,-122 L 781.778,-122
 L 781.778,-102 L 777.778,-102 L 777.778,-122 L 737.333,-122 L 737.333,-102 L 733.333,-102
 L 733.333,-122 L 692.889,-122 L 692.889,-102 L 688.889,-102 L 688.889,-122 L 648.444,-122
 L 648.444,-102 L 644.444,-102 L 644.444,-122 L 600,-122 L 600,-82 L 1000,-82
 z
M 620.365,-87.7342 L 617.5,-89.0096 L 614.963,-90.8528 L 612.865,-93.1832 L 611.297,-95.899 L 610.328,-98.8813
 L 610,-102 L 610.328,-105.119 L 611.297,-108.101 L 612.865,-110.817 L 614.963,-113.147 L 617.5,-114.99
 L 620.365,-116.266 L 623.432,-116.918 L 626.568,-116.918 L 629.635,-116.266 L 632.5,-114.99 L 635.037,-113.147
 L 637.135,-110.817 L 638.703,-108.101 L 639.672,-105.119 L 640,-102 L 639.672,-98.8813 L 638.703,-95.899
 L 637.135,-93.1832 L 635.037,-90.8528 L 632.5,-89.0096 L 629.635,-87.7342 L 626.568,-87.0822 L 623.432,-87.0822
 z
M 664.809,-87.7342 L 661.944,-89.0096 L 659.407,-90.8528 L 657.309,-93.1832 L 655.741,-95.899 L 654.772,-98.8813
 L 654.444,-102 L 654.772,-105.119 L 655.741,-108.101 L 657.309,-110.817 L 659.407,-113.147 L 661.944,-114.99
 L 664.809,-116.266 L 667.877,-116.918 L 671.012,-116.918 L 674.08,-116.266 L 676.944,-114.99 L 679.481,-113.147
 L 681.58,-110.817 L 683.148,-108.101 L 684.117,-105.119 L 684.444,-102 L 684.117,-98.8813 L 683.148,-95.899
 L 681.58,-93.1832 L 679.481,-90.8528 L 676.944,-89.0096 L 674.08,-87.7342 L 671.012,-87.0822 L 667.877,-87.0822
 z
M 709.254,-87.7342 L 706.389,-89.0096 L 703.852,-90.8528 L 701.754,-93.1832 L 700.186,-95.899 L 699.217,-98.8813
 L 698.889,-102 L 699.217,-105.119 L 700.186,-108.101 L 701.754,-110.817 L 703.852,-113.147 L 706.389,-114.99
 L 709.254,-116.266 L 712.321,-116.918 L 715.457,-116.918 L 718.524,-116.266 L 721.389,-114.99 L 723.926,-113.147
 L 726.024,-110.817 L 727.592,-108.101 L 728.561,-105.119 L 728.889,-102 L 728.561,-98.8813 L 727.592,-95.899
 L 726.024,-93.1832 L 723.926,-90.8528 L 721.389,-89.0096 L 718.524,-87.7342 L 715.457,-87.0822 L 712.321,-87.0822
 z
M 753.698,-87.7342 L 750.833,-89.0096 L 748.296,-90.8528 L 746.198,-93.1832 L 744.63,-95.899 L 743.661,-98.8813
 L 743.333,-102 L 743.661,-105.119 L 744.63,-108.101 L 746.198,-110.817 L 748.296,-113.147 L 750.833,-114.99
 L 753.698,-116.266 L 756.765,-116.918 L 759.901,-116.918 L 762.969,-116.266 L 765.833,-114.99 L 768.37,-113.147
 L 770.469,-110.817 L 772.037,-108.101 L 773.006,-105.119 L 773.333,-102 L 773.006,-98.8813 L 772.037,-95.899
 L 770.469,-93.1832 L 768.37,-90.8528 L 765.833,-89.0096 L 762.969,-87.7342 L 759.901,-87.0822 L 756.765,-87.0822
 z
M 798.143,-87.7342 L 795.278,-89.0096 L 792.741,-90.8528 L 790.643,-93.1832 L 789.075,-95.899 L 788.106,-98.8813
 L 787.778,-102 L 788.106,-105.119 L 789.075,-108.101 L 790.643,-110.817 L 792.741,-113.147 L 795.278,-114.99
 L 798.143,-116.266 L 801.21,-116.918 L 804.346,-116.918 L 807.413,-116.266 L 810.278,-114.99 L 812.815,-113.147
 L 814.913,-110.817 L 816.481,-108.101 L 817.45,-105.119 L 817.778,-102 L 817.45,-98.8813 L 816.481,-95.899
 L 814.913,-93.1832 L 812.815,-90.8528 L 810.278,-89.0096 L 807.413,-87.7342 L 804.346,-87.0822 L 801.21,-87.0822
 z
M 842.587,-87.7342 L 839.722,-89.0096 L 837.185,-90.8528 L 835.087,-93.1832 L 833.519,-95.899 L 832.55,-98.8813
 L 832.222,-102 L 832.55,-105.119 L 833.519,-108.101 L 835.087,-110.817 L 837.185,-113.147 L 839.722,-114.99
 L 842.587,-116.266 L 845.654,-116.918 L 848.79,-116.918 L 851.857,-116.266 L 854.722,-114.99 L 857.259,-113.147
 L 859.357,-110.817 L 860.925,-108.101 L 861.894,-105.119 L 862.222,-102 L 861.894,-98.8813 L 860.925,-95.899
 L 859.357,-93.1832 L 857.259,-90.8528 L 854.722,-89.0096 L 851.857,-87.7342 L 848.79,-87.0822 L 845.654,-87.0822
 z
M 887.031,-87.7342 L 884.167,-89.0096 L 881.63,-90.8528 L 879.531,-93.1832 L 877.963,-95.899 L 876.994,-98.8813
 L 876.667,-102 L 876.994,-105.119 L 877.963,-108.101 L 879.531,-110.817 L 881.63,-113.147 L 884.167,-114.99
 L 887.031,-116.266 L 890.099,-116.918 L 893.235,-116.918 L 896.302,-116.266 L 899.167,-114.99 L 901.704,-113.147
 L 903.802,-110.817 L 905.37,-108.101 L 906.339,-105.119 L 906.667,-102 L 906.339,-98.8813 L 905.37,-95.899
 L 903.802,-93.1832 L 901.704,-90.8528 L 899.167,-89.0096 L 896.302,-87.7342 L 893.235,-87.0822 L 890.099,-87.0822
 z
M 931.476,-87.7342 L 928.611,-89.0096 L 926.074,-90.8528 L 923.976,-93.1832 L 922.408,-95.899 L 921.439,-98.8813
 L 921.111,-102 L 921.439,-105.119 L 922.408,-108.101 L 923.976,-110.817 L 926.074,-113.147 L 928.611,-114.99
 L 931.476,-116.266 L 934.543,-116.918 L 937.679,-116.918 L 940.746,-116.266 L 943.611,-114.99 L 946.148,-113.147
 L 948.246,-110.817 L 949.814,-108.101 L 950.783,-105.119 L 951.111,-102 L 950.783,-98.8813 L 949.814,-95.899
 L 948.246,-93.1832 L 946.148,-90.8528 L 943.611,-89.0096 L 940.746,-87.7342 L 937.679,-87.0822 L 934.543,-87.0822
 z
M 975.92,-87.7342 L 973.056,-89.0096 L 970.519,-90.8528 L 968.42,-93.1832 L 966.852,-95.899 L 965.883,-98.8813
 L 965.556,-102 L 965.883,-105.119 L 966.852,-108.101 L 968.42,-110.817 L 970.519,-113.147 L 973.056,-114.99
 L 975.92,-116.266 L 978.988,-116.918 L 982.123,-116.918 L 985.191,-116.266 L 988.056,-114.99 L 990.593,-113.147
 L 992.691,-110.817 L 994.259,-108.101 L 995.228,-105.119 L 995.556,-102 L 995.228,-98.8813 L 994.259,-95.899
 L 992.691,-93.1832 L 990.593,-90.8528 L 988.056,-89.0096 L 985.191,-87.7342 L 982.123,-87.0822 L 978.988,-87.0822
 z
M 300,-81 L 254,-81 L 254,-61 L 250,-61 L 250,-81 L 204,-81
 L 204,-61 L 200,-61 L 200,-81 L 154,-81 L 154,-61 L 150,-61
 L 150,-81 L 104,-81 L 104,-61 L 100,-61 L 100,-81 L 54,-81
 L 54,-61 L 50,-61 L 50,-81 L 0,-81 L 0,-41 L 300,-41
 z
M 20.3647,-46.7342 L 17.5,-48.0096 L 14.963,-49.8528 L 12.8647,-52.1832 L 11.2968,-54.899 L 10.3278,-57.8813
 L 10,-61 L 10.3278,-64.1187 L 11.2968,-67.101 L 12.8647,-69.8168 L 14.963,-72.1472 L 17.5,-73.9904
 L 20.3647,-75.2658 L 23.4321,-75.9178 L 26.5679,-75.9178 L 29.6353,-75.2658 L 32.5,-73.9904 L 35.037,-72.1472
 L 37.1353,-69.8168 L 38.7032,-67.101 L 39.6722,-64.1187 L 40,-61 L 39.6722,-57.8813 L 38.7032,-54.899
 L 37.1353,-52.1832 L 35.037,-49.8528 L 32.5,-48.0096 L 29.6353,-46.7342 L 26.5679,-46.0822 L 23.4321,-46.0822
 z
M 120.365,-46.7342 L 117.5,-48.0096 L 114.963,-49.8528 L 112.865,-52.1832 L 111.297,-54.899 L 110.328,-57.8813
 L 110,-61 L 110.328,-64.1187 L 111.297,-67.101 L 112.865,-69.8168 L 114.963,-72.1472 L 117.5,-73.9904
 L 120.365,-75.2658 L 123.432,-75.9178 L 126.568,-75.9178 L 129.635,-75.2658 L 132.5,-73.9904 L 135.037,-72.1472
 L 137.135,-69.8168 L 138.703,-67.101 L 139.672,-64.1187 L 140,-61 L 139.672,-57.8813 L 138.703,-54.899
 L 137.135,-52.1832 L 135.037,-49.8528 L 132.5,-48.0096 L 129.635,-46.7342 L 126.568,-46.0822 L 123.432,-46.0822
 z
M 1000,-81 L 959.556,-81 L 959.556,-61 L 955.556,-61 L 955.556,-81 L 915.111,-81
 L 915.111,-61 L 911.111,-61 L 911.111,-81 L 870.667,-81 L 870.667,-61 L 866.667,-61
 L 866.667,-81 L 826.222,-81 L 826.222,-61 L 822.222,-61 L 822.222,-81 L 781.778,-81
 L 781.778,-61 L 777.778,-61 L 777.778,-81 L 737.333,-81 L 737.333,-61 L 733.333,-61
 L 733.333,-81 L 692.889,-81 L 692.889,-61 L 688.889,-61 L 688.889,-81 L 648.444,-81
 L 648.444,-61 L 644.444,-61 L 644.444,-81 L 600,-81 L 600,-41 L 1000,-41
 z
M 620.365,-46.7342 L 617.5,-48.0096 L 614.963,-49.8528 L 612.865,-52.1832 L 611.297,-54.899 L 610.328,-57.8813
 L 610,-61 L 610.328,-64.1187 L 611.297,-67.101 L 612.865,-69.8168 L 614.963,-72.1472 L 617.5,-73.9904
 L 620.365,-75.2658 L 623.432,-75.9178 L 626.568,-75.9178 L 629.635,-75.2658 L 632.5,-73.9904 L 635.037,-72.1472
 L 637.135,-69.8168 L 638.703,-67.101 L 639.672,-64.1187 L 640,-61 L 639.672,-57.8813 L 638.703,-54.899
 L 637.135,-52.1832 L 635.037,-49.8528 L 632.5,-48.0096 L 629.635,-46.7342 L 626.568,-46.0822 L 623.432,-46.0822
 z
M 664.809,-46.7342 L 661.944,-48.0096 L 659.407,-49.8528 L 657.309,-52.1832 L 655.741,-54.899 L 654.772,-57.8813
 L 654.444,-61 L 654.772,-64.1187 L 655.741,-67.101 L 657.309,-69.8168 L 659.407,-72.1472 L 661.944,-73.9904
 L 664.809,-75.2658 L 667.877,-75.9178 L 671.012,-75.9178 L 674.08,-75.2658 L 676.944,-73.9904 L 679.481,-72.1472
 L 681.58,-69.8168 L 683.148,-67.101 L 684.117,-64.1187 L 684.444,-61 L 684.117,-57.8813 L 683.148,-54.899
 L 681.58,-52.1832 L 679.481,-49.8528 L 676.944,-48.0096 L 674.08,-46.7342 L 671.012,-46.0822 L 667.877,-46.0822
 z
M 709.254,-46.7342 L 706.389,-48.0096 L 703.852,-49.8528 L 701.754,-52.1832 L 700.186,-54.899 L 699.217,-57.8813
 L 698.889,-61 L 699.217,-64.1187 L 700.186,-67.101 L 701.754,-69.8168 L 703.852,-72.1472 L 706.389,-73.9904
 L 709.254,-75.2658 L 712.321,-75.9178 L 715.457,-75.9178 L 718.524,-75.2658 L 721.389,-73.9904 L 723.926,-72.1472
 L 726.024,-69.8168 L 727.592,-67.101 L 728.561,-64.1187 L 728.889,-61 L 728.561,-57.8813 L 727.592,-54.899
 L 726.024,-52.1832 L 723.926,-49.8528 L 721.389,-48.0096 L 718.524,-46.7342 L 715.457,-46.0822 L 712.321,-46.0822
 z
M 753.698,-46.7342 L 750.833,-48.0096 L 748.296,-49.8528 L 746.198,-52.1832 L 744.63,-54.899 L 743.661,-57.8813
 L 743.333,-61 L 743.661,-64.1187 L 744.63,-67.101 L 746.198,-69.8168 L 748.296,-72.1472 L 750.833,-73.9904
 L 753.698,-75.2658 L 756.765,-75.9178 L 759.901,-75.9178 L 762.969,-75.2658 L 765.833,-73.9904 L 768.37,-72.1472
 L 770.469,-69.8168 L 772.037,-67.101 L 773.006,-64.1187 L 773.333,-61 L 773.006,-57.8813 L 772.037,-54.899
 L 770.469,-52.1832 L 768.37,-49.8528 L 765.833,-48.0096 L 762.969,-46.7342 L 759.901,-46.0822 L 756.765,-46.0822
 z
M 798.143,-46.7342 L 795.278,-48.0096 L 792.741,-49.8528 L 790.643,-52.1832 L 789.075,-54.899 L 788.106,-57.8813
 L 787.778,-61 L 788.106,-64.1187 L 789.075,-67.101 L 790.643,-69.8168 L 792.741,-72.1472 L 795.278,-73.9904
 L 798.143,-75.2658 L 801.21,-75.9178 L 804.346,-75.9178 L 807.413,-75.2658 L 810.278,-73.9904 L 812.815,-72.1472
 L 814.913,-69.8168 L 816.481,-67.101 L 817.45,-64.1187 L 817.778,-61 L 817.45,-57.8813 L 816.481,-54.899
 L 814.913,-52.1832 L 812.815,-49.8528 L 810.278,-48.0096 L 807.413,-46.7342 L 804.346,-46.0822 L 801.21,-46.0822
 z
M 842.587,-46.7342 L 839.722,-48.0096 L 837.185,-49.8528 L 835.087,-52.1832 L 833.519,-54.899 L 832.55,-57.8813
 L 832.222,-61 L 832.55,-64.1187 L 833.519,-67.101 L 835.087,-69.8168 L 837.185,-72.1472 L 839.722,-73.9904
 L 842.587,-75.2658 L 845.654,-75.9178 L 848.79,-75.9178 L 851.857,-75.2658 L 854.722,-73.9904 L 857.259,-72.1472
 L 859.357,-69.8168 L 860.925,-67.101 L 861.894,-64.1187 L 862.222,-61 L 861.894,-57.8813 L 860.925,-54.899
 L 859.357,-52.1832 L 857.259,-49.8528 L 854.722,-48.0096 L 851.857,-46.7342 L 848.79,-46.0822 L 845.654,-46.0822
 z
M 887.031,-46.7342 L 884.167,-48.0096 L 881.63,-49.8528 L 879.531,-52.1832 L 877.963,-54.899 L 876.994,-57.8813
 L 876.667,-61 L 876.994,-64.1187 L 877.963,-67.101 L 879.531,-69.8168 L 881.63,-72.1472 L 884.167,-73.9904
 L 887.031,-75.2658 L 890.099,-75.9178 L 893.235,-75.9178 L 896.302,-75.2658 L 899.167,-73.9904 L 901.704,-72.1472
 L 903.802,-69.8168 L 905.37,-67.101 L 906.339,-64.1187 L 906.667,-61 L 906.339,-57.8813 L 905.37,-54.899
 L 903.802,-52.1832 L 901.704,-49.8528 L 899.167,-48.0096 L 896.302,-46.7342 L 893.235,-46.0822 L 890.099,-46.0822
 z
M 931.476,-46.7342 L 928.611,-48.0096 L 926.074,-49.8528 L 923.976,-52.1832 L 922.408,-54.899 L 921.439,-57.8813
 L 921.111,-61 L 921.439,-64.1187 L 922.408,-67.101 L 923.976,-69.8168 L 926.074,-72.1472 L 928.611,-73.9904
 L 931.476,-75.2658 L 934.543,-75.9178 L 937.679,-75.9178 L 940.746,-75.2658 L 943.611,-73.9904 L 946.148,-72.1472
 L 948.246,-69.8168 L 949.814,-67.101 L 950.783,-64.1187 L 951.111,-61 L 950.783,-57.8813 L 949.814,-54.899
 L 948.246,-52.1832 L 946.148,-49.8528 L 943.611,-48.0096 L 940.746,-46.7342 L 937.679,-46.0822 L 934.543,-46.0822
 z
M 975.92,-46.7342 L 973.056,-48.0096 L 970.519,-49.8528 L 968.42,-52.1832 L 966.852,-54.899 L 965.883,-57.8813
 L 965.556,-61 L 965.883,-64.1187 L 966.852,-67.101 L 968.42,-69.8168 L 970.519,-72.1472 L 973.056,-73.9904
 L 975.92,-75.2658 L 978.988,-75.9178 L 982.123,-75.9178 L 985.191,-75.2658 L 988.056,-73.9904 L 990.593,-72.1472
 L 992.691,-69.8168 L 994.259,-67.101 L 995.228,-64.1187 L 995.556,-61 L 995.228,-57.8813 L 994.259,-54.899
 L 992.691,-52.1832 L 990.593,-49.8528 L 988.056,-48.0096 L 985.191,-46.7342 L 982.123,-46.0822 L 978.988,-46.0822
 z
M 300,-40 L 254,-40 L 254,-20 L 250,-20 L 250,-40 L 204,-40
 L 204,-20 L 200,-20 L 200,-40 L 154,-40 L 154,-20 L 150,-20
 L 150,-40 L 104,-40 L 104,-20 L 100,-20 L 100,-40 L 54,-40
 L 54,-20 L 50,-20 L 50,-40 L 0,-40 L 0,-0 L 300,-0
 z
M 170.365,-5.73415 L 167.5,-7.00962 L 164.963,-8.85283 L 162.865,-11.1832 L 161.297,-13.899 L 160.328,-16.8813
 L 160,-20 L 160.328,-23.1187 L 161.297,-26.101 L 162.865,-28.8168 L 164.963,-31.1472 L 167.5,-32.9904
 L 170.365,-34.2658 L 173.432,-34.9178 L 176.568,-34.9178 L 179.635,-34.2658 L 182.5,-32.9904 L 185.037,-31.1472
 L 187.135,-28.8168 L 188.703,-26.101 L 189.672,-23.1187 L 190,-20 L 189.672,-16.8813 L 188.703,-13.899
 L 187.135,-11.1832 L 185.037,-8.85283 L 182.5,-7.00962 L 179.635,-5.73415 L 176.568,-5.08217 L 173.432,-5.08217
 z
M 270.365,-5.73415 L 267.5,-7.00962 L 264.963,-8.85283 L 262.865,-11.1832 L 261.297,-13.899 L 260.328,-16.8813
 L 260,-20 L 260.328,-23.1187 L 261.297,-26.101 L 262.865,-28.8168 L 264.963,-31.1472 L 267.5,-32.9904
 L 270.365,-34.2658 L 273.432,-34.9178 L 276.568,-34.9178 L 279.635,-34.2658 L 282.5,-32.9904 L 285.037,-31.1472
 L 287.135,-28.8168 L 288.703,-26.101 L 289.672,-23.1187 L 290,-20 L 289.672,-16.8813 L 288.703,-13.899
 L 287.135,-11.1832 L 285.037,-8.85283 L 282.5,-7.00962 L 279.635,-5.73415 L 276.568,-5.08217 L 273.432,-5.08217
 z
M 1000,-40 L 959.556,-40 L 959.556,-20 L 955.556,-20 L 955.556,-40 L 915.111,-40
 L 915.111,-20 L 911.111,-20 L 911.111,-40 L 870.667,-40 L 870.667,-20 L 866.667,-20
 L 866.667,-40 L 826.222,-40 L 826.222,-20 L 822.222,-20 L 822.222,-40 L 781.778,-40
 L 781.778,-20 L 777.778,-20 L 777.778,-40 L 737.333,-40 L 737.333,-20 L 733.333,-20
 L 733.333,-40 L 692.889,-40 L 692.889,-20 L 688.889,-20 L 688.889,-40 L 648.444,-40
 L 648.444,-20 L 644.444,-20 L 644.444,-40 L 600,-40 L 600,-0 L 1000,-0
 z
M 620.365,-5.73415 L 617.5,-7.00962 L 614.963,-8.85283 L 612.865,-11.1832 L 611.297,-13.899 L 610.328,-16.8813
 L 610,-20 L 610.328,-23.1187 L 611.297,-26.101 L 612.865,-28.8168 L 614.963,-31.1472 L 617.5,-32.9904
 L 620.365,-34.2658 L 623.432,-34.9178 L 626.568,-34.9178 L 629.635,-34.2658 L 632.5,-32.9904 L 635.037,-31.1472
 L 637.135,-28.8168 L 638.703,-26.101 L 639.672,-23.1187 L 640,-20 L 639.672,-16.8813 L 638.703,-13.899
 L 637.135,-11.1832 L 635.037,-8.85283 L 632.5,-7.00962 L 629.635,-5.73415 L 626.568,-5.08217 L 623.432,-5.08217
 z
M 664.809,-5.73415 L 661.944,-7.00962 L 659.407,-8.85283 L 657.309,-11.1832 L 655.741,-13.899 L 654.772,-16.8813
 L 654.444,-20 L 654.772,-23.1187 L 655.741,-26.101 L 657.309,-28.8168 L 659.407,-31.1472 L 661.944,-32.9904
 L 664.809,-34.2658 L 667.877,-34.9178 L 671.012,-34.9178 L 674.08,-34.2658 L 676.944,-32.9904 L 679.481,-31.1472
 L 681.58,-28.8168 L 683.148,-26.101 L 684.117,-23.1187 L 684.444,-20 L 684.117,-16.8813 L 683.148,-13.899
 L 681.58,-11.1832 L 679.481,-8.85283 L 676.944,-7.00962 L 674.08,-5.73415 L 671.012,-5.08217 L 667.877,-5.08217
 z
M 709.254,-5.73415 L 706.389,-7.00962 L 703.852,-8.85283 L 701.754,-11.1832 L 700.186,-13.899 L 699.217,-16.8813
 L 698.889,-20 L 699.217,-23.1187 L 700.186,-26.101 L 701.754,-28.8168 L 703.852,-31.1472 L 706.389,-32.9904
 L 709.254,-34.2658 L 712.321,-34.9178 L 715.457,-34.9178 L 718.524,-34.2658 L 721.389,-32.9904 L 723.926,-31.1472
 L 726.024,-28.8168 L 727.592,-26.101 L 728.561,-23.1187 L 728.889,-20 L 728.561,-16.8813 L 727.592,-13.899
 L 726.024,-11.1832 L 723.926,-8.85283 L 721.389,-7.00962 L 718.524,-5.73415 L 715.457,-5.08217 L 712.321,-5.08217
 z
M 753.698,-5.73415 L 750.833,-7.00962 L 748.296,-8.85283 L 746.198,-11.1832 L 744.63,-13.899 L 743.661,-16.8813
 L 743.333,-20 L 743.661,-23.1187 L 744.63,-26.101 L 746.198,-28.8168 L 748.296,-31.1472 L 750.833,-32.9904
 L 753.698,-34.2658 L 756.765,-34.9178 L 759.901,-34.9178 L 762.969,-34.2658 L 765.833,-32.9904 L 768.37,-31.1472
 L 770.469,-28.8168 L 772.037,-26.101 L 773.006,-23.1187 L 773.333,-20 L 773.006,-16.8813 L 772.037,-13.899
 L 770.469,-11.1832 L 768.37,-8.85283 L 765.833,-7.00962 L 762.969,-5.73415 L 759.901,-5.08217 L 756.765,-5.08217
 z
M 798.143,-5.73415 L 795.278,-7.00962 L 792.741,-8.85283 L 790.643,-11.1832 L 789.075,-13.899 L 788.106,-16.8813
 L 787.778,-20 L 788.106,-23.1187 L 789.075,-26.101 L 790.643,-28.8168 L 792.741,-31.1472 L 795.278,-32.9904
 L 798.143,-34.2658 L 801.21,-34.9178 L 804.346,-34.9178 L 807.413,-34.2658 L 810.278,-32.9904 L 812.815,-31.1472
 L 814.913,-28.8168 L 816.481,-26.101 L 817.45,-23.1187 L 817.778,-20 L 817.45,-16.8813 L 816.481,-13.899
 L 814.913,-11.1832 L 812.815,-8.85283 L 810.278,-7.00962 L 807.413,-5.73415 L 804.346,-5.08217 L 801.21,-5.08217
 z
M 842.587,-5.73415 L 839.722,-7.00962 L 837.185,-8.85283 L 835.087,-11.1832 L 833.519,-13.899 L 832.55,-16.8813
 L 832.222,-20 L 832.55,-23.1187 L 833.519,-26.101 L 835.087,-28.8168 L 837.185,-31.1472 L 839.722,-32.9904
 L 842.587,-34.2658 L 845.654,-34.9178 L 848.79,-34.9178 L 851.857,-34.2658 L 854.722,-32.9904 L 857.259,-31.1472
 L 859.357,-28.8168 L 860.925,-26.101 L 861.894,-23.1187 L 862.222,-20 L 861.894,-16.8813 L 860.925,-13.899
 L 859.357,-11.1832 L 857.259,-8.85283 L 854.722,-7.00962 L 851.857,-5.73415 L 848.79,-5.08217 L 845.654,-5.08217
 z
M 887.031,-5.73415 L 884.167,-7.00962 L 881.63,-8.85283 L 879.531,-11.1832 L 877.963,-13.899 L 876.994,-16.8813
 L 876.667,-20 L 876.994,-23.1187 L 877.963,-26.101 L 879.531,-28.8168 L 881.63,-31.1472 L 884.167,-32.9904
 L 887.031,-34.2658 L 890.099,-34.9178 L 893.235,-34.9178 L 896.302,-34.2658 L 899.167,-32.9904 L 901.704,-31.1472
 L 903.802,-28.8168 L 905.37,-26.101 L 906.339,-23.1187 L 906.667,-20 L 906.339,-16.8813 L 905.37,-13.899
 L 903.802,-11.1832 L 901.704,-8.85283 L 899.167,-7.00962 L 896.302,-5.73415 L 893.235,-5.08217 L 890.099,-5.08217
 z
M 931.476,-5.73415 L 928.611,-7.00962 L 926.074,-8.85283 L 923.976,-11.1832 L 922.408,-13.899 L 921.439,-16.8813
 L 921.111,-20 L 921.439,-23.1187 L 922.408,-26.101 L 923.976,-28.8168 L 926.074,-31.1472 L 928.611,-32.9904
 L 931.476,-34.2658 L 934.543,-34.9178 L 937.679,-34.9178 L 940.746,-34.2658 L 943.611,-32.9904 L 946.148,-31.1472
 L 948.246,-28.8168 L 949.814,-26.101 L 950.783,-23.1187 L 951.111,-20 L 950.783,-16.8813 L 949.814,-13.899
 L 948.246,-11.1832 L 946.148,-8.85283 L 943.611,-7.00962 L 940.746,-5.73415 L 937.679,-5.08217 L 934.543,-5.08217
 z
M 975.92,-5.73415 L 973.056,-7.00962 L 970.519,-8.85283 L 968.42,-11.1832 L 966.852,-13.899 L 965.883,-16.8813
 L 965.556,-20 L 965.883,-23.1187 L 966.852,-26.101 L 968.42,-28.8168 L 970.519,-31.1472 L 973.056,-32.9904
 L 975.92,-34.2658 L 978.988,-34.9178 L 982.123,-34.9178 L 985.191,-34.2658 L 988.056,-32.9904 L 990.593,-31.1472
 L 992.691,-28.8168 L 994.259,-26.101 L 995.228,-23.1187 L 995.556,-20 L 995.228,-16.8813 L 994.259,-13.899
 L 992.691,-11.1832 L 990.593,-8.85283 L 988.056,-7.00962 L 985.191,-5.73415 L 982.123,-5.08217 L 978.988,-5.08217
 z
" stroke="black" fill="lightgray" stroke-width="0.5"/>
</svg>
