<?xml version="1.0" standalone="no"?>
<!DOCTYPE svg PUBLIC "-//W3C//DTD SVG 1.1//EN" "http://www.w3.org/Graphics/SVG/1.1/DTD/svg11.dtd">
<svg width="1230mm" height="354mm" viewBox="0 -354 1230 354" xmlns="http://www.w3.org/2000/svg" version="1.1">
<title>OpenSCAD Model</title>
<path d="
M 438,-354 L 333.4,-354 L 333.4,-319 L 328.5,-319 L 328.5,-354 L 223.9,-354
 L 223.9,-319 L 219,-319 L 219,-354 L 114.4,-354 L 114.4,-319 L 109.5,-319
 L 109.5,-354 L 0,-354 L 0,-284 L 438,-284 z
M 267.57,-299.979 L 263.75,-301.679 L 260.367,-304.137 L 257.57,-307.244 L 255.479,-310.865 L 254.187,-314.842
 L 253.75,-319 L 254.187,-323.158 L 255.479,-327.135 L 257.57,-330.756 L 260.367,-333.863 L 263.75,-336.321
 L 267.57,-338.021 L 271.659,-338.89 L 275.841,-338.89 L 279.93,-338.021 L 283.75,-336.321 L 287.133,-333.863
 L 289.93,-330.756 L 292.021,-327.135 L 293.313,-323.158 L 293.75,-319 L 293.313,-314.842 L 292.021,-310.865
 L 289.93,-307.244 L 287.133,-304.137 L 283.75,-301.679 L 279.93,-299.979 L 275.841,-299.11 L 271.659,-299.11
 z
M 377.07,-299.979 L 373.25,-301.679 L 369.867,-304.137 L 367.07,-307.244 L 364.979,-310.865 L 363.687,-314.842
 L 363.25,-319 L 363.687,-323.158 L 364.979,-327.135 L 367.07,-330.756 L 369.867,-333.863 L 373.25,-336.321
 L 377.07,-338.021 L 381.159,-338.89 L 385.341,-338.89 L 389.43,-338.021 L 393.25,-336.321 L 396.633,-333.863
 L 399.43,-330.756 L 401.521,-327.135 L 402.813,-323.158 L 403.25,-319 L 402.813,-314.842 L 401.521,-310.865
 L 399.43,-307.244 L 396.633,-304.137 L 393.25,-301.679 L 389.43,-299.979 L 385.341,-299.11 L 381.159,-299.11
 z
M 438,-283 L 333.4,-283 L 333.4,-248 L 328.5,-248 L 328.5,-283 L 223.9,-283
 L 223.9,-248 L 219,-248 L 219,-283 L 114.4,-283 L 114.4,-248 L 109.5,-248
 L 109.5,-283 L 0,-283 L 0,-213 L 438,-213 z
M 48.5697,-228.979 L 44.75,-230.679 L 41.3674,-233.137 L 38.5697,-236.244 L 36.4791,-239.865 L 35.187,-243.842
 L 34.75,-248 L 35.187,-252.158 L 36.4791,-256.135 L 38.5697,-259.756 L 41.3674,-262.863 L 44.75,-265.321
 L 48.5697,-267.021 L 52.6594,-267.89 L 56.8406,-267.89 L 60.9303,-267.021 L 64.75,-265.321 L 68.1326,-262.863
 L 70.9303,-259.756 L 73.0209,-256.135 L 74.313,-252.158 L 74.75,-248 L 74.313,-243.842 L 73.0209,-239.865
 L 70.9303,-236.244 L 68.1326,-233.137 L 64.75,-230.679 L 60.9303,-228.979 L 56.8406,-228.11 L 52.6594,-228.11
 z
M 158.07,-228.979 L 154.25,-230.679 L 150.867,-233.137 L 148.07,-236.244 L 145.979,-239.865 L 144.687,-243.842
 L 144.25,-248 L 144.687,-252.158 L 145.979,-256.135 L 148.07,-259.756 L 150.867,-262.863 L 154.25,-265.321
 L 158.07,-267.021 L 162.159,-267.89 L 166.341,-267.89 L 170.43,-267.021 L 174.25,-265.321 L 177.633,-262.863
 L 180.43,-259.756 L 182.521,-256.135 L 183.813,-252.158 L 184.25,-248 L 183.813,-243.842 L 182.521,-239.865
 L 180.43,-236.244 L 177.633,-233.137 L 174.25,-230.679 L 170.43,-228.979 L 166.341,-228.11 L 162.159,-228.11
 z
M 438,-212 L 333.4,-212 L 333.4,-177 L 328.5,-177 L 328.5,-212 L 223.9,-212
 L 223.9,-177 L 219,-177 L 219,-212 L 114.4,-212 L 114.4,-177 L 109.5,-177
 L 109.5,-212 L 0,-212 L 0,-142 L 438,-142 z
M 267.57,-157.979 L 263.75,-159.679 L 260.367,-162.137 L 257.57,-165.244 L 255.479,-168.865 L 254.187,-172.842
 L 253.75,-177 L 254.187,-181.158 L 255.479,-185.135 L 257.57,-188.756 L 260.367,-191.863 L 263.75,-194.321
 L 267.57,-196.021 L 271.659,-196.89 L 275.841,-196.89 L 279.93,-196.021 L 283.75,-194.321 L 287.133,-191.863
 L 289.93,-188.756 L 292.021,-185.135 L 293.313,-181.158 L 293.75,-177 L 293.313,-172.842 L 292.021,-168.865
 L 289.93,-165.244 L 287.133,-162.137 L 283.75,-159.679 L 279.93,-157.979 L 275.841,-157.11 L 271.659,-157.11
 z
M 377.07,-157.979 L 373.25,-159.679 L 369.867,-162.137 L 367.07,-165.244 L 364.979,-168.865 L 363.687,-172.842
 L 363.25,-177 L 363.687,-181.158 L 364.979,-185.135 L 367.07,-188.756 L 369.867,-191.863 L 373.25,-194.321
 L 377.07,-196.021 L 381.159,-196.89 L 385.341,-196.89 L 389.43,-196.021 L 393.25,-194.321 L 396.633,-191.863
 L 399.43,-188.756 L 401.521,-185.135 L 402.813,-181.158 L 403.25,-177 L 402.813,-172.842 L 401.521,-168.865
 L 399.43,-165.244 L 396.633,-162.137 L 393.25,-159.679 L 389.43,-157.979 L 385.341,-157.11 L 381.159,-157.11
 z
M 1230,-212 L 1129.9,-212 L 1129.9,-177 L 1125,-177 L 1125,-212 L 1024.9,-212
 L 1024.9,-177 L 1020,-177 L 1020,-212 L 919.9,-212 L 919.9,-177 L 915,-177
 L 915,-212 L 814.9,-212 L 814.9,-177 L 810,-177 L 810,-212 L 709.9,-212
 L 709.9,-177 L 705,-177 L 705,-212 L 600,-212 L 600,-142 L 1230,-142
 z
M 762.57,-162.979 L 758.75,-164.679 L 755.367,-167.137 L 752.57,-170.244 L 750.479,-173.865 L 749.187,-177.842
 L 748.75,-182 L 749.187,-186.158 L 750.479,-190.135 L 752.57,-193.756 L 755.367,-196.863 L 758.75,-199.321
 L 762.57,-201.021 L 766.659,-201.89 L 770.841,-201.89 L 774.93,-201.021 L 778.75,-199.321 L 782.133,-196.863
 L 784.93,-193.756 L 787.021,-190.135 L 788.313,-186.158 L 788.75,-182 L 788.313,-177.842 L 787.021,-173.865
 L 784.93,-170.244 L 782.133,-167.137 L 778.75,-164.679 L 774.93,-162.979 L 770.841,-162.11 L 766.659,-162.11
 z
M 1182.57,-162.979 L 1178.75,-164.679 L 1175.37,-167.137 L 1172.57,-170.244 L 1170.48,-173.865 L 1169.19,-177.842
 L 1168.75,-182 L 1169.19,-186.158 L 1170.48,-190.135 L 1172.57,-193.756 L 1175.37,-196.863 L 1178.75,-199.321
 L 1182.57,-201.021 L 1186.66,-201.89 L 1190.84,-201.89 L 1194.93,-201.021 L 1198.75,-199.321 L 1202.13,-196.863
 L 1204.93,-193.756 L 1207.02,-190.135 L 1208.31,-186.158 L 1208.75,-182 L 1208.31,-177.842 L 1207.02,-173.865
 L 1204.93,-170.244 L 1202.13,-167.137 L 1198.75,-164.679 L 1194.93,-162.979 L 1190.84,-162.11 L 1186.66,-162.11
 z
M 981.57,-161.979 L 977.75,-163.679 L 974.367,-166.137 L 971.57,-169.244 L 969.479,-172.865 L 968.187,-176.842
 L 967.75,-181 L 968.187,-185.158 L 969.479,-189.135 L 971.57,-192.756 L 974.367,-195.863 L 977.75,-198.321
 L 981.57,-200.021 L 985.659,-200.89 L 989.841,-200.89 L 993.93,-200.021 L 997.75,-198.321 L 1001.13,-195.863
 L 1003.93,-192.756 L 1006.02,-189.135 L 1007.31,-185.158 L 1007.75,-181 L 1007.31,-176.842 L 1006.02,-172.865
 L 1003.93,-169.244 L 1001.13,-166.137 L 997.75,-163.679 L 993.93,-161.979 L 989.841,-161.11 L 985.659,-161.11
 z
M 857.57,-158.979 L 853.75,-160.679 L 850.367,-163.137 L 847.57,-166.244 L 845.479,-169.865 L 844.187,-173.842
 L 843.75,-178 L 844.187,-182.158 L 845.479,-186.135 L 847.57,-189.756 L 850.367,-192.863 L 853.75,-195.321
 L 857.57,-197.021 L 861.659,-197.89 L 865.841,-197.89 L 869.93,-197.021 L 873.75,-195.321 L 877.133,-192.863
 L 879.93,-189.756 L 882.021,-186.135 L 883.313,-182.158 L 883.75,-178 L 883.313,-173.842 L 882.021,-169.865
 L 879.93,-166.244 L 877.133,-163.137 L 873.75,-160.679 L 869.93,-158.979 L 865.841,-158.11 L 861.659,-158.11
 z
M 670.57,-156.979 L 666.75,-158.679 L 663.367,-161.137 L 660.57,-164.244 L 658.479,-167.865 L 657.187,-171.842
 L 656.75,-176 L 657.187,-180.158 L 658.479,-184.135 L 660.57,-187.756 L 663.367,-190.863 L 666.75,-193.321
 L 670.57,-195.021 L 674.659,-195.89 L 678.841,-195.89 L 682.93,-195.021 L 686.75,-193.321 L 690.133,-190.863
 L 692.93,-187.756 L 695.021,-184.135 L 696.313,-180.158 L 696.75,-176 L 696.313,-171.842 L 695.021,-167.865
 L 692.93,-164.244 L 690.133,-161.137 L 686.75,-158.679 L 682.93,-156.979 L 678.841,-156.11 L 674.659,-156.11
 z
M 1087.57,-153.979 L 1083.75,-155.679 L 1080.37,-158.137 L 1077.57,-161.244 L 1075.48,-164.865 L 1074.19,-168.842
 L 1073.75,-173 L 1074.19,-177.158 L 1075.48,-181.135 L 1077.57,-184.756 L 1080.37,-187.863 L 1083.75,-190.321
 L 1087.57,-192.021 L 1091.66,-192.89 L 1095.84,-192.89 L 1099.93,-192.021 L 1103.75,-190.321 L 1107.13,-187.863
 L 1109.93,-184.756 L 1112.02,-181.135 L 1113.31,-177.158 L 1113.75,-173 L 1113.31,-168.842 L 1112.02,-164.865
 L 1109.93,-161.244 L 1107.13,-158.137 L 1103.75,-155.679 L 1099.93,-153.979 L 1095.84,-153.11 L 1091.66,-153.11
 z
M 438,-141 L 333.4,-141 L 333.4,-106 L 328.5,-106 L 328.5,-141 L 223.9,-141
 L 223.9,-106 L 219,-106 L 219,-141 L 114.4,-141 L 114.4,-106 L 109.5,-106
 L 109.5,-141 L 0,-141 L 0,-71 L 438,-71 z
M 48.5697,-86.9789 L 44.75,-88.6795 L 41.3674,-91.1371 L 38.5697,-94.2443 L 36.4791,-97.8653 L 35.187,-101.842
 L 34.75,-106 L 35.187,-110.158 L 36.4791,-114.135 L 38.5697,-117.756 L 41.3674,-120.863 L 44.75,-123.321
 L 48.5697,-125.021 L 52.6594,-125.89 L 56.8406,-125.89 L 60.9303,-125.021 L 64.75,-123.321 L 68.1326,-120.863
 L 70.9303,-117.756 L 73.0209,-114.135 L 74.313,-110.158 L 74.75,-106 L 74.313,-101.842 L 73.0209,-97.8653
 L 70.9303,-94.2443 L 68.1326,-91.1371 L 64.75,-88.6795 L 60.9303,-86.9789 L 56.8406,-86.1096 L 52.6594,-86.1096
 z
M 158.07,-86.9789 L 154.25,-88.6795 L 150.867,-91.1371 L 148.07,-94.2443 L 145.979,-97.8653 L 144.687,-101.842
 L 144.25,-106 L 144.687,-110.158 L 145.979,-114.135 L 148.07,-117.756 L 150.867,-120.863 L 154.25,-123.321
 L 158.07,-125.021 L 162.159,-125.89 L 166.341,-125.89 L 170.43,-125.021 L 174.25,-123.321 L 177.633,-120.863
 L 180.43,-117.756 L 182.521,-114.135 L 183.813,-110.158 L 184.25,-106 L 183.813,-101.842 L 182.521,-97.8653
 L 180.43,-94.2443 L 177.633,-91.1371 L 174.25,-88.6795 L 170.43,-86.9789 L 166.341,-86.1096 L 162.159,-86.1096
 z
M 1230,-141 L 1129.9,-141 L 1129.9,-106 L 1125,-106 L 1125,-141 L 1024.9,-141
 L 1024.9,-106 L 1020,-106 L 1020,-141 L 919.9,-141 L 919.9,-106 L 915,-106
 L 915,-141 L 814.9,-141 L 814.9,-106 L 810,-106 L 810,-141 L 709.9,-141
 L 709.9,-106 L 705,-106 L 705,-141 L 600,-141 L 600,-71 L 1230,-71
 z
M 1171.57,-87.9789 L 1167.75,-89.6795 L 1164.37,-92.1371 L 1161.57,-95.2443 L 1159.48,-98.8653 L 1158.19,-102.842
 L 1157.75,-107 L 1158.19,-111.158 L 1159.48,-115.135 L 1161.57,-118.756 L 1164.37,-121.863 L 1167.75,-124.321
 L 1171.57,-126.021 L 1175.66,-126.89 L 1179.84,-126.89 L 1183.93,-126.021 L 1187.75,-124.321 L 1191.13,-121.863
 L 1193.93,-118.756 L 1196.02,-115.135 L 1197.31,-111.158 L 1197.75,-107 L 1197.31,-102.842 L 1196.02,-98.8653
 L 1193.93,-95.2443 L 1191.13,-92.1371 L 1187.75,-89.6795 L 1183.93,-87.9789 L 1179.84,-87.1096 L 1175.66,-87.1096
 z
M 975.57,-86.9789 L 971.75,-88.6795 L 968.367,-91.1371 L 965.57,-94.2443 L 963.479,-97.8653 L 962.187,-101.842
 L 961.75,-106 L 962.187,-110.158 L 963.479,-114.135 L 965.57,-117.756 L 968.367,-120.863 L 971.75,-123.321
 L 975.57,-125.021 L 979.659,-125.89 L 983.841,-125.89 L 987.93,-125.021 L 991.75,-123.321 L 995.133,-120.863
 L 997.93,-117.756 L 1000.02,-114.135 L 1001.31,-110.158 L 1001.75,-106 L 1001.31,-101.842 L 1000.02,-97.8653
 L 997.93,-94.2443 L 995.133,-91.1371 L 991.75,-88.6795 L 987.93,-86.9789 L 983.841,-86.1096 L 979.659,-86.1096
 z
M 768.57,-85.9789 L 764.75,-87.6795 L 761.367,-90.1371 L 758.57,-93.2443 L 756.479,-96.8653 L 755.187,-100.842
 L 754.75,-105 L 755.187,-109.158 L 756.479,-113.135 L 758.57,-116.756 L 761.367,-119.863 L 764.75,-122.321
 L 768.57,-124.021 L 772.659,-124.89 L 776.841,-124.89 L 780.93,-124.021 L 784.75,-122.321 L 788.133,-119.863
 L 790.93,-116.756 L 793.021,-113.135 L 794.313,-109.158 L 794.75,-105 L 794.313,-100.842 L 793.021,-96.8653
 L 790.93,-93.2443 L 788.133,-90.1371 L 784.75,-87.6795 L 780.93,-85.9789 L 776.841,-85.1096 L 772.659,-85.1096
 z
M 1055.57,-83.9789 L 1051.75,-85.6795 L 1048.37,-88.1371 L 1045.57,-91.2443 L 1043.48,-94.8653 L 1042.19,-98.8418
 L 1041.75,-103 L 1042.19,-107.158 L 1043.48,-111.135 L 1045.57,-114.756 L 1048.37,-117.863 L 1051.75,-120.321
 L 1055.57,-122.021 L 1059.66,-122.89 L 1063.84,-122.89 L 1067.93,-122.021 L 1071.75,-120.321 L 1075.13,-117.863
 L 1077.93,-114.756 L 1080.02,-111.135 L 1081.31,-107.158 L 1081.75,-103 L 1081.31,-98.8418 L 1080.02,-94.8653
 L 1077.93,-91.2443 L 1075.13,-88.1371 L 1071.75,-85.6795 L 1067.93,-83.9789 L 1063.84,-83.1096 L 1059.66,-83.1096
 z
M 656.57,-81.9789 L 652.75,-83.6795 L 649.367,-86.1371 L 646.57,-89.2443 L 644.479,-92.8653 L 643.187,-96.8418
 L 642.75,-101 L 643.187,-105.158 L 644.479,-109.135 L 646.57,-112.756 L 649.367,-115.863 L 652.75,-118.321
 L 656.57,-120.021 L 660.659,-120.89 L 664.841,-120.89 L 668.93,-120.021 L 672.75,-118.321 L 676.133,-115.863
 L 678.93,-112.756 L 681.021,-109.135 L 682.313,-105.158 L 682.75,-101 L 682.313,-96.8418 L 681.021,-92.8653
 L 678.93,-89.2443 L 676.133,-86.1371 L 672.75,-83.6795 L 668.93,-81.9789 L 664.841,-81.1096 L 660.659,-81.1096
 z
M 836.57,-81.9789 L 832.75,-83.6795 L 829.367,-86.1371 L 826.57,-89.2443 L 824.479,-92.8653 L 823.187,-96.8418
 L 822.75,-101 L 823.187,-105.158 L 824.479,-109.135 L 826.57,-112.756 L 829.367,-115.863 L 832.75,-118.321
 L 836.57,-120.021 L 840.659,-120.89 L 844.841,-120.89 L 848.93,-120.021 L 852.75,-118.321 L 856.133,-115.863
 L 858.93,-112.756 L 861.021,-109.135 L 862.313,-105.158 L 862.75,-101 L 862.313,-96.8418 L 861.021,-92.8653
 L 858.93,-89.2443 L 856.133,-86.1371 L 852.75,-83.6795 L 848.93,-81.9789 L 844.841,-81.1096 L 840.659,-81.1096
 z
M 438,-70 L 333.4,-70 L 333.4,-35 L 328.5,-35 L 328.5,-70 L 223.9,-70
 L 223.9,-35 L 219,-35 L 219,-70 L 114.4,-70 L 114.4,-35 L 109.5,-35
 L 109.5,-70 L 0,-70 L 0,-0 L 438,-0 z
M 267.57,-15.9789 L 263.75,-17.6795 L 260.367,-20.1371 L 257.57,-23.2443 L 255.479,-26.8653 L 254.187,-30.8418
 L 253.75,-35 L 254.187,-39.1582 L 255.479,-43.1347 L 257.57,-46.7557 L 260.367,-49.8629 L 263.75,-52.3205
 L 267.57,-54.0211 L 271.659,-54.8904 L 275.841,-54.8904 L 279.93,-54.0211 L 283.75,-52.3205 L 287.133,-49.8629
 L 289.93,-46.7557 L 292.021,-43.1347 L 293.313,-39.1582 L 293.75,-35 L 293.313,-30.8418 L 292.021,-26.8653
 L 289.93,-23.2443 L 287.133,-20.1371 L 283.75,-17.6795 L 279.93,-15.9789 L 275.841,-15.1096 L 271.659,-15.1096
 z
M 377.07,-15.9789 L 373.25,-17.6795 L 369.867,-20.1371 L 367.07,-23.2443 L 364.979,-26.8653 L 363.687,-30.8418
 L 363.25,-35 L 363.687,-39.1582 L 364.979,-43.1347 L 367.07,-46.7557 L 369.867,-49.8629 L 373.25,-52.3205
 L 377.07,-54.0211 L 381.159,-54.8904 L 385.341,-54.8904 L 389.43,-54.0211 L 393.25,-52.3205 L 396.633,-49.8629
 L 399.43,-46.7557 L 401.521,-43.1347 L 402.813,-39.1582 L 403.25,-35 L 402.813,-30.8418 L 401.521,-26.8653
 L 399.43,-23.2443 L 396.633,-20.1371 L 393.25,-17.6795 L 389.43,-15.9789 L 385.341,-15.1096 L 381.159,-15.1096
 z
M 1230,-70 L 1129.9,-70 L 1129.9,-35 L 1125,-35 L 1125,-70 L 1024.9,-70
 L 1024.9,-35 L 1020,-35 L 1020,-70 L 919.9,-70 L 919.9,-35 L 915,-35
 L 915,-70 L 814.9,-70 L 814.9,-35 L 810,-35 L 810,-70 L 709.9,-70
 L 709.9,-35 L 705,-35 L 705,-70 L 600,-70 L 600,-0 L 1230,-0
 z
M 650.57,-18.9789 L 646.75,-20.6795 L 643.367,-23.1371 L 640.57,-26.2443 L 638.479,-29.8653 L 637.187,-33.8418
 L 636.75,-38 L 637.187,-42.1582 L 638.479,-46.1347 L 640.57,-49.7557 L 643.367,-52.8629 L 646.75,-55.3205
 L 650.57,-57.0211 L 654.659,-57.8904 L 658.841,-57.8904 L 662.93,-57.0211 L 666.75,-55.3205 L 670.133,-52.8629
 L 672.93,-49.7557 L 675.021,-46.1347 L 676.313,-42.1582 L 676.75,-38 L 676.313,-33.8418 L 675.021,-29.8653
 L 672.93,-26.2443 L 670.133,-23.1371 L 666.75,-20.6795 L 662.93,-18.9789 L 658.841,-18.1096 L 654.659,-18.1096
 z
M 956.57,-16.9789 L 952.75,-18.6795 L 949.367,-21.1371 L 946.57,-24.2443 L 944.479,-27.8653 L 943.187,-31.8418
 L 942.75,-36 L 943.187,-40.1582 L 944.479,-44.1347 L 946.57,-47.7557 L 949.367,-50.8629 L 952.75,-53.3205
 L 956.57,-55.0211 L 960.659,-55.8904 L 964.841,-55.8904 L 968.93,-55.0211 L 972.75,-53.3205 L 976.133,-50.8629
 L 978.93,-47.7557 L 981.021,-44.1347 L 982.313,-40.1582 L 982.75,-36 L 982.313,-31.8418 L 981.021,-27.8653
 L 978.93,-24.2443 L 976.133,-21.1371 L 972.75,-18.6795 L 968.93,-16.9789 L 964.841,-16.1096 L 960.659,-16.1096
 z
M 1061.57,-13.9789 L 1057.75,-15.6795 L 1054.37,-18.1371 L 1051.57,-21.2443 L 1049.48,-24.8653 L 1048.19,-28.8418
 L 1047.75,-33 L 1048.19,-37.1582 L 1049.48,-41.1347 L 1051.57,-44.7557 L 1054.37,-47.8629 L 1057.75,-50.3205
 L 1061.57,-52.0211 L 1065.66,-52.8904 L 1069.84,-52.8904 L 1073.93,-52.0211 L 1077.75,-50.3205 L 1081.13,-47.8629
 L 1083.93,-44.7557 L 1086.02,-41.1347 L 1087.31,-37.1582 L 1087.75,-33 L 1087.31,-28.8418 L 1086.02,-24.8653
 L 1083.93,-21.2443 L 1081.13,-18.1371 L 1077.75,-15.6795 L 1073.93,-13.9789 L 1069.84,-13.1096 L 1065.66,-13.1096
 z
M 761.57,-11.9789 L 757.75,-13.6795 L 754.367,-16.1371 L 751.57,-19.2443 L 749.479,-22.8653 L 748.187,-26.8418
 L 747.75,-31 L 748.187,-35.1582 L 749.479,-39.1347 L 751.57,-42.7557 L 754.367,-45.8629 L 757.75,-48.3205
 L 761.57,-50.0211 L 765.659,-50.8904 L 769.841,-50.8904 L 773.93,-50.0211 L 777.75,-48.3205 L 781.133,-45.8629
 L 783.93,-42.7557 L 786.021,-39.1347 L 787.313,-35.1582 L 787.75,-31 L 787.313,-26.8418 L 786.021,-22.8653
 L 783.93,-19.2443 L 781.133,-16.1371 L 777.75,-13.6795 L 773.93,-11.9789 L 769.841,-11.1096 L 765.659,-11.1096
 z
M 873.57,-11.9789 L 869.75,-13.6795 L 866.367,-16.1371 L 863.57,-19.2443 L 861.479,-22.8653 L 860.187,-26.8418
 L 859.75,-31 L 860.187,-35.1582 L 861.479,-39.1347 L 863.57,-42.7557 L 866.367,-45.8629 L 869.75,-48.3205
 L 873.57,-50.0211 L 877.659,-50.8904 L 881.841,-50.8904 L 885.93,-50.0211 L 889.75,-48.3205 L 893.133,-45.8629
 L 895.93,-42.7557 L 898.021,-39.1347 L 899.313,-35.1582 L 899.75,-31 L 899.313,-26.8418 L 898.021,-22.8653
 L 895.93,-19.2443 L 893.133,-16.1371 L 889.75,-13.6795 L 885.93,-11.9789 L 881.841,-11.1096 L 877.659,-11.1096
 z
M 1156.57,-11.9789 L 1152.75,-13.6795 L 1149.37,-16.1371 L 1146.57,-19.2443 L 1144.48,-22.8653 L 1143.19,-26.8418
 L 1142.75,-31 L 1143.19,-35.1582 L 1144.48,-39.1347 L 1146.57,-42.7557 L 1149.37,-45.8629 L 1152.75,-48.3205
 L 1156.57,-50.0211 L 1160.66,-50.8904 L 1164.84,-50.8904 L 1168.93,-50.0211 L 1172.75,-48.3205 L 1176.13,-45.8629
 L 1178.93,-42.7557 L 1181.02,-39.1347 L 1182.31,-35.1582 L 1182.75,-31 L 1182.31,-26.8418 L 1181.02,-22.8653
 L 1178.93,-19.2443 L 1176.13,-16.1371 L 1172.75,-13.6795 L 1168.93,-11.9789 L 1164.84,-11.1096 L 1160.66,-11.1096
 z
" stroke="black" fill="lightgray" stroke-width="0.5"/>
</svg>
