<?xml version="1.0" standalone="no"?>
<!DOCTYPE svg PUBLIC "-//W3C//DTD SVG 1.1//EN" "http://www.w3.org/Graphics/SVG/1.1/DTD/svg11.dtd">
<svg width="1230mm" height="354mm" viewBox="0 -354 1230 354" xmlns="http://www.w3.org/2000/svg" version="1.1">
<title>OpenSCAD Model</title>
<path d="
M 430,-354 L 326.5,-354 L 326.5,-319 L 322.5,-319 L 322.5,-354 L 219,-354
 L 219,-319 L 215,-319 L 215,-354 L 111.5,-354 L 111.5,-319 L 107.5,-319
 L 107.5,-354 L 0,-354 L 0,-284 L 430,-284 z
M 262.57,-299.979 L 258.75,-301.679 L 255.367,-304.137 L 252.57,-307.244 L 250.479,-310.865 L 249.187,-314.842
 L 248.75,-319 L 249.187,-323.158 L 250.479,-327.135 L 252.57,-330.756 L 255.367,-333.863 L 258.75,-336.321
 L 262.57,-338.021 L 266.659,-338.89 L 270.841,-338.89 L 274.93,-338.021 L 278.75,-336.321 L 282.133,-333.863
 L 284.93,-330.756 L 287.021,-327.135 L 288.313,-323.158 L 288.75,-319 L 288.313,-314.842 L 287.021,-310.865
 L 284.93,-307.244 L 282.133,-304.137 L 278.75,-301.679 L 274.93,-299.979 L 270.841,-299.11 L 266.659,-299.11
 z
M 370.07,-299.979 L 366.25,-301.679 L 362.867,-304.137 L 360.07,-307.244 L 357.979,-310.865 L 356.687,-314.842
 L 356.25,-319 L 356.687,-323.158 L 357.979,-327.135 L 360.07,-330.756 L 362.867,-333.863 L 366.25,-336.321
 L 370.07,-338.021 L 374.159,-338.89 L 378.341,-338.89 L 382.43,-338.021 L 386.25,-336.321 L 389.633,-333.863
 L 392.43,-330.756 L 394.521,-327.135 L 395.813,-323.158 L 396.25,-319 L 395.813,-314.842 L 394.521,-310.865
 L 392.43,-307.244 L 389.633,-304.137 L 386.25,-301.679 L 382.43,-299.979 L 378.341,-299.11 L 374.159,-299.11
 z
M 430,-283 L 326.5,-283 L 326.5,-248 L 322.5,-248 L 322.5,-283 L 219,-283
 L 219,-248 L 215,-248 L 215,-283 L 111.5,-283 L 111.5,-248 L 107.5,-248
 L 107.5,-283 L 0,-283 L 0,-213 L 430,-213 z
M 47.5697,-228.979 L 43.75,-230.679 L 40.3674,-233.137 L 37.5697,-236.244 L 35.4791,-239.865 L 34.187,-243.842
 L 33.75,-248 L 34.187,-252.158 L 35.4791,-256.135 L 37.5697,-259.756 L 40.3674,-262.863 L 43.75,-265.321
 L 47.5697,-267.021 L 51.6594,-267.89 L 55.8406,-267.89 L 59.9303,-267.021 L 63.75,-265.321 L 67.1326,-262.863
 L 69.9303,-259.756 L 72.0209,-256.135 L 73.313,-252.158 L 73.75,-248 L 73.313,-243.842 L 72.0209,-239.865
 L 69.9303,-236.244 L 67.1326,-233.137 L 63.75,-230.679 L 59.9303,-228.979 L 55.8406,-228.11 L 51.6594,-228.11
 z
M 262.57,-228.979 L 258.75,-230.679 L 255.367,-233.137 L 252.57,-236.244 L 250.479,-239.865 L 249.187,-243.842
 L 248.75,-248 L 249.187,-252.158 L 250.479,-256.135 L 252.57,-259.756 L 255.367,-262.863 L 258.75,-265.321
 L 262.57,-267.021 L 266.659,-267.89 L 270.841,-267.89 L 274.93,-267.021 L 278.75,-265.321 L 282.133,-262.863
 L 284.93,-259.756 L 287.021,-256.135 L 288.313,-252.158 L 288.75,-248 L 288.313,-243.842 L 287.021,-239.865
 L 284.93,-236.244 L 282.133,-233.137 L 278.75,-230.679 L 274.93,-228.979 L 270.841,-228.11 L 266.659,-228.11
 z
M 430,-212 L 326.5,-212 L 326.5,-177 L 322.5,-177 L 322.5,-212 L 219,-212
 L 219,-177 L 215,-177 L 215,-212 L 111.5,-212 L 111.5,-177 L 107.5,-177
 L 107.5,-212 L 0,-212 L 0,-142 L 430,-142 z
M 155.07,-157.979 L 151.25,-159.679 L 147.867,-162.137 L 145.07,-165.244 L 142.979,-168.865 L 141.687,-172.842
 L 141.25,-177 L 141.687,-181.158 L 142.979,-185.135 L 145.07,-188.756 L 147.867,-191.863 L 151.25,-194.321
 L 155.07,-196.021 L 159.159,-196.89 L 163.341,-196.89 L 167.43,-196.021 L 171.25,-194.321 L 174.633,-191.863
 L 177.43,-188.756 L 179.521,-185.135 L 180.813,-181.158 L 181.25,-177 L 180.813,-172.842 L 179.521,-168.865
 L 177.43,-165.244 L 174.633,-162.137 L 171.25,-159.679 L 167.43,-157.979 L 163.341,-157.11 L 159.159,-157.11
 z
M 370.07,-157.979 L 366.25,-159.679 L 362.867,-162.137 L 360.07,-165.244 L 357.979,-168.865 L 356.687,-172.842
 L 356.25,-177 L 356.687,-181.158 L 357.979,-185.135 L 360.07,-188.756 L 362.867,-191.863 L 366.25,-194.321
 L 370.07,-196.021 L 374.159,-196.89 L 378.341,-196.89 L 382.43,-196.021 L 386.25,-194.321 L 389.633,-191.863
 L 392.43,-188.756 L 394.521,-185.135 L 395.813,-181.158 L 396.25,-177 L 395.813,-172.842 L 394.521,-168.865
 L 392.43,-165.244 L 389.633,-162.137 L 386.25,-159.679 L 382.43,-157.979 L 378.341,-157.11 L 374.159,-157.11
 z
M 1230,-212 L 1129,-212 L 1129,-177 L 1125,-177 L 1125,-212 L 1024,-212
 L 1024,-177 L 1020,-177 L 1020,-212 L 919,-212 L 919,-177 L 915,-177
 L 915,-212 L 814,-212 L 814,-177 L 810,-177 L 810,-212 L 709,-212
 L 709,-177 L 705,-177 L 705,-212 L 600,-212 L 600,-142 L 1230,-142
 z
M 1149.57,-162.979 L 1145.75,-164.679 L 1142.37,-167.137 L 1139.57,-170.244 L 1137.48,-173.865 L 1136.19,-177.842
 L 1135.75,-182 L 1136.19,-186.158 L 1137.48,-190.135 L 1139.57,-193.756 L 1142.37,-196.863 L 1145.75,-199.321
 L 1149.57,-201.021 L 1153.66,-201.89 L 1157.84,-201.89 L 1161.93,-201.021 L 1165.75,-199.321 L 1169.13,-196.863
 L 1171.93,-193.756 L 1174.02,-190.135 L 1175.31,-186.158 L 1175.75,-182 L 1175.31,-177.842 L 1174.02,-173.865
 L 1171.93,-170.244 L 1169.13,-167.137 L 1165.75,-164.679 L 1161.93,-162.979 L 1157.84,-162.11 L 1153.66,-162.11
 z
M 861.57,-161.979 L 857.75,-163.679 L 854.367,-166.137 L 851.57,-169.244 L 849.479,-172.865 L 848.187,-176.842
 L 847.75,-181 L 848.187,-185.158 L 849.479,-189.135 L 851.57,-192.756 L 854.367,-195.863 L 857.75,-198.321
 L 861.57,-200.021 L 865.659,-200.89 L 869.841,-200.89 L 873.93,-200.021 L 877.75,-198.321 L 881.133,-195.863
 L 883.93,-192.756 L 886.021,-189.135 L 887.313,-185.158 L 887.75,-181 L 887.313,-176.842 L 886.021,-172.865
 L 883.93,-169.244 L 881.133,-166.137 L 877.75,-163.679 L 873.93,-161.979 L 869.841,-161.11 L 865.659,-161.11
 z
M 1074.57,-161.979 L 1070.75,-163.679 L 1067.37,-166.137 L 1064.57,-169.244 L 1062.48,-172.865 L 1061.19,-176.842
 L 1060.75,-181 L 1061.19,-185.158 L 1062.48,-189.135 L 1064.57,-192.756 L 1067.37,-195.863 L 1070.75,-198.321
 L 1074.57,-200.021 L 1078.66,-200.89 L 1082.84,-200.89 L 1086.93,-200.021 L 1090.75,-198.321 L 1094.13,-195.863
 L 1096.93,-192.756 L 1099.02,-189.135 L 1100.31,-185.158 L 1100.75,-181 L 1100.31,-176.842 L 1099.02,-172.865
 L 1096.93,-169.244 L 1094.13,-166.137 L 1090.75,-163.679 L 1086.93,-161.979 L 1082.84,-161.11 L 1078.66,-161.11
 z
M 745.57,-158.979 L 741.75,-160.679 L 738.367,-163.137 L 735.57,-166.244 L 733.479,-169.865 L 732.187,-173.842
 L 731.75,-178 L 732.187,-182.158 L 733.479,-186.135 L 735.57,-189.756 L 738.367,-192.863 L 741.75,-195.321
 L 745.57,-197.021 L 749.659,-197.89 L 753.841,-197.89 L 757.93,-197.021 L 761.75,-195.321 L 765.133,-192.863
 L 767.93,-189.756 L 770.021,-186.135 L 771.313,-182.158 L 771.75,-178 L 771.313,-173.842 L 770.021,-169.865
 L 767.93,-166.244 L 765.133,-163.137 L 761.75,-160.679 L 757.93,-158.979 L 753.841,-158.11 L 749.659,-158.11
 z
M 646.57,-155.979 L 642.75,-157.679 L 639.367,-160.137 L 636.57,-163.244 L 634.479,-166.865 L 633.187,-170.842
 L 632.75,-175 L 633.187,-179.158 L 634.479,-183.135 L 636.57,-186.756 L 639.367,-189.863 L 642.75,-192.321
 L 646.57,-194.021 L 650.659,-194.89 L 654.841,-194.89 L 658.93,-194.021 L 662.75,-192.321 L 666.133,-189.863
 L 668.93,-186.756 L 671.021,-183.135 L 672.313,-179.158 L 672.75,-175 L 672.313,-170.842 L 671.021,-166.865
 L 668.93,-163.244 L 666.133,-160.137 L 662.75,-157.679 L 658.93,-155.979 L 654.841,-155.11 L 650.659,-155.11
 z
M 957.57,-154.979 L 953.75,-156.679 L 950.367,-159.137 L 947.57,-162.244 L 945.479,-165.865 L 944.187,-169.842
 L 943.75,-174 L 944.187,-178.158 L 945.479,-182.135 L 947.57,-185.756 L 950.367,-188.863 L 953.75,-191.321
 L 957.57,-193.021 L 961.659,-193.89 L 965.841,-193.89 L 969.93,-193.021 L 973.75,-191.321 L 977.133,-188.863
 L 979.93,-185.756 L 982.021,-182.135 L 983.313,-178.158 L 983.75,-174 L 983.313,-169.842 L 982.021,-165.865
 L 979.93,-162.244 L 977.133,-159.137 L 973.75,-156.679 L 969.93,-154.979 L 965.841,-154.11 L 961.659,-154.11
 z
M 430,-141 L 326.5,-141 L 326.5,-106 L 322.5,-106 L 322.5,-141 L 219,-141
 L 219,-106 L 215,-106 L 215,-141 L 111.5,-141 L 111.5,-106 L 107.5,-106
 L 107.5,-141 L 0,-141 L 0,-71 L 430,-71 z
M 47.5697,-86.9789 L 43.75,-88.6795 L 40.3674,-91.1371 L 37.5697,-94.2443 L 35.4791,-97.8653 L 34.187,-101.842
 L 33.75,-106 L 34.187,-110.158 L 35.4791,-114.135 L 37.5697,-117.756 L 40.3674,-120.863 L 43.75,-123.321
 L 47.5697,-125.021 L 51.6594,-125.89 L 55.8406,-125.89 L 59.9303,-125.021 L 63.75,-123.321 L 67.1326,-120.863
 L 69.9303,-117.756 L 72.0209,-114.135 L 73.313,-110.158 L 73.75,-106 L 73.313,-101.842 L 72.0209,-97.8653
 L 69.9303,-94.2443 L 67.1326,-91.1371 L 63.75,-88.6795 L 59.9303,-86.9789 L 55.8406,-86.1096 L 51.6594,-86.1096
 z
M 155.07,-86.9789 L 151.25,-88.6795 L 147.867,-91.1371 L 145.07,-94.2443 L 142.979,-97.8653 L 141.687,-101.842
 L 141.25,-106 L 141.687,-110.158 L 142.979,-114.135 L 145.07,-117.756 L 147.867,-120.863 L 151.25,-123.321
 L 155.07,-125.021 L 159.159,-125.89 L 163.341,-125.89 L 167.43,-125.021 L 171.25,-123.321 L 174.633,-120.863
 L 177.43,-117.756 L 179.521,-114.135 L 180.813,-110.158 L 181.25,-106 L 180.813,-101.842 L 179.521,-97.8653
 L 177.43,-94.2443 L 174.633,-91.1371 L 171.25,-88.6795 L 167.43,-86.9789 L 163.341,-86.1096 L 159.159,-86.1096
 z
M 1230,-141 L 1129,-141 L 1129,-106 L 1125,-106 L 1125,-141 L 1024,-141
 L 1024,-106 L 1020,-106 L 1020,-141 L 919,-141 L 919,-106 L 915,-106
 L 915,-141 L 814,-141 L 814,-106 L 810,-106 L 810,-141 L 709,-141
 L 709,-106 L 705,-106 L 705,-141 L 600,-141 L 600,-71 L 1230,-71
 z
M 740.57,-91.9789 L 736.75,-93.6795 L 733.367,-96.1371 L 730.57,-99.2443 L 728.479,-102.865 L 727.187,-106.842
 L 726.75,-111 L 727.187,-115.158 L 728.479,-119.135 L 730.57,-122.756 L 733.367,-125.863 L 736.75,-128.321
 L 740.57,-130.021 L 744.659,-130.89 L 748.841,-130.89 L 752.93,-130.021 L 756.75,-128.321 L 760.133,-125.863
 L 762.93,-122.756 L 765.021,-119.135 L 766.313,-115.158 L 766.75,-111 L 766.313,-106.842 L 765.021,-102.865
 L 762.93,-99.2443 L 760.133,-96.1371 L 756.75,-93.6795 L 752.93,-91.9789 L 748.841,-91.1096 L 744.659,-91.1096
 z
M 960.57,-89.9789 L 956.75,-91.6795 L 953.367,-94.1371 L 950.57,-97.2443 L 948.479,-100.865 L 947.187,-104.842
 L 946.75,-109 L 947.187,-113.158 L 948.479,-117.135 L 950.57,-120.756 L 953.367,-123.863 L 956.75,-126.321
 L 960.57,-128.021 L 964.659,-128.89 L 968.841,-128.89 L 972.93,-128.021 L 976.75,-126.321 L 980.133,-123.863
 L 982.93,-120.756 L 985.021,-117.135 L 986.313,-113.158 L 986.75,-109 L 986.313,-104.842 L 985.021,-100.865
 L 982.93,-97.2443 L 980.133,-94.1371 L 976.75,-91.6795 L 972.93,-89.9789 L 968.841,-89.1096 L 964.659,-89.1096
 z
M 1072.57,-89.9789 L 1068.75,-91.6795 L 1065.37,-94.1371 L 1062.57,-97.2443 L 1060.48,-100.865 L 1059.19,-104.842
 L 1058.75,-109 L 1059.19,-113.158 L 1060.48,-117.135 L 1062.57,-120.756 L 1065.37,-123.863 L 1068.75,-126.321
 L 1072.57,-128.021 L 1076.66,-128.89 L 1080.84,-128.89 L 1084.93,-128.021 L 1088.75,-126.321 L 1092.13,-123.863
 L 1094.93,-120.756 L 1097.02,-117.135 L 1098.31,-113.158 L 1098.75,-109 L 1098.31,-104.842 L 1097.02,-100.865
 L 1094.93,-97.2443 L 1092.13,-94.1371 L 1088.75,-91.6795 L 1084.93,-89.9789 L 1080.84,-89.1096 L 1076.66,-89.1096
 z
M 854.57,-85.9789 L 850.75,-87.6795 L 847.367,-90.1371 L 844.57,-93.2443 L 842.479,-96.8653 L 841.187,-100.842
 L 840.75,-105 L 841.187,-109.158 L 842.479,-113.135 L 844.57,-116.756 L 847.367,-119.863 L 850.75,-122.321
 L 854.57,-124.021 L 858.659,-124.89 L 862.841,-124.89 L 866.93,-124.021 L 870.75,-122.321 L 874.133,-119.863
 L 876.93,-116.756 L 879.021,-113.135 L 880.313,-109.158 L 880.75,-105 L 880.313,-100.842 L 879.021,-96.8653
 L 876.93,-93.2443 L 874.133,-90.1371 L 870.75,-87.6795 L 866.93,-85.9789 L 862.841,-85.1096 L 858.659,-85.1096
 z
M 656.57,-83.9789 L 652.75,-85.6795 L 649.367,-88.1371 L 646.57,-91.2443 L 644.479,-94.8653 L 643.187,-98.8418
 L 642.75,-103 L 643.187,-107.158 L 644.479,-111.135 L 646.57,-114.756 L 649.367,-117.863 L 652.75,-120.321
 L 656.57,-122.021 L 660.659,-122.89 L 664.841,-122.89 L 668.93,-122.021 L 672.75,-120.321 L 676.133,-117.863
 L 678.93,-114.756 L 681.021,-111.135 L 682.313,-107.158 L 682.75,-103 L 682.313,-98.8418 L 681.021,-94.8653
 L 678.93,-91.2443 L 676.133,-88.1371 L 672.75,-85.6795 L 668.93,-83.9789 L 664.841,-83.1096 L 660.659,-83.1096
 z
M 1178.57,-83.9789 L 1174.75,-85.6795 L 1171.37,-88.1371 L 1168.57,-91.2443 L 1166.48,-94.8653 L 1165.19,-98.8418
 L 1164.75,-103 L 1165.19,-107.158 L 1166.48,-111.135 L 1168.57,-114.756 L 1171.37,-117.863 L 1174.75,-120.321
 L 1178.57,-122.021 L 1182.66,-122.89 L 1186.84,-122.89 L 1190.93,-122.021 L 1194.75,-120.321 L 1198.13,-117.863
 L 1200.93,-114.756 L 1203.02,-111.135 L 1204.31,-107.158 L 1204.75,-103 L 1204.31,-98.8418 L 1203.02,-94.8653
 L 1200.93,-91.2443 L 1198.13,-88.1371 L 1194.75,-85.6795 L 1190.93,-83.9789 L 1186.84,-83.1096 L 1182.66,-83.1096
 z
M 430,-70 L 326.5,-70 L 326.5,-35 L 322.5,-35 L 322.5,-70 L 219,-70
 L 219,-35 L 215,-35 L 215,-70 L 111.5,-70 L 111.5,-35 L 107.5,-35
 L 107.5,-70 L 0,-70 L 0,-0 L 430,-0 z
M 155.07,-15.9789 L 151.25,-17.6795 L 147.867,-20.1371 L 145.07,-23.2443 L 142.979,-26.8653 L 141.687,-30.8418
 L 141.25,-35 L 141.687,-39.1582 L 142.979,-43.1347 L 145.07,-46.7557 L 147.867,-49.8629 L 151.25,-52.3205
 L 155.07,-54.0211 L 159.159,-54.8904 L 163.341,-54.8904 L 167.43,-54.0211 L 171.25,-52.3205 L 174.633,-49.8629
 L 177.43,-46.7557 L 179.521,-43.1347 L 180.813,-39.1582 L 181.25,-35 L 180.813,-30.8418 L 179.521,-26.8653
 L 177.43,-23.2443 L 174.633,-20.1371 L 171.25,-17.6795 L 167.43,-15.9789 L 163.341,-15.1096 L 159.159,-15.1096
 z
M 370.07,-15.9789 L 366.25,-17.6795 L 362.867,-20.1371 L 360.07,-23.2443 L 357.979,-26.8653 L 356.687,-30.8418
 L 356.25,-35 L 356.687,-39.1582 L 357.979,-43.1347 L 360.07,-46.7557 L 362.867,-49.8629 L 366.25,-52.3205
 L 370.07,-54.0211 L 374.159,-54.8904 L 378.341,-54.8904 L 382.43,-54.0211 L 386.25,-52.3205 L 389.633,-49.8629
 L 392.43,-46.7557 L 394.521,-43.1347 L 395.813,-39.1582 L 396.25,-35 L 395.813,-30.8418 L 394.521,-26.8653
 L 392.43,-23.2443 L 389.633,-20.1371 L 386.25,-17.6795 L 382.43,-15.9789 L 378.341,-15.1096 L 374.159,-15.1096
 z
M 1230,-70 L 1129,-70 L 1129,-35 L 1125,-35 L 1125,-70 L 1024,-70
 L 1024,-35 L 1020,-35 L 1020,-70 L 919,-70 L 919,-35 L 915,-35
 L 915,-70 L 814,-70 L 814,-35 L 810,-35 L 810,-70 L 709,-70
 L 709,-35 L 705,-35 L 705,-70 L 600,-70 L 600,-0 L 1230,-0
 z
M 762.57,-15.9789 L 758.75,-17.6795 L 755.367,-20.1371 L 752.57,-23.2443 L 750.479,-26.8653 L 749.187,-30.8418
 L 748.75,-35 L 749.187,-39.1582 L 750.479,-43.1347 L 752.57,-46.7557 L 755.367,-49.8629 L 758.75,-52.3205
 L 762.57,-54.0211 L 766.659,-54.8904 L 770.841,-54.8904 L 774.93,-54.0211 L 778.75,-52.3205 L 782.133,-49.8629
 L 784.93,-46.7557 L 787.021,-43.1347 L 788.313,-39.1582 L 788.75,-35 L 788.313,-30.8418 L 787.021,-26.8653
 L 784.93,-23.2443 L 782.133,-20.1371 L 778.75,-17.6795 L 774.93,-15.9789 L 770.841,-15.1096 L 766.659,-15.1096
 z
M 982.57,-14.9789 L 978.75,-16.6795 L 975.367,-19.1371 L 972.57,-22.2443 L 970.479,-25.8653 L 969.187,-29.8418
 L 968.75,-34 L 969.187,-38.1582 L 970.479,-42.1347 L 972.57,-45.7557 L 975.367,-48.8629 L 978.75,-51.3205
 L 982.57,-53.0211 L 986.659,-53.8904 L 990.841,-53.8904 L 994.93,-53.0211 L 998.75,-51.3205 L 1002.13,-48.8629
 L 1004.93,-45.7557 L 1007.02,-42.1347 L 1008.31,-38.1582 L 1008.75,-34 L 1008.31,-29.8418 L 1007.02,-25.8653
 L 1004.93,-22.2443 L 1002.13,-19.1371 L 998.75,-16.6795 L 994.93,-14.9789 L 990.841,-14.1096 L 986.659,-14.1096
 z
M 1178.57,-14.9789 L 1174.75,-16.6795 L 1171.37,-19.1371 L 1168.57,-22.2443 L 1166.48,-25.8653 L 1165.19,-29.8418
 L 1164.75,-34 L 1165.19,-38.1582 L 1166.48,-42.1347 L 1168.57,-45.7557 L 1171.37,-48.8629 L 1174.75,-51.3205
 L 1178.57,-53.0211 L 1182.66,-53.8904 L 1186.84,-53.8904 L 1190.93,-53.0211 L 1194.75,-51.3205 L 1198.13,-48.8629
 L 1200.93,-45.7557 L 1203.02,-42.1347 L 1204.31,-38.1582 L 1204.75,-34 L 1204.31,-29.8418 L 1203.02,-25.8653
 L 1200.93,-22.2443 L 1198.13,-19.1371 L 1194.75,-16.6795 L 1190.93,-14.9789 L 1186.84,-14.1096 L 1182.66,-14.1096
 z
M 835.57,-13.9789 L 831.75,-15.6795 L 828.367,-18.1371 L 825.57,-21.2443 L 823.479,-24.8653 L 822.187,-28.8418
 L 821.75,-33 L 822.187,-37.1582 L 823.479,-41.1347 L 825.57,-44.7557 L 828.367,-47.8629 L 831.75,-50.3205
 L 835.57,-52.0211 L 839.659,-52.8904 L 843.841,-52.8904 L 847.93,-52.0211 L 851.75,-50.3205 L 855.133,-47.8629
 L 857.93,-44.7557 L 860.021,-41.1347 L 861.313,-37.1582 L 861.75,-33 L 861.313,-28.8418 L 860.021,-24.8653
 L 857.93,-21.2443 L 855.133,-18.1371 L 851.75,-15.6795 L 847.93,-13.9789 L 843.841,-13.1096 L 839.659,-13.1096
 z
M 653.57,-12.9789 L 649.75,-14.6795 L 646.367,-17.1371 L 643.57,-20.2443 L 641.479,-23.8653 L 640.187,-27.8418
 L 639.75,-32 L 640.187,-36.1582 L 641.479,-40.1347 L 643.57,-43.7557 L 646.367,-46.8629 L 649.75,-49.3205
 L 653.57,-51.0211 L 657.659,-51.8904 L 661.841,-51.8904 L 665.93,-51.0211 L 669.75,-49.3205 L 673.133,-46.8629
 L 675.93,-43.7557 L 678.021,-40.1347 L 679.313,-36.1582 L 679.75,-32 L 679.313,-27.8418 L 678.021,-23.8653
 L 675.93,-20.2443 L 673.133,-17.1371 L 669.75,-14.6795 L 665.93,-12.9789 L 661.841,-12.1096 L 657.659,-12.1096
 z
M 1086.57,-11.9789 L 1082.75,-13.6795 L 1079.37,-16.1371 L 1076.57,-19.2443 L 1074.48,-22.8653 L 1073.19,-26.8418
 L 1072.75,-31 L 1073.19,-35.1582 L 1074.48,-39.1347 L 1076.57,-42.7557 L 1079.37,-45.8629 L 1082.75,-48.3205
 L 1086.57,-50.0211 L 1090.66,-50.8904 L 1094.84,-50.8904 L 1098.93,-50.0211 L 1102.75,-48.3205 L 1106.13,-45.8629
 L 1108.93,-42.7557 L 1111.02,-39.1347 L 1112.31,-35.1582 L 1112.75,-31 L 1112.31,-26.8418 L 1111.02,-22.8653
 L 1108.93,-19.2443 L 1106.13,-16.1371 L 1102.75,-13.6795 L 1098.93,-11.9789 L 1094.84,-11.1096 L 1090.66,-11.1096
 z
" stroke="black" fill="lightgray" stroke-width="0.5"/>
</svg>
